<svg width="128" height="128" viewBox="0 0 128 128" fill="none" xmlns="http://www.w3.org/2000/svg">
<path d="M64.7507 61.6894C76.3423 65.3412 86.4075 68.4604 91.0152 69.6946C97.9327 71.5484 110.598 69.1204 119.033 67.5034C123.563 66.635 126.872 66.0004 127.416 66.3887C126.055 72.5468 124.413 77.6009 122.634 83.0762C120.844 88.5831 119.237 93.5319 116.8 99.3641C116.034 99.382 113.533 96.7177 110.166 93.1311C104.282 86.8628 95.7532 77.7772 89.2165 75.2682C84.7569 73.5734 74.7723 70.1889 63.2421 66.3324C51.6471 62.6751 41.5801 59.5445 36.976 58.2943C30.213 56.4819 17.9727 58.8192 9.52787 60.4318C4.69592 61.3544 1.10657 62.0398 0.496894 61.5748C1.95419 55.4246 3.56215 50.4758 5.35144 44.9689C7.13047 39.4936 8.77267 34.4395 11.2908 28.6572C11.9592 28.6629 14.264 31.1217 17.4184 34.4869C23.2918 40.753 32.1109 50.1616 38.797 52.7278C43.2501 54.4377 53.2265 57.8304 64.7507 61.6894Z" fill="#72777D"/>
<path d="M63.2494 61.6895C74.7736 57.8305 84.75 54.4378 89.2031 52.7279C95.8892 50.1617 104.708 40.753 110.582 34.487C113.736 31.1218 116.041 28.663 116.709 28.6573C119.227 34.4396 120.87 39.4937 122.649 44.969C124.438 50.4758 126.046 55.4247 127.503 61.5749C126.894 62.0399 123.304 61.3545 118.472 60.4318C110.027 58.8193 97.7871 56.482 91.0241 58.2944C86.42 59.5445 76.3529 62.6751 64.758 66.3325C53.2277 70.189 43.2432 73.5735 38.7836 75.2683C32.2469 77.7772 23.7181 86.8629 17.834 93.1312C14.4672 96.7178 11.9662 99.3821 11.1996 99.3642C8.76359 93.532 7.15562 88.5832 5.36633 83.0763C3.5873 77.6011 1.94511 72.5469 0.58363 66.3888C1.12771 66.0005 4.43754 66.635 8.96753 67.5035C17.4023 69.1205 30.0674 71.5485 36.9849 69.6946C41.5926 68.4605 51.6578 65.3413 63.2494 61.6895Z" fill="#72777D"/>
<path d="M66.4291 63.9998C66.538 76.1525 66.6818 86.689 66.9319 91.4525C67.3065 98.6043 73.5293 109.899 77.6737 117.422C79.8995 121.461 81.5257 124.413 81.3246 125.051C75.0471 125.659 69.7329 125.659 63.9759 125.659C58.1856 125.659 52.9821 125.659 46.6826 125.144C46.4287 124.421 48.1897 121.219 50.5604 116.908C54.7036 109.375 60.709 98.4563 61.0752 91.4642C61.309 86.6991 61.4425 76.1574 61.5472 63.9998C61.4425 51.8421 61.309 41.3004 61.0752 36.5354C60.709 29.5433 54.7036 18.6243 50.5604 11.0911C48.1897 6.78078 46.4287 3.57891 46.6826 2.85537C52.9821 2.34082 58.1856 2.34082 63.9758 2.34082C69.7329 2.34082 75.0471 2.34082 81.3246 2.94893C81.5257 3.58637 79.8995 6.53813 77.6737 10.578C73.5293 18.1003 67.3065 29.3952 66.9319 36.5471C66.6818 41.3106 66.538 51.8471 66.4291 63.9998Z" fill="#72777D"/>
<path d="M62.0344 62.572C69.0894 52.6762 75.1663 44.0675 77.7639 40.0667C81.6646 34.0606 83.2692 21.2651 84.3378 12.7435C84.9117 8.16684 85.3311 4.82293 85.8685 4.42547C91.3044 7.62327 95.6037 10.7469 100.261 14.1308C104.946 17.5342 109.155 20.5928 113.949 24.7118C113.73 25.4464 110.423 27.0017 105.971 29.0954C98.1915 32.7545 86.915 38.0583 82.5089 43.4997C79.519 47.2174 73.2147 55.6673 65.9839 65.4415C58.9225 75.3388 52.8343 83.9457 50.2226 87.9381C46.409 93.81 44.8494 106.174 43.7735 114.703C43.1578 119.584 42.7005 123.209 42.0699 123.646C36.671 120.359 32.4613 117.301 27.7769 113.897C23.1193 110.513 18.82 107.39 14.0989 103.208C14.3108 102.574 17.3615 101.142 21.5368 99.1817C29.3111 95.532 40.9845 90.0519 45.4913 84.4862C48.4935 80.7794 54.8031 72.3397 62.0344 62.572Z" fill="#72777D"/>
<path d="M65.9657 62.5722C73.197 72.3399 79.5066 80.7796 82.5088 84.4863C87.0156 90.0521 98.689 95.5322 106.463 99.1819C110.639 101.142 113.689 102.574 113.901 103.208C109.18 107.39 104.881 110.513 100.223 113.897C95.5388 117.301 91.3291 120.359 85.9302 123.646C85.2996 123.21 84.8423 119.584 84.2266 114.704C83.1507 106.174 81.5911 93.8102 77.7775 87.9383C75.1658 83.9459 69.0775 75.339 62.0162 65.4417C54.7854 55.6675 48.4811 47.2176 45.4912 43.4999C41.0851 38.0585 29.8086 32.7547 22.0288 29.0956C17.5773 27.0019 14.2706 25.4466 14.0507 24.712C18.8446 20.593 23.0544 17.5344 27.7388 14.131C32.3963 10.7471 36.6957 7.62346 42.1316 4.42566C42.669 4.82312 43.0884 8.16704 43.6623 12.7437C44.7309 21.2653 46.3355 34.0608 50.2362 40.0669C52.8338 44.0677 58.9107 52.6764 65.9657 62.5722Z" fill="#72777D"/>
</svg>
