<svg width="20" height="20" viewBox="0 0 20 20" fill="none" xmlns="http://www.w3.org/2000/svg">
<g id="Lexica / Lexica">
<g id="Vector">
<path d="M10.1182 9.6363C11.9436 10.2114 13.5286 10.7025 14.2541 10.8969C15.3435 11.1888 17.3379 10.8065 18.6661 10.5518C19.3795 10.4151 19.9007 10.3152 19.9864 10.3763C19.772 11.346 19.5134 12.1419 19.2332 13.0041C18.9514 13.8713 18.6982 14.6506 18.3146 15.569C18.1939 15.5718 17.8001 15.1523 17.2699 14.5875C16.3433 13.6004 15.0003 12.1697 13.9709 11.7746C13.2686 11.5077 11.6963 10.9747 9.88065 10.3674C8.05476 9.79151 6.46948 9.29852 5.74447 9.10166C4.67948 8.81625 2.75196 9.18431 1.42213 9.43825C0.661231 9.58354 0.0960078 9.69147 0 9.61825C0.229484 8.64976 0.482695 7.87046 0.764458 7.00328C1.04461 6.14107 1.30321 5.34518 1.69975 4.43463C1.805 4.43552 2.16794 4.82272 2.66467 5.35265C3.58958 6.33938 4.97835 7.82098 6.03122 8.22509C6.73246 8.49435 8.30346 9.02861 10.1182 9.6363Z" fill="#54595D"/>
<path d="M9.88179 9.6363C11.6965 9.02861 13.2675 8.49435 13.9688 8.22509C15.0217 7.82098 16.4104 6.33938 17.3353 5.35265C17.8321 4.82272 18.195 4.43552 18.3002 4.43463C18.6968 5.34518 18.9554 6.14106 19.2355 7.00327C19.5173 7.87045 19.7705 8.64975 20 9.61825C19.904 9.69147 19.3388 9.58354 18.5779 9.43825C17.248 9.18431 15.3205 8.81625 14.2555 9.10165C13.5305 9.29852 11.9452 9.79151 10.1193 10.3674C8.30365 10.9747 6.73136 11.5077 6.0291 11.7746C4.99975 12.1697 3.65669 13.6004 2.7301 14.5875C2.19992 15.1523 1.80609 15.5718 1.68537 15.569C1.30176 14.6506 1.04855 13.8713 0.76679 13.0041C0.486641 12.1419 0.22804 11.346 0.013645 10.3763C0.099322 10.3152 0.620531 10.4151 1.33388 10.5518C2.66213 10.8065 4.65653 11.1888 5.74585 10.8969C6.47143 10.7025 8.05643 10.2114 9.88179 9.6363Z" fill="#54595D"/>
<path d="M10.3825 10.0001C10.3997 11.9138 10.4223 13.5731 10.4617 14.3232C10.5207 15.4494 11.5006 17.228 12.1533 18.4126C12.5038 19.0488 12.7599 19.5136 12.7282 19.614C11.7397 19.7097 10.9028 19.7097 9.99623 19.7097C9.08443 19.7097 8.26501 19.7097 7.27301 19.6287C7.23303 19.5148 7.51035 19.0106 7.88366 18.3318C8.53611 17.1455 9.48179 15.4261 9.53946 14.325C9.57627 13.5747 9.59729 11.9146 9.61378 10.0001C9.59729 8.08563 9.57627 6.4256 9.53946 5.67523C9.48179 4.57417 8.53611 2.85473 7.88366 1.66846C7.51035 0.989699 7.23303 0.485492 7.27301 0.371555C8.26501 0.290527 9.08442 0.290527 9.99623 0.290527C10.9028 0.290527 11.7397 0.290527 12.7282 0.386288C12.7599 0.486667 12.5038 0.951489 12.1533 1.58766C11.5006 2.77222 10.5207 4.55086 10.4617 5.67707C10.4223 6.4272 10.3997 8.08641 10.3825 10.0001Z" fill="#54595D"/>
<path d="M9.69051 9.77526C10.8015 8.21695 11.7584 6.86131 12.1675 6.2313C12.7817 5.2855 13.0344 3.27056 13.2027 1.92864C13.2931 1.20794 13.3591 0.681367 13.4437 0.618779C14.2997 1.12234 14.9768 1.61423 15.7102 2.1471C16.4479 2.68305 17.1108 3.16469 17.8657 3.81333C17.8311 3.929 17.3104 4.17391 16.6094 4.50361C15.3843 5.07983 13.6085 5.91503 12.9147 6.7719C12.4439 7.35733 11.4511 8.68797 10.3125 10.2271C9.20049 11.7857 8.24175 13.141 7.83048 13.7697C7.22995 14.6944 6.98436 16.6413 6.81492 17.9845C6.71798 18.7531 6.64596 19.324 6.54665 19.3927C5.69648 18.8751 5.03356 18.3935 4.2959 17.8576C3.56246 17.3247 2.88543 16.8328 2.14199 16.1743C2.17536 16.0745 2.65576 15.8489 3.31325 15.5403C4.5375 14.9656 6.37574 14.1026 7.08543 13.2261C7.5582 12.6424 8.55178 11.3134 9.69051 9.77526Z" fill="#54595D"/>
<path d="M10.3095 9.77527C11.4482 11.3134 12.4418 12.6424 12.9146 13.2261C13.6243 14.1026 15.4625 14.9656 16.6867 15.5403C17.3442 15.849 17.8246 16.0745 17.858 16.1743C17.1146 16.8328 16.4375 17.3247 15.7041 17.8576C14.9664 18.3935 14.3035 18.8752 13.4533 19.3927C13.354 19.324 13.282 18.7531 13.1851 17.9845C13.0156 16.6413 12.7701 14.6944 12.1695 13.7697C11.7582 13.141 10.7995 11.7857 9.68753 10.2271C8.54888 8.68797 7.55614 7.35734 7.0853 6.77191C6.39146 5.91503 4.61573 5.07983 3.39061 4.50362C2.68963 4.17392 2.16891 3.929 2.13428 3.81333C2.8892 3.16469 3.55212 2.68306 4.28978 2.14711C5.02322 1.61424 5.70025 1.12235 6.55626 0.618785C6.64089 0.681374 6.70693 1.20795 6.7973 1.92864C6.96558 3.27057 7.21826 5.28551 7.83252 6.2313C8.24157 6.86132 9.1985 8.21696 10.3095 9.77527Z" fill="#54595D"/>
</g>
</g>
</svg>
