<svg width="20" height="20" viewBox="0 0 20 20" fill="none" xmlns="http://www.w3.org/2000/svg">
<g id="Lexica / Lexica">
<g id="Vector">
<path d="M10.1182 9.63581C11.9436 10.2109 13.5286 10.702 14.2541 10.8964C15.3435 11.1883 17.3379 10.806 18.6661 10.5513C19.3795 10.4146 19.9007 10.3147 19.9864 10.3758C19.772 11.3456 19.5134 12.1414 19.2332 13.0036C18.9514 13.8708 18.6982 14.6501 18.3146 15.5685C18.1939 15.5714 17.8001 15.1518 17.2699 14.587C16.3433 13.5999 15.0003 12.1692 13.9709 11.7741C13.2686 11.5072 11.6963 10.9742 9.88065 10.367C8.05476 9.79102 6.46948 9.29804 5.74447 9.10117C4.67948 8.81576 2.75196 9.18383 1.42213 9.43776C0.661231 9.58306 0.0960078 9.69099 0 9.61776C0.229484 8.64927 0.482695 7.86997 0.764458 7.00279C1.04461 6.14058 1.30321 5.34469 1.69975 4.43414C1.805 4.43503 2.16794 4.82223 2.66467 5.35216C3.58958 6.33889 4.97835 7.82049 6.03122 8.2246C6.73246 8.49386 8.30346 9.02812 10.1182 9.63581Z" fill="#A2A9B1"/>
<path d="M9.88179 9.63581C11.6965 9.02812 13.2675 8.49386 13.9688 8.2246C15.0217 7.82049 16.4104 6.33889 17.3353 5.35216C17.8321 4.82223 18.195 4.43503 18.3002 4.43414C18.6968 5.34469 18.9554 6.14057 19.2355 7.00278C19.5173 7.86996 19.7705 8.64927 20 9.61776C19.904 9.69099 19.3388 9.58306 18.5779 9.43776C17.248 9.18383 15.3205 8.81576 14.2555 9.10117C13.5305 9.29803 11.9452 9.79102 10.1193 10.367C8.30365 10.9742 6.73136 11.5072 6.0291 11.7741C4.99975 12.1692 3.65669 13.5999 2.7301 14.587C2.19992 15.1518 1.80609 15.5714 1.68537 15.5685C1.30176 14.6501 1.04855 13.8708 0.76679 13.0036C0.486641 12.1414 0.22804 11.3455 0.013645 10.3758C0.099322 10.3147 0.620531 10.4146 1.33388 10.5513C2.66213 10.806 4.65653 11.1883 5.74585 10.8964C6.47143 10.702 8.05643 10.2109 9.88179 9.63581Z" fill="#A2A9B1"/>
<path d="M10.3825 9.99964C10.3997 11.9134 10.4223 13.5726 10.4617 14.3227C10.5207 15.4489 11.5006 17.2275 12.1533 18.4121C12.5038 19.0483 12.7599 19.5131 12.7282 19.6135C11.7397 19.7092 10.9028 19.7092 9.99623 19.7092C9.08443 19.7092 8.26502 19.7092 7.27301 19.6282C7.23303 19.5143 7.51035 19.0101 7.88366 18.3313C8.53611 17.145 9.48179 15.4256 9.53946 14.3245C9.57627 13.5742 9.59729 11.9141 9.61378 9.99964C9.59729 8.08514 9.57627 6.42511 9.53946 5.67474C9.48179 4.57368 8.53611 2.85424 7.88366 1.66797C7.51035 0.989211 7.23303 0.485004 7.27301 0.371067C8.26501 0.290039 9.08442 0.290039 9.99623 0.290039C10.9028 0.290039 11.7397 0.290039 12.7282 0.3858C12.7599 0.486178 12.5038 0.951001 12.1533 1.58718C11.5006 2.77173 10.5207 4.55037 10.4617 5.67659C10.4223 6.42671 10.3997 8.08592 10.3825 9.99964Z" fill="#A2A9B1"/>
<path d="M9.69051 9.77477C10.8015 8.21646 11.7584 6.86082 12.1675 6.23081C12.7817 5.28501 13.0344 3.27008 13.2027 1.92815C13.2931 1.20745 13.3591 0.680879 13.4437 0.61829C14.2997 1.12186 14.9768 1.61374 15.7102 2.14661C16.4479 2.68256 17.1108 3.1642 17.8657 3.81284C17.8311 3.92851 17.3104 4.17342 16.6094 4.50312C15.3843 5.07934 13.6085 5.91454 12.9147 6.77142C12.4439 7.35684 11.4511 8.68748 10.3125 10.2266C9.20049 11.7852 8.24175 13.1405 7.83048 13.7692C7.22995 14.6939 6.98436 16.6408 6.81492 17.984C6.71798 18.7526 6.64596 19.3235 6.54665 19.3922C5.69648 18.8747 5.03356 18.393 4.2959 17.8571C3.56246 17.3242 2.88543 16.8323 2.14199 16.1738C2.17536 16.074 2.65576 15.8485 3.31325 15.5398C4.5375 14.9651 6.37574 14.1021 7.08543 13.2257C7.5582 12.6419 8.55178 11.3129 9.69051 9.77477Z" fill="#A2A9B1"/>
<path d="M10.3095 9.77478C11.4482 11.3129 12.4418 12.6419 12.9146 13.2257C13.6243 14.1021 15.4625 14.9651 16.6867 15.5398C17.3442 15.8485 17.8246 16.074 17.858 16.1738C17.1146 16.8323 16.4375 17.3242 15.7041 17.8571C14.9664 18.393 14.3035 18.8747 13.4533 19.3922C13.354 19.3235 13.282 18.7526 13.1851 17.984C13.0156 16.6408 12.7701 14.6939 12.1695 13.7692C11.7582 13.1406 10.7995 11.7852 9.68753 10.2267C8.54888 8.68748 7.55614 7.35685 7.0853 6.77142C6.39146 5.91454 4.61573 5.07935 3.39061 4.50313C2.68963 4.17343 2.16891 3.92852 2.13428 3.81284C2.8892 3.16421 3.55212 2.68257 4.28978 2.14662C5.02322 1.61375 5.70025 1.12186 6.55626 0.618297C6.64089 0.680886 6.70693 1.20746 6.7973 1.92816C6.96558 3.27008 7.21826 5.28502 7.83252 6.23082C8.24157 6.86083 9.1985 8.21647 10.3095 9.77478Z" fill="#A2A9B1"/>
</g>
</g>
</svg>
