<svg width="320" height="128" viewBox="0 0 320 128" fill="none" xmlns="http://www.w3.org/2000/svg">
<rect width="320" height="128" fill="#EAF3FF"/>
<path d="M189.247 15.6504C188.006 15.7155 187.058 16.8765 187.13 18.2437L191.476 101.172C191.547 102.539 192.612 103.595 193.852 103.53L261.26 99.9972C262.501 99.9321 263.449 98.7711 263.377 97.4039L259.031 14.4755C258.959 13.1083 257.895 12.0527 256.654 12.1178L189.247 15.6504Z" fill="#A2A9B1"/>
<path d="M195.253 21.8239C195.253 20.7193 196.149 19.8239 197.253 19.8239H265.253C266.358 19.8239 267.253 20.7193 267.253 21.8239V105.824C267.253 106.928 266.358 107.824 265.253 107.824H197.253C196.149 107.824 195.253 106.928 195.253 105.824V21.8239Z" fill="#C8CCD1"/>
<path d="M203.51 25.8308C203.563 24.8197 204.41 24.0422 205.403 24.0942L273.709 27.674C274.702 27.726 275.464 28.5879 275.411 29.599L270.997 113.817C270.944 114.828 270.096 115.605 269.104 115.553L200.797 111.974C199.805 111.922 199.043 111.06 199.096 110.049L203.51 25.8308Z" fill="#3366CC"/>
<path d="M258.936 78.2389C258.934 78.2465 258.931 78.254 258.928 78.2615C258.101 80.4458 257.358 82.4088 256.278 84.7148C255.987 84.7116 255.114 83.6094 253.938 82.1257C251.883 79.5325 248.905 75.7739 246.501 74.6796C244.86 73.9398 241.176 72.448 236.921 70.7461C232.634 69.1229 228.912 67.7315 227.204 67.168C224.695 66.35 220.002 67.1222 216.764 67.655C214.911 67.9598 213.535 68.1863 213.317 67.9916C214.036 65.5448 214.779 63.5819 215.605 61.3976C215.608 61.3901 215.611 61.3825 215.614 61.375C215.614 61.3742 215.615 61.3733 215.615 61.3725C215.615 61.3716 215.616 61.3706 215.616 61.3697C216.434 59.2087 217.191 57.2114 218.297 54.9363C218.549 54.9476 219.354 55.9647 220.455 57.3568C222.506 59.9489 225.586 63.841 228.045 64.9603C229.682 65.706 233.363 67.201 237.616 68.9039C241.901 70.5248 245.624 71.9116 247.333 72.4687C249.899 73.3054 254.756 72.5025 257.99 71.9678C259.727 71.6807 260.997 71.4709 261.192 71.6339C260.512 74.0746 259.757 76.0726 258.938 78.2337C258.938 78.2346 258.938 78.2356 258.937 78.2365C258.937 78.2373 258.937 78.2381 258.936 78.2389Z" fill="white"/>
<path d="M259.658 63.6857C259.66 63.6927 259.662 63.6997 259.664 63.7066C260.258 65.9654 260.792 67.9953 261.251 70.5037C261.014 70.6746 259.669 70.3055 257.858 69.8087C254.693 68.9403 250.106 67.6817 247.526 68.2331C245.769 68.6149 241.922 69.6092 237.491 70.7751C233.08 72.0232 229.259 73.1221 227.55 73.6864C225.044 74.5234 221.689 77.9501 219.375 80.3143C218.05 81.667 217.066 82.6718 216.777 82.6447C215.944 80.2383 215.41 78.2085 214.816 75.9498C214.814 75.9428 214.812 75.9357 214.811 75.9288C214.81 75.9271 214.809 75.9255 214.809 75.9239C214.809 75.922 214.808 75.92 214.808 75.918C214.22 73.6844 213.678 71.6191 213.258 69.1218C213.469 68.98 214.709 69.3213 216.407 69.7885C219.567 70.6584 224.314 71.9645 226.953 71.4006C228.711 71.0253 232.556 70.0355 236.987 68.8717C241.396 67.6225 245.214 66.5201 246.921 65.9496C249.483 65.0934 252.953 61.5445 255.263 59.181C256.504 57.9117 257.411 56.9842 257.663 56.9994C258.524 59.3766 259.068 61.4414 259.656 63.675C259.656 63.6769 259.657 63.6788 259.657 63.6807C259.658 63.6824 259.658 63.684 259.658 63.6857Z" fill="white"/>
<path d="M256.551 78.2161C251.125 76.346 231.821 68.7574 227.209 67.2295C223.263 65.9377 213.912 68.5983 213.313 68.0607C214.033 65.6011 214.777 63.6278 215.605 61.4319C216.428 59.2487 217.188 57.2334 218.299 54.9364C219.023 54.9687 224.269 63.2816 228.05 65.0101C232.475 67.0334 251.809 74.5464 257.076 76.8364C257.717 77.0871 259.055 78.0917 258.959 78.3478C258.876 78.5661 257.229 78.3702 256.582 78.1464L256.551 78.2161Z" fill="white"/>
<path d="M259.658 63.6857C259.66 63.6927 259.662 63.6997 259.664 63.7066C260.258 65.9654 260.792 67.9953 261.251 70.5037C261.014 70.6746 259.669 70.3055 257.858 69.8087C254.693 68.9403 250.106 67.6817 247.526 68.2331C245.769 68.6149 241.922 69.6092 237.491 70.7751C233.08 72.0232 229.259 73.1221 227.55 73.6864C225.044 74.5234 221.689 77.9501 219.375 80.3143C218.05 81.667 217.066 82.6718 216.777 82.6447C215.944 80.2383 215.41 78.2085 214.816 75.9498C214.814 75.9428 214.812 75.9357 214.811 75.9288C214.81 75.9271 214.809 75.9255 214.809 75.9239C214.809 75.922 214.808 75.92 214.808 75.918C214.22 73.6844 213.678 71.6191 213.258 69.1218C213.469 68.98 214.709 69.3213 216.407 69.7885C219.567 70.6584 224.314 71.9645 226.953 71.4006C228.711 71.0253 232.556 70.0355 236.987 68.8717C241.396 67.6225 245.214 66.5201 246.921 65.9496C249.483 65.0934 252.953 61.5445 255.263 59.181C256.504 57.9117 257.411 56.9842 257.663 56.9994C258.524 59.3766 259.068 61.4414 259.656 63.675C259.656 63.6769 259.657 63.6788 259.657 63.6807C259.658 63.6824 259.658 63.684 259.658 63.6857Z" fill="white"/>
<path d="M238.198 69.8734C237.993 74.5994 237.834 78.6979 237.834 80.5546C237.834 83.3422 240.023 87.8594 241.48 90.8677C242.263 92.4834 242.835 93.6639 242.744 93.9076C240.292 94.0161 238.226 93.9078 235.988 93.7905C233.737 93.6726 231.715 93.5666 229.277 93.2382C229.193 92.9518 229.942 91.7431 230.952 90.116C232.716 87.2722 235.272 83.1503 235.557 80.4399C235.745 78.5924 236.012 74.4975 236.3 69.774C236.507 65.0461 236.67 60.9458 236.676 59.0888C236.676 56.3635 234.564 51.9969 233.107 48.9843C232.274 47.2606 231.654 45.9801 231.768 45.704C234.227 45.6324 236.25 45.7384 238.5 45.8563C240.738 45.9736 242.804 46.0819 245.231 46.4461C245.297 46.698 244.604 47.8122 243.657 49.3372C241.893 52.1767 239.244 56.4403 238.952 59.2127C238.758 61.0592 238.488 65.1518 238.198 69.8734Z" fill="white"/>
<path d="M249.914 89.7636C249.908 89.7677 249.902 89.7717 249.896 89.7758C247.959 91.065 246.219 92.2237 244.007 93.4598C243.774 93.2821 243.707 91.8535 243.616 89.9303C243.457 86.5692 243.227 81.6974 241.916 79.3525C241.015 77.7551 238.893 74.3036 236.43 70.336C233.908 66.4325 231.709 63.0591 230.655 61.5713C229.1 59.3894 224.853 57.192 221.923 55.6759C220.247 54.8084 219.002 54.1641 218.938 53.8733C220.939 52.3041 222.679 51.1455 224.615 49.8562C224.621 49.8523 224.627 49.8484 224.633 49.8444C224.634 49.8434 224.636 49.8424 224.637 49.8415C224.639 49.8404 224.64 49.8394 224.642 49.8385C226.557 48.5634 228.328 47.3855 230.541 46.1902C230.739 46.3518 230.8 47.6694 230.884 49.4728C231.041 52.8306 231.275 57.8725 232.616 60.271C233.511 61.8714 235.628 65.3232 238.088 69.2898C240.611 73.1911 242.813 76.5608 243.872 78.0446C245.463 80.2764 249.859 82.5471 252.787 84.0594C254.36 84.8716 255.509 85.465 255.572 85.7161C253.607 87.3031 251.838 88.4827 249.923 89.7575C249.921 89.7587 249.92 89.7599 249.918 89.761C249.917 89.7619 249.915 89.7628 249.914 89.7636Z" fill="white"/>
<path d="M251.893 51.2725C251.898 51.2772 251.904 51.2819 251.91 51.2867C253.701 52.7712 255.31 54.1054 257.136 55.8752C257.042 56.1577 255.737 56.6684 253.979 57.3559C250.907 58.5574 246.454 60.2989 244.678 62.3062C243.475 63.6765 240.932 66.8039 238.015 70.4247C235.152 74.1109 232.683 77.3192 231.621 78.813C230.072 81.008 229.334 85.8291 228.824 89.1551C228.533 91.0583 228.317 92.472 228.066 92.6243C225.995 91.1638 224.386 89.8297 222.595 88.3451C222.589 88.3403 222.584 88.3354 222.578 88.3306C222.577 88.3297 222.575 88.3289 222.574 88.3279C222.573 88.3269 222.572 88.3257 222.57 88.3245C220.8 86.8564 219.163 85.4982 217.374 83.7143C217.464 83.4712 218.668 83.0011 220.317 82.3577C223.387 81.1598 227.997 79.361 229.812 77.3078C231.021 75.9421 233.565 72.8187 236.483 69.2002C239.343 65.5147 241.808 62.3055 242.864 60.8081C244.448 58.5629 245.209 53.5731 245.715 50.25C245.987 48.4653 246.186 47.1613 246.4 47.0213C248.476 48.4416 250.114 49.7982 251.885 51.2665C251.887 51.2675 251.888 51.2685 251.889 51.2696C251.891 51.2705 251.892 51.2715 251.893 51.2725Z" fill="white"/>
<path d="M238.198 69.8734C237.993 74.5994 237.834 78.6979 237.834 80.5546C237.834 83.3422 240.023 87.8594 241.48 90.8677C242.263 92.4834 242.835 93.6639 242.744 93.9076C240.292 94.0161 238.226 93.9078 235.988 93.7905C233.737 93.6726 231.715 93.5666 229.277 93.2382C229.193 92.9518 229.942 91.7431 230.952 90.116C232.716 87.2722 235.272 83.1503 235.557 80.4399C235.745 78.5924 236.012 74.4975 236.3 69.774C236.507 65.0461 236.67 60.9458 236.676 59.0888C236.676 56.3635 234.564 51.9969 233.107 48.9843C232.274 47.2606 231.654 45.9801 231.768 45.704C234.227 45.6324 236.25 45.7384 238.5 45.8563C240.738 45.9736 242.804 46.0819 245.231 46.4461C245.297 46.698 244.604 47.8122 243.657 49.3372C241.893 52.1767 239.244 56.4403 238.952 59.2127C238.758 61.0592 238.488 65.1518 238.198 69.8734Z" fill="white"/>
<path d="M249.914 89.7636C249.908 89.7677 249.902 89.7717 249.896 89.7758C247.959 91.065 246.219 92.2237 244.007 93.4598C243.774 93.2821 243.707 91.8535 243.616 89.9303C243.457 86.5692 243.227 81.6974 241.916 79.3525C241.015 77.7551 238.893 74.3036 236.43 70.336C233.908 66.4325 231.709 63.0591 230.655 61.5713C229.1 59.3894 224.853 57.192 221.923 55.6759C220.247 54.8084 219.002 54.1641 218.938 53.8733C220.939 52.3041 222.679 51.1455 224.615 49.8562C224.621 49.8523 224.627 49.8484 224.633 49.8444C224.634 49.8434 224.636 49.8424 224.637 49.8415C224.639 49.8404 224.64 49.8394 224.642 49.8385C226.557 48.5634 228.328 47.3855 230.541 46.1902C230.739 46.3518 230.8 47.6694 230.884 49.4728C231.041 52.8306 231.275 57.8725 232.616 60.271C233.511 61.8714 235.628 65.3232 238.088 69.2898C240.611 73.1911 242.813 76.5608 243.872 78.0446C245.463 80.2764 249.859 82.5471 252.787 84.0594C254.36 84.8716 255.509 85.465 255.572 85.7161C253.607 87.3031 251.838 88.4827 249.923 89.7575C249.921 89.7587 249.92 89.7599 249.918 89.761C249.917 89.7619 249.915 89.7628 249.914 89.7636Z" fill="white"/>
<path d="M251.893 51.2725C251.898 51.2772 251.904 51.2819 251.91 51.2867C253.701 52.7712 255.31 54.1054 257.136 55.8752C257.042 56.1577 255.737 56.6684 253.979 57.3559C250.907 58.5574 246.454 60.2989 244.678 62.3062C243.475 63.6765 240.932 66.8039 238.015 70.4247C235.152 74.1109 232.683 77.3192 231.621 78.813C230.072 81.008 229.334 85.8291 228.824 89.1551C228.533 91.0583 228.317 92.472 228.066 92.6243C225.995 91.1638 224.386 89.8297 222.595 88.3451C222.589 88.3403 222.584 88.3354 222.578 88.3306C222.577 88.3297 222.575 88.3289 222.574 88.3279C222.573 88.3269 222.572 88.3257 222.57 88.3245C220.8 86.8564 219.163 85.4982 217.374 83.7143C217.464 83.4712 218.668 83.0011 220.317 82.3577C223.387 81.1598 227.997 79.361 229.812 77.3078C231.021 75.9421 233.565 72.8187 236.483 69.2002C239.343 65.5147 241.808 62.3055 242.864 60.8081C244.448 58.5629 245.209 53.5731 245.715 50.25C245.987 48.4653 246.186 47.1613 246.4 47.0213C248.476 48.4416 250.114 49.7982 251.885 51.2665C251.887 51.2675 251.888 51.2685 251.889 51.2696C251.891 51.2705 251.892 51.2715 251.893 51.2725Z" fill="white"/>
<path d="M171 64L159.75 74.3923L159.75 53.6077L171 64Z" fill="#2A4B8D"/>
<path d="M46 23C44.8954 23 44 23.8954 44 25V103H140V25C140 23.8954 139.105 23 138 23H46Z" fill="white"/>
<path fill-rule="evenodd" clip-rule="evenodd" d="M46 23C44.8954 23 44 23.8954 44 25V33H140V25C140 23.8954 139.105 23 138 23H46ZM138 28C138 29.6569 136.657 31 135 31C133.343 31 132 29.6569 132 28C132 26.3431 133.343 25 135 25C136.657 25 138 26.3431 138 28Z" fill="#C8CCD1"/>
<path d="M80.3333 89H109.667V95H80.3333V89Z" fill="#C8CCD1"/>
<path d="M51 89H78.5556V95H51V89Z" fill="#C8CCD1"/>
<path d="M51 81H115V87H51V81Z" fill="#C8CCD1"/>
<path d="M69 70H92.1111V76H69V70Z" fill="#C8CCD1"/>
<path d="M69 51H102V57H69V51Z" fill="#C8CCD1"/>
<path d="M51 70H67V76H51V70Z" fill="#C8CCD1"/>
<path d="M51 51H67V57H51V51Z" fill="#C8CCD1"/>
<path d="M94 70H109V76H94V70Z" fill="#C8CCD1"/>
<path d="M73 62H102V68H73V62Z" fill="#C8CCD1"/>
<path d="M76 43H96V49H76V43Z" fill="#C8CCD1"/>
<path d="M51 62H71.4444V68H51V62Z" fill="#C8CCD1"/>
<path d="M51 43H74V49H51V43Z" fill="#C8CCD1"/>
<path d="M130.339 62.5915C130.259 60.5926 130.273 53.3658 130.186 51.6744C130.106 50.2291 128.09 47.5075 128.187 47.2461C129.062 47.1785 129.784 47.1785 130.588 47.1785C131.388 47.1785 132.126 47.1785 132.998 47.2584C133.078 47.4983 131.079 50.2306 130.999 51.676C130.905 53.3673 130.919 60.5941 130.845 62.593C130.845 62.8329 130.691 63.3926 130.598 63.3926C130.518 63.3926 130.375 62.8313 130.366 62.593L130.339 62.5915Z" fill="#A2A9B1"/>
<path d="M129.415 49.2683C127.416 49.3482 119.608 49.3344 117.917 49.422C116.471 49.502 113.75 51.5178 113.488 51.4209C113.421 50.546 113.421 49.8234 113.421 49.0192C113.421 48.2196 113.421 47.4816 113.501 46.6098C113.74 46.5298 116.473 48.5287 117.918 48.6087C119.61 48.7024 127.408 48.6886 129.416 48.7624C129.656 48.7624 130.216 48.9162 130.216 49.01C130.216 49.0899 129.655 49.2329 129.416 49.2421L129.415 49.2683Z" fill="#A2A9B1"/>
<path d="M111.166 60.9433C111.082 58.9352 111.097 56.2874 111.013 54.5961C110.928 53.1507 108.914 50.4138 109.003 50.1678C109.878 50.1001 110.6 50.1001 111.405 50.1001C112.204 50.1001 112.942 50.1001 113.814 50.1801C113.894 50.4199 111.895 53.1523 111.815 54.5976C111.721 56.289 111.731 58.9337 111.661 60.9326C111.661 61.1724 111.508 61.7321 111.414 61.7321C111.334 61.7321 111.191 61.1709 111.182 60.9326L111.166 60.9433Z" fill="#A2A9B1"/>
<path d="M114.942 59.2566C114.871 57.2485 114.877 57.8958 114.772 56.2044C114.702 54.7498 112.686 52.0267 112.774 51.7746C113.648 51.7069 114.371 51.7069 115.175 51.7069C115.975 51.7069 116.713 51.7069 117.585 51.7869C117.665 52.0267 115.666 54.7591 115.586 56.2044C115.492 57.8958 115.514 57.2485 115.432 59.2566C115.432 59.4964 115.278 60.0561 115.185 60.0561C115.105 60.0561 114.962 59.4949 114.952 59.2566H114.942Z" fill="#A2A9B1"/>
<path d="M129.039 59.9623C127.041 60.0422 115.419 60.0284 113.726 60.116C112.281 60.196 109.56 62.2118 109.298 62.1149C109.23 61.24 109.23 60.5173 109.23 59.7132C109.23 58.9136 109.23 58.1756 109.31 57.3037C109.55 57.2238 112.283 59.2227 113.728 59.3026C115.419 59.3964 127.033 59.3826 129.041 59.4564C129.281 59.4564 129.841 59.6101 129.841 59.7039C129.841 59.7839 129.279 59.9269 129.041 59.9361L129.039 59.9623Z" fill="#A2A9B1"/>
<path d="M123.643 58.4814C123.592 57.3498 123.612 53.2736 123.541 52.331C123.49 51.5161 122.216 49.9754 122.28 49.8401C122.834 49.8093 123.29 49.8093 123.799 49.8093C124.307 49.8093 124.753 49.8093 125.337 49.8401C125.388 49.9754 124.124 51.5314 124.076 52.331C124.018 53.2843 124.025 57.3605 123.975 58.4814C123.975 58.6168 123.869 58.9427 123.821 58.9427C123.77 58.9427 123.667 58.6352 123.667 58.4814H123.643Z" fill="#A2A9B1"/>
<path d="M127.55 54.5806C126.32 54.6313 121.95 54.6113 120.938 54.6821C120.062 54.7328 118.406 56.0075 118.252 55.9429C118.221 55.3894 118.221 54.9327 118.221 54.4237C118.221 53.9163 118.221 53.4704 118.269 52.8861C118.423 52.8354 120.071 54.0993 120.947 54.147C121.973 54.2054 126.344 54.1977 127.559 54.2485C127.713 54.2485 128.036 54.3545 128.036 54.4022C128.036 54.453 127.697 54.556 127.559 54.556L127.55 54.5806Z" fill="#A2A9B1"/>
<path d="M126.855 57.1237C125.955 56.4349 122.842 53.8086 122.073 53.2489C121.427 52.7723 119.428 52.7569 119.342 52.6185C119.665 52.1572 119.957 51.819 120.28 51.4299C120.603 51.0409 120.895 50.6904 121.293 50.2921C121.429 50.3398 121.785 52.291 122.385 52.863C123.077 53.5088 126.204 56.1227 127.029 56.8915C127.128 56.9823 127.307 57.2636 127.273 57.3021C127.242 57.3328 126.95 57.2067 126.832 57.1329L126.855 57.1237Z" fill="#A2A9B1"/>
<path d="M126.798 51.7638C126.029 52.5865 123.092 55.4141 122.437 56.1199C121.887 56.7349 121.668 58.7108 121.515 58.7523C121.102 58.3817 120.784 58.0527 120.438 57.676C120.1 57.3115 119.768 56.9825 119.413 56.5489C119.474 56.4182 121.462 56.2583 122.083 55.7278C122.811 55.1128 125.735 52.2697 126.573 51.5178C126.675 51.4286 126.973 51.281 127.008 51.3164C127.039 51.3472 126.879 51.6239 126.785 51.7362L126.798 51.7638Z" fill="#A2A9B1"/>
</svg>
