<svg width="272" height="321" viewBox="0 0 272 321" fill="none" xmlns="http://www.w3.org/2000/svg">
<rect opacity="0.25" x="0.078125" y="12.5266" width="221.912" height="265.061" rx="12.3284" transform="rotate(-3 0.078125 12.5266)" fill="#72777D"/>
<rect opacity="0.5" x="12.8652" y="18.3662" width="221.912" height="265.061" rx="12.3284" transform="rotate(-1.5 12.8652 18.3662)" fill="#72777D"/>
<rect opacity="0.8" x="26" y="26.5" width="221.912" height="265.061" rx="12.3284" fill="#BF3C2C"/>
<rect opacity="0.9" x="38.8047" y="35.5571" width="221.912" height="265.061" rx="12.3284" transform="rotate(1.5 38.8047 35.5571)" fill="#2CB491"/>
<rect x="50.3164" y="44.6009" width="221.912" height="265.061" rx="12.3284" transform="rotate(3 50.3164 44.6009)" fill="#3366CC"/>
<path d="M155.189 180.135C168.347 185.052 179.776 189.261 185.02 190.964C192.892 193.522 207.657 191.486 217.49 190.129C222.771 189.401 226.63 188.869 227.234 189.35C225.29 196.375 223.089 202.109 220.704 208.321C218.306 214.569 216.151 220.184 212.986 226.768C212.101 226.742 209.375 223.516 205.706 219.173C199.294 211.582 189.999 200.579 182.606 197.288C177.562 195.062 166.242 190.552 153.167 185.403C140.005 180.48 128.575 176.258 123.337 174.537C115.641 172.036 101.371 173.993 91.5268 175.343C85.8939 176.116 81.7096 176.69 81.0341 176.116C83.0881 169.106 85.2434 163.491 87.6417 157.244C90.0262 151.032 92.2274 145.297 95.4836 138.776C96.2548 138.823 98.7662 141.8 102.203 145.875C108.604 153.463 118.214 164.856 125.775 168.222C130.812 170.465 142.121 174.984 155.189 180.135Z" fill="white"/>
<path d="M153.457 180.045C166.992 176.288 178.712 172.975 183.955 171.271C191.828 168.713 202.576 158.387 209.734 151.51C213.578 147.817 216.387 145.119 217.159 145.152C219.716 151.979 221.306 157.911 223.028 164.339C224.76 170.803 226.316 176.612 227.626 183.799C226.895 184.299 222.793 183.291 217.272 181.933C207.622 179.561 193.636 176.123 185.72 177.806C180.331 178.97 168.522 181.975 154.918 185.495C141.376 189.249 129.647 192.551 124.397 194.237C116.701 196.738 106.307 206.709 99.1367 213.588C95.0338 217.524 91.986 220.447 91.1023 220.381C88.6434 213.502 87.0869 207.692 85.3548 201.228C83.6326 194.801 82.0429 188.868 80.844 181.678C81.4954 181.263 85.2773 182.195 90.4533 183.472C100.091 185.848 114.562 189.417 122.659 187.695C128.051 186.55 139.857 183.558 153.457 180.045Z" fill="white"/>
<path d="M156.986 182.904C156.377 196.937 155.906 209.107 155.906 214.62C155.906 222.898 162.405 236.311 166.734 245.244C169.058 250.041 170.757 253.546 170.486 254.27C163.204 254.592 157.07 254.271 150.425 253.922C143.742 253.572 137.736 253.257 130.496 252.282C130.247 251.432 132.473 247.843 135.47 243.011C140.708 234.567 148.3 222.328 149.146 214.279C149.704 208.794 150.495 196.634 151.352 182.608C151.966 168.57 152.45 156.394 152.468 150.88C152.469 142.788 146.198 129.822 141.871 120.876C139.396 115.758 137.557 111.956 137.893 111.136C145.196 110.923 151.201 111.238 157.885 111.588C164.529 111.936 170.663 112.258 177.872 113.339C178.065 114.087 176.01 117.396 173.196 121.924C167.958 130.356 160.092 143.016 159.227 151.248C158.651 156.731 157.847 168.884 156.986 182.904Z" fill="white"/>
<path d="M152.002 180.99C160.744 169.995 168.278 160.427 171.518 155.966C176.384 149.27 179.01 134.598 180.759 124.827C181.698 119.58 182.384 115.745 183.029 115.319C189.109 119.339 193.883 123.204 199.054 127.392C204.255 131.603 208.929 135.388 214.213 140.432C213.914 141.267 210.004 142.862 204.739 145.009C195.538 148.762 182.202 154.202 176.787 160.216C173.112 164.326 165.324 173.697 156.387 184.541C147.638 195.538 140.09 205.104 136.834 209.554C132.077 216.1 129.53 230.276 127.772 240.056C126.766 245.652 126.019 249.809 125.265 250.274C119.232 246.154 114.558 242.37 109.357 238.158C104.186 233.971 99.4127 230.105 94.2165 224.993C94.4995 224.274 98.1072 222.806 103.045 220.796C112.239 217.054 126.044 211.435 131.582 205.283C135.272 201.186 143.065 191.827 152.002 180.99Z" fill="white"/>
<path d="M156.539 181.228C164.294 192.939 171.066 203.062 174.307 207.522C179.172 214.218 192.314 221.25 201.067 225.932C205.767 228.447 209.202 230.285 209.408 231.029C203.706 235.57 198.555 238.915 192.974 242.539C187.362 246.184 182.318 249.46 175.887 252.927C175.186 252.385 174.877 248.173 174.462 242.502C173.736 232.592 172.684 218.228 168.637 211.22C165.864 206.454 159.358 196.151 151.806 184.301C144.052 172.582 137.287 162.448 134.06 157.976C129.304 151.429 116.609 144.625 107.851 139.931C102.84 137.245 99.1175 135.25 98.9081 134.389C104.69 129.925 109.734 126.649 115.347 123.004C120.927 119.38 126.079 116.035 132.546 112.673C133.143 113.164 133.424 117.049 133.81 122.366C134.528 132.266 135.606 147.132 139.745 154.3C142.501 159.075 148.994 169.379 156.539 181.228Z" fill="white"/>
</svg>
