<svg width="64" height="65" viewBox="0 0 64 65" fill="none" xmlns="http://www.w3.org/2000/svg">
<path d="M32.2815 31.6336C36.6284 33.003 40.4028 34.1727 42.1307 34.6355C44.7248 35.3307 49.4742 34.4202 52.6372 33.8138C54.336 33.4882 55.5772 33.2502 55.7812 33.3958C55.2706 35.7051 54.6548 37.6004 53.9877 39.6536C53.3167 41.7187 52.7137 43.5745 51.8002 45.7616C51.5127 45.7683 50.5749 44.7692 49.3123 43.4242C47.1057 41.0736 43.9074 37.6665 41.4562 36.7256C39.7838 36.0901 36.0396 34.8209 31.7158 33.3747C27.3677 32.0032 23.5925 30.8292 21.866 30.3604C19.3299 29.6808 14.7398 30.5573 11.573 31.162C9.76097 31.508 8.41497 31.765 8.18634 31.5906C8.73282 29.2843 9.33581 27.4285 10.0068 25.3634C10.6739 23.3102 11.2898 21.4149 12.2341 19.2465C12.4847 19.2486 13.349 20.1707 14.5319 21.4327C16.7344 23.7824 20.0416 27.3106 22.5489 28.273C24.2188 28.9142 27.9599 30.1865 32.2815 31.6336Z" fill="#990000"/>
<path d="M31.7184 31.6336C36.04 30.1865 39.7811 28.9142 41.451 28.273C43.9583 27.3106 47.2655 23.7824 49.468 21.4327C50.6509 20.1707 51.5152 19.2486 51.7659 19.2465C52.7102 21.4149 53.326 23.3101 53.9931 25.3634C54.6641 27.4285 55.2671 29.2843 55.8136 31.5906C55.585 31.765 54.2389 31.508 52.427 31.162C49.2602 30.5573 44.67 29.6808 42.1339 30.3604C40.4074 30.8292 36.6322 32.0032 32.2841 33.3747C27.9603 34.8209 24.2161 36.0901 22.5437 36.7256C20.0925 37.6665 16.8942 41.0736 14.6876 43.4242C13.4251 44.7692 12.4872 45.7683 12.1997 45.7616C11.2862 43.5745 10.6832 41.7187 10.0123 39.6537C9.34512 37.6004 8.72929 35.7051 8.21874 33.3958C8.42277 33.2502 9.66396 33.4882 11.3627 33.8138C14.5257 34.4202 19.2752 35.3307 21.8692 34.6355C23.5971 34.1727 27.3716 33.003 31.7184 31.6336Z" fill="#990000"/>
<path d="M32.9109 32.5C32.9518 37.0573 33.0057 41.0084 33.0995 42.7948C33.2399 45.4767 35.5735 49.7123 37.1276 52.5332C37.9623 54.0481 38.5721 55.155 38.4967 55.3941C36.1427 55.6221 34.1499 55.6221 31.991 55.6221C29.8196 55.6221 27.8683 55.6221 25.506 55.4292C25.4108 55.1578 26.0711 53.9571 26.9601 52.3407C28.5139 49.5158 30.7659 45.4212 30.9032 42.7992C30.9909 41.0123 31.0409 37.0591 31.0802 32.5C31.0409 27.9409 30.9909 23.9877 30.9032 22.2008C30.7659 19.5788 28.5139 15.4842 26.9601 12.6592C26.0711 11.0429 25.4108 9.84217 25.506 9.57084C27.8683 9.37788 29.8196 9.37788 31.9909 9.37788C34.1498 9.37788 36.1427 9.37788 38.4967 9.60593C38.5721 9.84496 37.9623 10.9519 37.1276 12.4668C35.5735 15.2877 33.2399 19.5233 33.0995 22.2052C33.0057 23.9916 32.9518 27.9427 32.9109 32.5Z" fill="#006699"/>
<path d="M31.2629 31.9645C33.9085 28.2536 36.1873 25.0253 37.1615 23.525C38.6242 21.2727 39.2259 16.4744 39.6267 13.2788C39.8419 11.5626 39.9991 10.3086 40.2007 10.1596C42.2392 11.3587 43.8514 12.5301 45.598 13.7991C47.3546 15.0753 48.9333 16.2223 50.731 17.767C50.6486 18.0424 49.4086 18.6256 47.7393 19.4108C44.8218 20.783 40.5931 22.7719 38.9408 24.8124C37.8196 26.2065 35.4555 29.3753 32.744 33.0406C30.096 36.7521 27.8129 39.9796 26.8335 41.4768C25.4034 43.6788 24.8185 48.3151 24.4151 51.5138C24.1842 53.344 24.0127 54.7036 23.7762 54.8671C21.7516 53.6347 20.173 52.4877 18.4163 51.2114C16.6697 49.9425 15.0575 48.7711 13.2871 47.203C13.3666 46.9652 14.5106 46.4282 16.0763 45.6931C18.9917 44.3245 23.3692 42.2695 25.0592 40.1823C26.1851 38.7923 28.5511 35.6274 31.2629 31.9645Z" fill="#339966"/>
<path d="M32.7369 31.9645C35.4486 35.6274 37.8147 38.7923 38.9406 40.1823C40.6306 42.2695 45.0081 44.3245 47.9235 45.6932C49.4892 46.4282 50.6332 46.9652 50.7127 47.203C48.9423 48.7711 47.3301 49.9425 45.5835 51.2114C43.8268 52.4877 42.2482 53.6347 40.2236 54.8671C39.9871 54.7036 39.8156 53.344 39.5847 51.5138C39.1813 48.3151 38.5964 43.6788 37.1663 41.4768C36.1869 39.9797 33.9038 36.7521 31.2558 33.0406C28.5443 29.3753 26.1802 26.2065 25.0589 24.8124C23.4067 22.7719 19.178 20.783 16.2605 19.4108C14.5912 18.6257 13.3512 18.0424 13.2688 17.767C15.0665 16.2223 16.6451 15.0754 18.4018 13.7991C20.1484 12.5301 21.7606 11.3588 23.7991 10.1596C24.0006 10.3086 24.1579 11.5626 24.3731 13.2788C24.7739 16.4745 25.3756 21.2728 26.8383 23.5251C27.8124 25.0253 30.0913 28.2536 32.7369 31.9645Z" fill="#339966"/>
</svg>
