<svg width="48" height="48" viewBox="0 0 48 48" fill="none" xmlns="http://www.w3.org/2000/svg">
<g id="Logomark">
<path id="Union" d="M24.2815 23.1336C28.6284 24.503 32.4028 25.6727 34.1307 26.1355C36.7248 26.8307 41.4742 25.9202 44.6372 25.3138C46.336 24.9882 47.5772 24.7502 47.7812 24.8958C47.2706 27.2051 46.6548 29.1004 45.9877 31.1536C45.3167 33.2187 44.7137 35.0745 43.8002 37.2616C43.5127 37.2683 42.5749 36.2692 41.3123 34.9242C39.1057 32.5736 35.9074 29.1665 33.4562 28.2256C31.7838 27.5901 28.0396 26.3209 23.7158 24.8747C19.3677 23.5032 15.5925 22.3292 13.866 21.8604C11.3299 21.1808 6.73976 22.0573 3.57295 22.662C1.76097 23.008 0.414965 23.265 0.186335 23.0906C0.73282 20.7843 1.33581 18.9285 2.00679 16.8634C2.67393 14.8102 3.28975 12.9149 4.23407 10.7465C4.48471 10.7486 5.349 11.6707 6.53189 12.9327C8.73443 15.2824 12.0416 18.8107 14.5489 19.773C16.2188 20.4142 19.9599 21.6865 24.2815 23.1336Z" fill="#990000"/>
<path id="Union_2" d="M23.7189 23.1336C28.0405 21.6865 31.7816 20.4142 33.4515 19.773C35.9588 18.8107 39.266 15.2824 41.4685 12.9327C42.6514 11.6707 43.5157 10.7486 43.7663 10.7465C44.7107 12.9149 45.3265 14.8102 45.9936 16.8634C46.6646 18.9285 47.2676 20.7843 47.8141 23.0906C47.5854 23.265 46.2394 23.008 44.4275 22.662C41.2606 22.0573 36.6705 21.1808 34.1344 21.8604C32.4079 22.3292 28.6327 23.5032 24.2846 24.8747C19.9608 26.3209 16.2166 27.5901 14.5442 28.2256C12.093 29.1665 8.89467 32.5736 6.6881 34.9242C5.42555 36.2692 4.48768 37.2683 4.20022 37.2616C3.28671 35.0745 2.68372 33.2187 2.01274 31.1537C1.3456 29.1004 0.729781 27.2051 0.219227 24.8958C0.423256 24.7502 1.66444 24.9882 3.36319 25.3138C6.52624 25.9202 11.2756 26.8307 13.8697 26.1355C15.5976 25.6727 19.3721 24.503 23.7189 23.1336Z" fill="#990000"/>
<path id="Union_3" d="M24.9111 24C24.952 28.5573 25.0059 32.5084 25.0997 34.2948C25.2402 36.9767 27.5737 41.2123 29.1279 44.0332C29.9625 45.5481 30.5724 46.655 30.497 46.8941C28.1429 47.1221 26.1501 47.1221 23.9912 47.1221C21.8198 47.1221 19.8685 47.1221 17.5062 46.9292C17.411 46.6578 18.0714 45.4571 18.9604 43.8407C20.5141 41.0158 22.7661 36.9212 22.9034 34.2992C22.9911 32.5123 23.0412 28.5591 23.0804 24C23.0412 19.4409 22.9911 15.4877 22.9034 13.7008C22.7661 11.0788 20.5141 6.9842 18.9604 4.15925C18.0714 2.54287 17.411 1.34217 17.5062 1.07084C19.8685 0.877884 21.8198 0.877884 23.9912 0.877884C26.1501 0.877884 28.1429 0.877884 30.497 1.10593C30.5724 1.34496 29.9625 2.45188 29.1279 3.96684C27.5737 6.7877 25.2402 11.0233 25.0997 13.7052C25.0059 15.4916 24.952 19.4427 24.9111 24Z" fill="#006699"/>
<path id="Union_4" d="M23.2626 23.4645C25.9083 19.7536 28.1871 16.5253 29.1612 15.025C30.624 12.7727 31.2257 7.97444 31.6264 4.77882C31.8417 3.06258 31.9989 1.80861 32.2004 1.65956C34.2389 2.85874 35.8512 4.03009 37.5977 5.29906C39.3544 6.57535 40.933 7.7223 42.7308 9.26695C42.6483 9.54241 41.4083 10.1256 39.739 10.9108C36.8216 12.283 32.5929 14.2719 30.9406 16.3124C29.8194 17.7065 27.4553 20.8753 24.7437 24.5406C22.0957 28.2521 19.8126 31.4796 18.8332 32.9768C17.4031 35.1788 16.8183 39.8151 16.4148 43.0138C16.1839 44.844 16.0124 46.2036 15.776 46.3671C13.7514 45.1347 12.1727 43.9877 10.4161 42.7114C8.66949 41.4425 7.05724 40.2711 5.28684 38.703C5.36631 38.4652 6.51031 37.9282 8.07605 37.1931C10.9914 35.8245 15.3689 33.7695 17.059 31.6823C18.1848 30.2923 20.5509 27.1274 23.2626 23.4645Z" fill="#339966"/>
<path id="Union_5" d="M24.7374 23.4645C27.4491 27.1274 29.8152 30.2923 30.9411 31.6823C32.6311 33.7695 37.0086 35.8245 39.924 37.1932C41.4897 37.9282 42.6337 38.4652 42.7132 38.703C40.9428 40.2711 39.3306 41.4425 37.584 42.7114C35.8273 43.9877 34.2487 45.1347 32.2241 46.3671C31.9876 46.2036 31.8161 44.844 31.5852 43.0138C31.1817 39.8151 30.5969 35.1788 29.1668 32.9768C28.1874 31.4797 25.9043 28.2521 23.2563 24.5406C20.5448 20.8753 18.1807 17.7065 17.0594 16.3124C15.4072 14.2719 11.1785 12.283 8.26103 10.9108C6.59172 10.1257 5.35171 9.54243 5.26924 9.26697C7.06699 7.72233 8.64563 6.57538 10.4023 5.29909C12.1489 4.03012 13.7611 2.85876 15.7996 1.65958C16.0011 1.80863 16.1584 3.0626 16.3736 4.77884C16.7743 7.97446 17.3761 12.7728 18.8388 15.0251C19.8129 16.5253 22.0917 19.7536 24.7374 23.4645Z" fill="#339966"/>
</g>
</svg>
