<svg width="48" height="48" viewBox="0 0 48 48" fill="none" xmlns="http://www.w3.org/2000/svg">
<g id="Logomark">
<path id="Union" d="M24.2815 23.1335C28.6284 24.5029 32.4028 25.6726 34.1307 26.1354C36.7248 26.8306 41.4742 25.9201 44.6372 25.3137C46.336 24.988 47.5772 24.7501 47.7812 24.8957C47.2706 27.205 46.6548 29.1003 45.9877 31.1535C45.3167 33.2186 44.7137 35.0744 43.8002 37.2615C43.5127 37.2682 42.5749 36.2691 41.3123 34.9241C39.1057 32.5735 35.9074 29.1664 33.4562 28.2255C31.7838 27.59 28.0396 26.3208 23.7158 24.8746C19.3677 23.5031 15.5925 22.3291 13.866 21.8603C11.3299 21.1806 6.73976 22.0571 3.57295 22.6618C1.76097 23.0078 0.414965 23.2649 0.186335 23.0905C0.73282 20.7842 1.33581 18.9284 2.00679 16.8633C2.67393 14.8101 3.28975 12.9147 4.23407 10.7464C4.48471 10.7485 5.349 11.6706 6.53189 12.9325C8.73443 15.2823 12.0416 18.8105 14.5489 19.7729C16.2188 20.4141 19.9599 21.6863 24.2815 23.1335Z" fill="#EAECF0"/>
<path id="Union_2" d="M23.7185 23.1337C28.0401 21.6866 31.7812 20.4143 33.4511 19.7732C35.9584 18.8108 39.2656 15.2826 41.4681 12.9328C42.651 11.6708 43.5153 10.7488 43.7659 10.7467C44.7103 12.915 45.3261 14.8103 45.9932 16.8635C46.6642 18.9286 47.2672 20.7844 47.8137 23.0908C47.585 23.2651 46.239 23.0081 44.4271 22.6621C41.2602 22.0574 36.6701 21.1809 34.134 21.8606C32.4075 22.3294 28.6323 23.5034 24.2842 24.8749C19.9604 26.321 16.2162 27.5902 14.5438 28.2258C12.0926 29.1666 8.89427 32.5738 6.68771 34.9244C5.42515 36.2694 4.48729 37.2685 4.19983 37.2618C3.28631 35.0747 2.68333 33.2189 2.01234 31.1538C1.34521 29.1006 0.729385 27.2053 0.21883 24.896C0.422859 24.7504 1.66405 24.9883 3.36279 25.314C6.52584 25.9204 11.2752 26.8309 13.8693 26.1357C15.5972 25.6729 19.3717 24.5032 23.7185 23.1337Z" fill="#EAECF0"/>
<path id="Union_3" d="M24.911 24C24.9518 28.5573 25.0058 32.5085 25.0995 34.2948C25.24 36.9767 27.5736 41.2123 29.1277 44.0332C29.9624 45.5482 30.5722 46.6551 30.4968 46.8941C28.1428 47.1222 26.1499 47.1222 23.991 47.1222C21.8197 47.1222 19.8684 47.1222 17.506 46.9292C17.4108 46.6579 18.0712 45.4572 18.9602 43.8408C20.5139 41.0158 22.766 36.9212 22.9033 34.2992C22.9909 32.5123 23.041 28.5592 23.0803 24C23.041 19.4409 22.9909 15.4878 22.9033 13.7009C22.766 11.0789 20.5139 6.98424 18.9602 4.15929C18.0712 2.54291 17.4108 1.34221 17.506 1.07089C19.8684 0.87793 21.8197 0.87793 23.991 0.87793C26.1499 0.87793 28.1428 0.87793 30.4968 1.10597C30.5722 1.34501 29.9624 2.45192 29.1277 3.96689C27.5736 6.78775 25.24 11.0233 25.0995 13.7053C25.0058 15.4916 24.9518 19.4428 24.911 24Z" fill="#EAECF0"/>
<path id="Union_4" d="M23.263 23.4647C25.9087 19.7538 28.1875 16.5255 29.1616 15.0253C30.6243 12.773 31.2261 7.97466 31.6268 4.77905C31.842 3.06281 31.9993 1.80884 32.2008 1.65979C34.2393 2.85897 35.8515 4.03032 37.5981 5.29929C39.3548 6.57558 40.9334 7.72253 42.7312 9.26718C42.6487 9.54264 41.4087 10.1259 39.7394 10.911C36.8219 12.2832 32.5932 14.2721 30.941 16.3126C29.8197 17.7068 27.4556 20.8755 24.7441 24.5408C22.0961 28.2523 19.813 31.4799 18.8336 32.977C17.4035 35.179 16.8187 39.8153 16.4152 43.014C16.1843 44.8442 16.0128 46.2038 15.7763 46.3673C13.7517 45.1349 12.1731 43.988 10.4164 42.7117C8.66986 41.4427 7.05761 40.2713 5.2872 38.7032C5.36668 38.4655 6.51068 37.9284 8.07641 37.1934C10.9918 35.8247 15.3693 33.7697 17.0593 31.6825C18.1852 30.2925 20.5513 27.1276 23.263 23.4647Z" fill="#EAECF0"/>
<path id="Union_5" d="M24.737 23.4645C27.4487 27.1274 29.8148 30.2923 30.9407 31.6823C32.6307 33.7695 37.0082 35.8245 39.9236 37.1931C41.4893 37.9282 42.6333 38.4652 42.7128 38.7029C40.9424 40.2711 39.3302 41.4425 37.5836 42.7114C35.8269 43.9877 34.2483 45.1347 32.2237 46.3671C31.9872 46.2036 31.8157 44.844 31.5848 43.0138C31.1813 39.8151 30.5965 35.1788 29.1664 32.9768C28.187 31.4796 25.9039 28.2521 23.2559 24.5406C20.5444 20.8753 18.1803 17.7065 17.059 16.3124C15.4068 14.2719 11.1781 12.283 8.26063 10.9108C6.59133 10.1256 5.35131 9.54241 5.26885 9.26695C7.06659 7.7223 8.64523 6.57535 10.4019 5.29907C12.1485 4.0301 13.7607 2.85873 15.7992 1.65956C16.0007 1.80861 16.158 3.06258 16.3732 4.77881C16.7739 7.97443 17.3757 12.7727 18.8384 15.025C19.8125 16.5253 22.0914 19.7536 24.737 23.4645Z" fill="#EAECF0"/>
</g>
</svg>
