<svg width="20" height="20" viewBox="0 0 20 20" fill="none" xmlns="http://www.w3.org/2000/svg">
<g id="Wikimedia Logos / WikidataLexeme">
<g id="Union">
<path fill-rule="evenodd" clip-rule="evenodd" d="M16.4377 4.44081C16.502 4.55154 16.5702 4.66894 16.6402 4.79108C15.749 4.77008 14.1963 4.75896 12.6023 4.74755C10.4354 4.73203 8.19242 4.71598 7.43176 4.67379C6.64815 4.63044 5.41058 3.91024 4.58638 3.43059C4.14374 3.17299 3.82031 2.98477 3.75047 3.00805C3.68384 3.73457 3.68384 4.34961 3.68384 5.01591C3.68384 5.33826 3.68384 5.6449 3.69011 5.95749C3.09855 5.91669 2.56968 5.91669 2.00385 5.91669C1.33371 5.91669 0.731479 5.91669 0.00239621 5.97307C-0.0240986 6.04615 0.172192 6.38307 0.438981 6.84099C0.920531 7.66752 1.63176 8.88827 1.67711 9.66333C1.71311 10.3834 1.72738 11.3114 1.74211 12.2701L1.74908 12.7174C1.51508 12.5869 1.29292 12.4576 1.09468 12.3423C0.652031 12.0847 0.328611 11.8965 0.258768 11.9197C0.192139 12.6463 0.192139 13.2613 0.192139 13.9276C0.192139 14.5977 0.192139 15.2 0.248518 15.9291C0.327794 15.9584 0.678614 15.7546 1.15089 15.4802C1.35943 15.3591 1.59178 15.2241 1.83476 15.0894C1.87135 15.3109 1.95825 15.61 2.01154 15.61C2.0897 15.61 2.21784 15.1436 2.21784 14.9437L2.21994 14.882C2.83128 14.5633 3.46671 14.2894 3.93878 14.2633C4.6662 14.2256 7.59327 14.2105 10.4866 14.1955C13.2044 14.1814 15.8928 14.1674 16.6997 14.1352L16.7009 14.1134C16.8995 14.1057 17.3672 13.9865 17.3672 13.9199C17.3672 13.8417 16.9008 13.7136 16.7009 13.7136C15.9254 13.6851 13.4307 13.6723 10.8366 13.659C8.81446 13.6486 6.73169 13.6379 5.35593 13.6192C5.35863 13.5927 5.36009 13.5684 5.36009 13.5471C5.40712 12.3882 5.41297 12.2906 5.43809 11.872C5.44924 11.6861 5.46419 11.4369 5.48822 11.0036C5.53157 10.22 6.25178 8.98242 6.73143 8.15822C6.98903 7.71557 7.17725 7.39215 7.15396 7.32231C6.42744 7.25568 5.8124 7.25568 5.1461 7.25568C4.52786 7.25568 3.96741 7.25568 3.31183 7.29995C3.40851 7.12967 3.50275 6.96774 3.58918 6.81923C3.63278 6.7443 3.67439 6.6728 3.71333 6.60536C3.72044 6.73886 3.72926 6.87572 3.74022 7.01737C3.81949 7.04675 4.17032 6.84293 4.6426 6.56856C5.468 6.08904 6.66437 5.394 7.43048 5.35162C8.16003 5.31382 10.2552 5.29867 12.3378 5.28362C14.183 5.27028 16.0185 5.25701 16.8854 5.22811C17.2638 5.92036 17.6245 6.68349 17.6546 7.2287C17.6925 7.95891 17.7076 9.92724 17.7227 11.8864C17.7367 13.7089 17.7507 15.5235 17.7828 16.3262L17.8046 16.3275C17.8123 16.5261 17.9314 16.9938 17.998 16.9938C18.0762 16.9938 18.2043 16.5274 18.2043 16.3275C18.2326 15.5617 18.2455 13.8752 18.2587 12.1394C18.2742 10.0995 18.2902 7.99146 18.3325 7.22998C18.3758 6.44636 19.096 5.2088 19.5757 4.38459C19.8333 3.94195 20.0215 3.61853 19.9982 3.54869C19.2717 3.48206 18.6567 3.48206 17.9904 3.48206C17.3202 3.48206 16.718 3.48206 15.9889 3.53843C15.9595 3.61771 16.1633 3.96853 16.4377 4.44081ZM4.96572 13.6133C4.96293 13.5891 4.96107 13.5668 4.96031 13.5471H4.95134C4.91282 12.4534 4.90166 12.3049 4.87423 11.9398C4.85969 11.7463 4.84058 11.4919 4.81039 11.0036C4.77235 10.2213 4.05909 8.99854 3.5777 8.17332C3.41244 7.89002 3.27451 7.65357 3.2006 7.49786C2.79303 8.23118 2.37853 9.07597 2.34597 9.66461C2.30132 10.4697 2.28469 11.5341 2.26788 12.6093L2.26183 12.9927C2.86062 13.3001 3.47894 13.56 3.94006 13.5855C4.1363 13.5964 4.49283 13.6055 4.96572 13.6133Z" fill="#72777D"/>
<path d="M12.2022 12.9012C12.1832 12.4782 12.1761 11.5614 12.1687 10.6081C12.167 10.3917 12.1654 10.1734 12.1635 9.9586C11.7302 10.3872 11.3696 10.7479 11.1976 10.9332C10.91 11.2545 10.7312 12.0217 10.6063 12.5578C10.5319 12.8767 10.4766 13.1139 10.4288 13.1268C10.0854 12.818 9.8202 12.5438 9.5319 12.2299C9.45729 12.1495 9.38304 12.0712 9.3087 11.9928C9.10215 11.775 8.8949 11.5564 8.67725 11.2907C8.69517 11.2526 8.90936 11.2115 9.20251 11.1553C9.7478 11.0508 10.5663 10.8939 10.9029 10.6064C11.0922 10.4463 11.4601 10.1052 11.8979 9.69252C11.036 9.70049 10.2782 9.71198 9.94846 9.73503C9.48431 9.7619 8.7578 10.2007 8.25695 10.5032C7.96969 10.6767 7.75666 10.8053 7.70995 10.7857C7.68433 10.3245 7.68433 9.9439 7.68433 9.51979C7.68433 9.09695 7.68433 8.72533 7.72405 8.23842C7.76927 8.2235 7.96965 8.34505 8.24214 8.51035C8.74168 8.81338 9.48357 9.26342 9.95615 9.28912C10.2867 9.30795 11.0342 9.31854 11.8853 9.32689C11.4485 8.97094 11.0848 8.67956 10.8941 8.54074C10.5505 8.28719 9.74756 8.19026 9.19301 8.12332C8.87881 8.0854 8.64436 8.0571 8.61841 8.01539C8.85016 7.68432 9.0629 7.42928 9.28937 7.15779L9.40003 7.02491C9.66911 6.70074 9.91256 6.40859 10.2444 6.07672C10.2836 6.09051 10.3449 6.29537 10.4293 6.57695C10.5879 7.10667 10.8279 7.9079 11.1542 8.21912C11.3325 8.38553 11.7048 8.70875 12.1545 9.09483C12.1467 8.50632 12.1358 8.01749 12.1176 7.77584C12.0906 7.34161 11.6466 6.66013 11.3439 6.19563C11.1732 5.93367 11.0475 5.74073 11.0669 5.70007C11.5282 5.67444 11.9088 5.67444 12.3329 5.67444C12.7557 5.67444 13.1273 5.67444 13.6142 5.70007C13.6291 5.73972 13.5085 5.92578 13.3441 6.17935C13.0411 6.64686 12.5893 7.34385 12.5635 7.77584C12.5486 8.01915 12.5389 8.50657 12.5313 9.09259C12.7001 8.93223 12.8713 8.76922 13.0403 8.60835C13.7082 7.97272 14.3407 7.37061 14.6445 7.09811C14.729 7.02379 14.9776 6.90078 15.0071 6.93025C15.0327 6.95588 14.8994 7.18652 14.8213 7.28006L14.8315 7.30312C14.5051 7.65244 13.7095 8.43562 12.9354 9.19761C12.8888 9.24353 12.8422 9.28937 12.7958 9.33503L12.8294 9.33532C13.9146 9.34454 14.9859 9.35364 15.4659 9.37369C15.594 9.37369 15.8631 9.4621 15.8631 9.50183C15.8631 9.54411 15.5812 9.62996 15.4659 9.62996L15.4582 9.65046C14.9987 9.66941 14.0135 9.67653 12.9903 9.68391L12.8438 9.68499L12.9455 9.77193C13.7869 10.4911 14.666 11.2424 15.0238 11.5762C15.1071 11.6518 15.2558 11.8863 15.2276 11.9184C15.2019 11.944 14.9585 11.8389 14.8598 11.7774L14.879 11.7697C14.5366 11.5075 13.8092 10.9084 13.0588 10.2904C12.8799 10.143 12.6996 9.99451 12.5229 9.84929L12.5173 10.449C12.5081 11.4599 12.499 12.4581 12.479 12.9012C12.479 13.014 12.3905 13.2856 12.3508 13.2856C12.3085 13.2856 12.2227 13.0293 12.2227 12.9012H12.2022Z" fill="#72777D"/>
</g>
</g>
</svg>
