<svg width="20" height="20" viewBox="0 0 20 20" fill="none" xmlns="http://www.w3.org/2000/svg">
<g id="Lexica / Lexica">
<g id="Vector">
<path d="M10.1182 9.63617C11.9436 10.2112 13.5286 10.7024 14.2541 10.8968C15.3435 11.1887 17.3379 10.8063 18.6661 10.5517C19.3795 10.415 19.9007 10.315 19.9864 10.3762C19.772 11.3459 19.5134 12.1418 19.2332 13.004C18.9514 13.8712 18.6982 14.6505 18.3146 15.5689C18.1939 15.5717 17.8001 15.1522 17.2699 14.5874C16.3433 13.6003 15.0003 12.1696 13.9709 11.7745C13.2686 11.5076 11.6963 10.9746 9.88065 10.3673C8.05476 9.79139 6.46948 9.2984 5.74447 9.10153C4.67948 8.81613 2.75196 9.18419 1.42213 9.43813C0.661231 9.58342 0.0960078 9.69135 0 9.61813C0.229484 8.64964 0.482695 7.87033 0.764458 7.00315C1.04461 6.14095 1.30321 5.34505 1.69975 4.43451C1.805 4.4354 2.16794 4.8226 2.66467 5.35253C3.58958 6.33926 4.97835 7.82086 6.03122 8.22497C6.73246 8.49423 8.30346 9.02849 10.1182 9.63617Z" fill="#54595D"/>
<path d="M9.88179 9.63617C11.6965 9.02849 13.2675 8.49422 13.9688 8.22497C15.0217 7.82086 16.4104 6.33926 17.3353 5.35253C17.8321 4.8226 18.195 4.4354 18.3002 4.43451C18.6968 5.34505 18.9554 6.14094 19.2355 7.00315C19.5173 7.87033 19.7705 8.64963 20 9.61813C19.904 9.69135 19.3388 9.58342 18.5779 9.43813C17.248 9.18419 15.3205 8.81613 14.2555 9.10153C13.5305 9.2984 11.9452 9.79139 10.1193 10.3673C8.30365 10.9746 6.73136 11.5076 6.0291 11.7745C4.99975 12.1696 3.65669 13.6003 2.7301 14.5874C2.19992 15.1522 1.80609 15.5717 1.68537 15.5689C1.30176 14.6505 1.04855 13.8712 0.76679 13.004C0.486641 12.1418 0.22804 11.3459 0.013645 10.3762C0.099322 10.315 0.620531 10.415 1.33388 10.5517C2.66213 10.8063 4.65653 11.1887 5.74585 10.8968C6.47143 10.7024 8.05643 10.2112 9.88179 9.63617Z" fill="#54595D"/>
<path d="M10.3825 10C10.3997 11.9137 10.4223 13.5729 10.4617 14.3231C10.5207 15.4493 11.5006 17.2279 12.1533 18.4125C12.5038 19.0486 12.7599 19.5135 12.7282 19.6138C11.7397 19.7096 10.9028 19.7096 9.99623 19.7096C9.08443 19.7096 8.26501 19.7096 7.27301 19.6286C7.23303 19.5146 7.51035 19.0104 7.88366 18.3317C8.53611 17.1454 9.48179 15.426 9.53946 14.3249C9.57627 13.5745 9.59729 11.9145 9.61378 10C9.59729 8.08551 9.57627 6.42548 9.53946 5.67511C9.48179 4.57405 8.53611 2.85461 7.88366 1.66834C7.51035 0.989577 7.23303 0.48537 7.27301 0.371433C8.26501 0.290405 9.08442 0.290405 9.99623 0.290405C10.9028 0.290405 11.7397 0.290405 12.7282 0.386166C12.7599 0.486545 12.5038 0.951367 12.1533 1.58754C11.5006 2.7721 10.5207 4.55073 10.4617 5.67695C10.4223 6.42708 10.3997 8.08628 10.3825 10Z" fill="#54595D"/>
<path d="M9.69051 9.77514C10.8015 8.21683 11.7584 6.86119 12.1675 6.23118C12.7817 5.28538 13.0344 3.27044 13.2027 1.92851C13.2931 1.20782 13.3591 0.681245 13.4437 0.618657C14.2997 1.12222 14.9768 1.6141 15.7102 2.14698C16.4479 2.68293 17.1108 3.16456 17.8657 3.8132C17.8311 3.92888 17.3104 4.17379 16.6094 4.50349C15.3843 5.07971 13.6085 5.9149 12.9147 6.77178C12.4439 7.35721 11.4511 8.68784 10.3125 10.227C9.20049 11.7856 8.24175 13.1409 7.83048 13.7696C7.22995 14.6943 6.98436 16.6412 6.81492 17.9844C6.71798 18.753 6.64596 19.3239 6.54665 19.3926C5.69648 18.875 5.03356 18.3934 4.2959 17.8574C3.56246 17.3246 2.88543 16.8327 2.14199 16.1742C2.17536 16.0743 2.65576 15.8488 3.31325 15.5402C4.5375 14.9654 6.37574 14.1025 7.08543 13.226C7.5582 12.6423 8.55178 11.3133 9.69051 9.77514Z" fill="#54595D"/>
<path d="M10.3095 9.77515C11.4482 11.3133 12.4418 12.6423 12.9146 13.226C13.6243 14.1025 15.4625 14.9654 16.6867 15.5402C17.3442 15.8488 17.8246 16.0744 17.858 16.1742C17.1146 16.8327 16.4375 17.3246 15.7041 17.8574C14.9664 18.3934 14.3035 18.875 13.4533 19.3926C13.354 19.3239 13.282 18.753 13.1851 17.9844C13.0156 16.6412 12.7701 14.6943 12.1695 13.7696C11.7582 13.1409 10.7995 11.7856 9.68753 10.227C8.54888 8.68785 7.55614 7.35721 7.0853 6.77179C6.39146 5.91491 4.61573 5.07971 3.39061 4.50349C2.68963 4.17379 2.16891 3.92888 2.13428 3.81321C2.8892 3.16457 3.55212 2.68294 4.28978 2.14699C5.02322 1.61412 5.70025 1.12223 6.55626 0.618663C6.64089 0.681252 6.70693 1.20783 6.7973 1.92852C6.96558 3.27045 7.21826 5.28539 7.83252 6.23118C8.24157 6.8612 9.1985 8.21683 10.3095 9.77515Z" fill="#54595D"/>
</g>
</g>
</svg>
