<svg width="123" height="36" viewBox="0 0 123 36" fill="none" xmlns="http://www.w3.org/2000/svg">
<g clip-path="url(#clip0_5725_31068)">
<path d="M13.6584 17.5127C16.1034 18.283 18.2266 18.9409 19.1985 19.2013C20.6577 19.5923 23.3292 19.0801 25.1084 18.7391C26.064 18.5559 26.7621 18.422 26.8769 18.5039C26.5897 19.8029 26.2433 20.869 25.8681 22.0239C25.4906 23.1856 25.1515 24.2294 24.6376 25.4597C24.4759 25.4634 23.9484 24.9015 23.2382 24.1449C21.997 22.8227 20.1979 20.9062 18.8191 20.3769C17.8784 20.0195 15.7723 19.3055 13.3401 18.492C10.8943 17.7206 8.77081 17.0602 7.79964 16.7965C6.37306 16.4142 3.79112 16.9072 2.00979 17.2474C0.990545 17.442 0.233418 17.5866 0.104814 17.4885C0.412211 16.1912 0.751392 15.1473 1.12882 13.9857C1.50408 12.8307 1.85048 11.7646 2.38166 10.5449C2.52265 10.5461 3.00881 11.0648 3.67419 11.7746C4.91312 13.0964 6.7734 15.081 8.18374 15.6223C9.12307 15.983 11.2275 16.6987 13.6584 17.5127Z" fill="#990000"/>
<path d="M13.3416 17.5126C15.7725 16.6986 17.8769 15.9829 18.8162 15.6223C20.2266 15.081 22.0869 13.0963 23.3258 11.7746C23.9912 11.0647 24.4773 10.5461 24.6183 10.5449C25.1495 11.7646 25.4959 12.8307 25.8712 13.9856C26.2486 15.1472 26.5878 16.1911 26.8952 17.4884C26.7666 17.5865 26.0094 17.4419 24.9902 17.2473C23.2089 16.9072 20.6269 16.4141 19.2004 16.7964C18.2292 17.0602 16.1057 17.7205 13.6599 18.492C11.2277 19.3055 9.12158 20.0194 8.18088 20.3769C6.80205 20.9061 5.00301 22.8226 3.76181 24.1448C3.05163 24.9014 2.52408 25.4634 2.36238 25.4596C1.84853 24.2294 1.50935 23.1855 1.13192 22.0239C0.756658 20.869 0.410258 19.8028 0.123071 18.5039C0.237837 18.422 0.936006 18.5558 1.89155 18.739C3.67076 19.0801 6.3423 19.5922 7.80147 19.2012C8.7734 18.9409 10.8965 18.2829 13.3416 17.5126Z" fill="#990000"/>
<path d="M14.0124 18C14.0354 20.5634 14.0657 22.786 14.1185 23.7908C14.1975 25.2994 15.5101 27.6819 16.3843 29.2686C16.8538 30.1208 17.1968 30.7434 17.1544 30.8779C15.8303 31.0062 14.7093 31.0062 13.4949 31.0062C12.2735 31.0062 11.1759 31.0062 9.84712 30.8976C9.79357 30.745 10.165 30.0696 10.6651 29.1604C11.5391 27.5714 12.8058 25.2681 12.8831 23.7932C12.9324 22.7881 12.9605 20.5645 12.9826 18C12.9605 15.4355 12.9324 13.2118 12.8831 12.2067C12.8058 10.7318 11.5391 8.42858 10.6651 6.83954C10.165 5.93033 9.79357 5.25493 9.84712 5.10231C11.1759 4.99377 12.2735 4.99377 13.4949 4.99377C14.7093 4.99377 15.8303 4.99377 17.1544 5.12205C17.1968 5.25651 16.8538 5.87914 16.3843 6.73131C15.5101 8.31805 14.1975 10.7006 14.1185 12.2092C14.0657 13.214 14.0354 15.4365 14.0124 18Z" fill="#006699"/>
<path d="M13.0854 17.6988C14.5736 15.6114 15.8554 13.7955 16.4034 12.9516C17.2262 11.6847 17.5646 8.98566 17.7901 7.18812C17.9111 6.22274 17.9996 5.51738 18.1129 5.43354C19.2596 6.10808 20.1665 6.76696 21.1489 7.48076C22.137 8.19867 23.025 8.84383 24.0363 9.7127C23.9899 9.86764 23.2924 10.1957 22.3534 10.6373C20.7123 11.4092 18.3337 12.528 17.4043 13.6758C16.7736 14.46 15.4438 16.2424 13.9185 18.3041C12.429 20.3918 11.1448 22.2073 10.5939 23.0495C9.78944 24.2881 9.46047 26.896 9.23351 28.6953C9.10365 29.7248 9.00718 30.4895 8.87416 30.5815C7.73533 29.8883 6.84734 29.2431 5.85923 28.5252C4.87677 27.8114 3.96988 27.1525 2.97403 26.2704C3.01873 26.1367 3.66223 25.8346 4.54296 25.4212C6.18286 24.6513 8.64522 23.4954 9.59586 22.3213C10.2291 21.5394 11.5601 19.7592 13.0854 17.6988Z" fill="#339966"/>
<path d="M13.9145 17.6988C15.4399 19.7592 16.7708 21.5395 17.4041 22.3214C18.3547 23.4954 20.8171 24.6514 22.457 25.4212C23.3377 25.8347 23.9812 26.1368 24.0259 26.2705C23.0301 27.1526 22.1232 27.8114 21.1407 28.5252C20.1526 29.2431 19.2646 29.8883 18.1258 30.5816C17.9928 30.4896 17.8963 29.7248 17.7664 28.6953C17.5395 26.8961 17.2105 24.2881 16.4061 23.0495C15.8552 22.2074 14.5709 20.3918 13.0814 18.3041C11.5562 16.2424 10.2264 14.46 9.59569 13.6758C8.66628 12.528 6.28764 11.4092 4.64658 10.6374C3.7076 10.1957 3.01009 9.86767 2.9637 9.71272C3.97494 8.84386 4.86292 8.1987 5.85104 7.48079C6.83349 6.76699 7.74038 6.1081 8.88703 5.43356C9.00039 5.5174 9.08885 6.22276 9.20991 7.18814C9.43532 8.98568 9.77379 11.6847 10.5966 12.9516C11.1445 13.7956 12.4264 15.6115 13.9145 17.6988Z" fill="#339966"/>
<path d="M36 31.1541V5.55469H39.5739V31.1541H36Z" fill="#484848"/>
<path d="M51.4665 31.5C49.5928 31.5 47.9273 31.1079 46.47 30.3238C45.0358 29.5166 43.9024 28.4212 43.0696 27.0374C42.26 25.6537 41.8552 24.0623 41.8552 22.2635C41.8552 20.8336 42.0865 19.5306 42.5492 18.3544C43.0118 17.1782 43.6479 16.1634 44.4575 15.3101C45.2903 14.4337 46.2734 13.7649 47.4068 13.3037C48.5634 12.8194 49.8125 12.5772 51.1542 12.5772C52.3339 12.5772 53.4327 12.8078 54.4505 13.2691C55.4683 13.7073 56.3473 14.3184 57.0875 15.1026C57.8508 15.8867 58.4291 16.8207 58.8224 17.9047C59.2388 18.9655 59.4354 20.1302 59.4122 21.3986L59.3775 22.9207H44.4922L43.6942 20.0841H56.2894L55.769 20.6722V19.8419C55.6996 19.0808 55.4451 18.4005 55.0056 17.8009C54.5661 17.2012 54.011 16.7285 53.3401 16.3825C52.6693 16.0366 51.9407 15.8636 51.1542 15.8636C49.9051 15.8636 48.8526 16.1058 47.9967 16.5901C47.1408 17.0513 46.4931 17.7432 46.0536 18.6657C45.6141 19.5652 45.3944 20.6837 45.3944 22.0213C45.3944 23.2897 45.6604 24.3967 46.1924 25.3423C46.7245 26.2648 47.4762 26.9797 48.4478 27.4871C49.4193 27.9945 50.5412 28.2482 51.8134 28.2482C52.7156 28.2482 53.5483 28.0983 54.3117 27.7985C55.0982 27.4987 55.9425 26.9567 56.8446 26.1726L58.6489 28.6979C58.0937 29.2514 57.4113 29.7357 56.6017 30.1508C55.8152 30.566 54.9709 30.9004 54.0688 31.1541C53.1898 31.3847 52.3223 31.5 51.4665 31.5Z" fill="#484848"/>
<path d="M73.7095 31.0781L67.9004 23.4598L67.3878 22.8048L59.8359 12.9802H64.2782L69.9848 20.4951L70.5657 21.2535L78.0151 31.0781H73.7095ZM59.8701 31.0781L66.9436 21.7706L69.028 24.2871L64.039 31.0781H59.8701ZM70.7707 22.3222L68.823 19.8402L73.2311 12.9802H77.4L70.7707 22.3222Z" fill="#484848"/>
<path d="M80.2383 31.0781V12.9802H83.7579V31.0781H80.2383ZM81.9469 8.9814C81.1951 8.9814 80.6142 8.78605 80.2041 8.39537C79.7941 8.00468 79.589 7.45313 79.589 6.7407C79.589 6.07423 79.7941 5.53417 80.2041 5.1205C80.637 4.70683 81.2179 4.5 81.9469 4.5C82.6986 4.5 83.2795 4.69534 83.6896 5.08603C84.0997 5.47671 84.3047 6.02827 84.3047 6.7407C84.3047 7.40716 84.0883 7.94723 83.6554 8.36089C83.2454 8.77456 82.6759 8.9814 81.9469 8.9814Z" fill="#484848"/>
<path d="M95.8206 31.5C94.1462 31.5 92.6437 31.0874 91.3133 30.2622C90.0059 29.437 88.9622 28.3138 88.1823 26.8926C87.4253 25.4714 87.0469 23.8783 87.0469 22.1133C87.0469 20.3483 87.4253 18.7552 88.1823 17.334C88.9622 15.9128 90.0059 14.7896 91.3133 13.9644C92.6437 13.1392 94.1462 12.7266 95.8206 12.7266C97.4263 12.7266 98.8828 13.0589 100.19 13.7237C101.521 14.3655 102.53 15.248 103.218 16.3712L101.257 18.7781C100.89 18.2509 100.42 17.7695 99.8462 17.334C99.2728 16.8984 98.6649 16.5546 98.0226 16.3025C97.3804 16.0503 96.7611 15.9242 96.1647 15.9242C95.0637 15.9242 94.0773 16.1993 93.2057 16.7494C92.357 17.2767 91.6803 18.0102 91.1757 18.95C90.6711 19.8898 90.4187 20.9442 90.4187 22.1133C90.4187 23.2823 90.6825 24.3368 91.2101 25.2766C91.7377 26.1935 92.4373 26.927 93.3089 27.4771C94.1805 28.0273 95.1439 28.3023 96.1991 28.3023C96.8184 28.3023 97.4148 28.1992 97.9882 27.9929C98.5846 27.7866 99.1581 27.4771 99.7086 27.0645C100.259 26.6519 100.775 26.1476 101.257 25.5516L103.218 27.9585C102.484 28.99 101.429 29.8381 100.053 30.5029C98.6993 31.1676 97.2886 31.5 95.8206 31.5Z" fill="#484848"/>
<path d="M112.188 31.5C110.697 31.5 109.332 31.0874 108.093 30.2622C106.878 29.437 105.903 28.3138 105.169 26.8926C104.435 25.4714 104.068 23.8668 104.068 22.0789C104.068 20.268 104.435 18.6635 105.169 17.2652C105.926 15.844 106.935 14.7323 108.197 13.93C109.481 13.1277 110.915 12.7266 112.497 12.7266C113.438 12.7266 114.298 12.8641 115.078 13.1392C115.858 13.4142 116.534 13.8039 117.108 14.3082C117.704 14.7896 118.186 15.3512 118.553 15.993C118.943 16.6348 119.184 17.3225 119.276 18.056L118.484 17.7809V13.1048H122.062V31.1562H118.484V26.8582L119.31 26.6175C119.172 27.2364 118.886 27.8439 118.45 28.4399C118.037 29.0129 117.498 29.5287 116.833 29.9871C116.19 30.4456 115.468 30.8123 114.665 31.0874C113.885 31.3625 113.059 31.5 112.188 31.5ZM113.117 28.2336C114.195 28.2336 115.147 27.97 115.972 27.4427C116.798 26.9155 117.441 26.1935 117.899 25.2766C118.381 24.3368 118.622 23.2709 118.622 22.0789C118.622 20.9099 118.381 19.8669 117.899 18.95C117.441 18.0331 116.798 17.311 115.972 16.7838C115.147 16.2566 114.195 15.993 113.117 15.993C112.062 15.993 111.121 16.2566 110.295 16.7838C109.493 17.311 108.85 18.0331 108.369 18.95C107.91 19.8669 107.68 20.9099 107.68 22.0789C107.68 23.2709 107.91 24.3368 108.369 25.2766C108.85 26.1935 109.493 26.9155 110.295 27.4427C111.121 27.97 112.062 28.2336 113.117 28.2336Z" fill="#484848"/>
</g>
<defs>
<clipPath id="clip0_5725_31068">
<rect width="122.062" height="36" fill="white"/>
</clipPath>
</defs>
</svg>
