<svg width="20" height="20" viewBox="0 0 20 20" fill="none" xmlns="http://www.w3.org/2000/svg">
<g id="Lexica / Lexica">
<g id="Vector">
<path d="M10.1182 9.63605C11.9436 10.2111 13.5286 10.7023 14.2541 10.8966C15.3435 11.1886 17.3379 10.8062 18.6661 10.5516C19.3795 10.4148 19.9007 10.3149 19.9864 10.3761C19.772 11.3458 19.5134 12.1417 19.2332 13.0039C18.9514 13.8711 18.6982 14.6504 18.3146 15.5688C18.1939 15.5716 17.8001 15.152 17.2699 14.5873C16.3433 13.6002 15.0003 12.1694 13.9709 11.7743C13.2686 11.5075 11.6963 10.9745 9.88065 10.3672C8.05476 9.79126 6.46948 9.29828 5.74447 9.10141C4.67948 8.81601 2.75196 9.18407 1.42213 9.438C0.661231 9.5833 0.0960078 9.69123 0 9.618C0.229484 8.64951 0.482695 7.87021 0.764458 7.00303C1.04461 6.14082 1.30321 5.34493 1.69975 4.43439C1.805 4.43528 2.16794 4.82247 2.66467 5.35241C3.58958 6.33913 4.97835 7.82073 6.03122 8.22485C6.73246 8.4941 8.30346 9.02837 10.1182 9.63605Z" fill="#A2A9B1"/>
<path d="M9.88179 9.63605C11.6965 9.02836 13.2675 8.4941 13.9688 8.22485C15.0217 7.82073 16.4104 6.33913 17.3353 5.3524C17.8321 4.82247 18.195 4.43528 18.3002 4.43439C18.6968 5.34493 18.9554 6.14082 19.2355 7.00302C19.5173 7.87021 19.7705 8.64951 20 9.618C19.904 9.69123 19.3388 9.5833 18.5779 9.438C17.248 9.18407 15.3205 8.81601 14.2555 9.10141C13.5305 9.29828 11.9452 9.79126 10.1193 10.3672C8.30365 10.9745 6.73136 11.5075 6.0291 11.7743C4.99975 12.1694 3.65669 13.6002 2.7301 14.5873C2.19992 15.152 1.80609 15.5716 1.68537 15.5688C1.30176 14.6504 1.04855 13.8711 0.76679 13.0039C0.486641 12.1417 0.22804 11.3458 0.013645 10.3761C0.099322 10.3149 0.620531 10.4148 1.33388 10.5516C2.66213 10.8062 4.65653 11.1886 5.74585 10.8966C6.47143 10.7023 8.05643 10.2111 9.88179 9.63605Z" fill="#A2A9B1"/>
<path d="M10.3825 9.99988C10.3997 11.9136 10.4223 13.5728 10.4617 14.3229C10.5207 15.4491 11.5006 17.2278 12.1533 18.4123C12.5038 19.0485 12.7599 19.5133 12.7282 19.6137C11.7397 19.7095 10.9028 19.7095 9.99623 19.7095C9.08443 19.7095 8.26502 19.7095 7.27301 19.6285C7.23303 19.5145 7.51035 19.0103 7.88366 18.3315C8.53611 17.1453 9.48179 15.4258 9.53946 14.3248C9.57627 13.5744 9.59729 11.9144 9.61378 9.99988C9.59729 8.08539 9.57627 6.42535 9.53946 5.67499C9.48179 4.57393 8.53611 2.85449 7.88366 1.66822C7.51035 0.989455 7.23303 0.485248 7.27301 0.371311C8.26501 0.290283 9.08442 0.290283 9.99623 0.290283C10.9028 0.290283 11.7397 0.290283 12.7282 0.386044C12.7599 0.486423 12.5038 0.951245 12.1533 1.58742C11.5006 2.77197 10.5207 4.55061 10.4617 5.67683C10.4223 6.42696 10.3997 8.08616 10.3825 9.99988Z" fill="#A2A9B1"/>
<path d="M9.69051 9.77502C10.8015 8.2167 11.7584 6.86107 12.1675 6.23105C12.7817 5.28526 13.0344 3.27032 13.2027 1.92839C13.2931 1.2077 13.3591 0.681123 13.4437 0.618535C14.2997 1.1221 14.9768 1.61398 15.7102 2.14686C16.4479 2.6828 17.1108 3.16444 17.8657 3.81308C17.8311 3.92875 17.3104 4.17367 16.6094 4.50337C15.3843 5.07958 13.6085 5.91478 12.9147 6.77166C12.4439 7.35708 11.4511 8.68772 10.3125 10.2269C9.20049 11.7854 8.24175 13.1408 7.83048 13.7695C7.22995 14.6942 6.98436 16.6411 6.81492 17.9843C6.71798 18.7528 6.64596 19.3238 6.54665 19.3924C5.69648 18.8749 5.03356 18.3933 4.2959 17.8573C3.56246 17.3244 2.88543 16.8326 2.14199 16.174C2.17536 16.0742 2.65576 15.8487 3.31325 15.54C4.5375 14.9653 6.37574 14.1024 7.08543 13.2259C7.5582 12.6422 8.55178 11.3132 9.69051 9.77502Z" fill="#A2A9B1"/>
<path d="M10.3095 9.77502C11.4482 11.3132 12.4418 12.6422 12.9146 13.2259C13.6243 14.1024 15.4625 14.9653 16.6867 15.54C17.3442 15.8487 17.8246 16.0742 17.858 16.1741C17.1146 16.8326 16.4375 17.3244 15.7041 17.8573C14.9664 18.3933 14.3035 18.8749 13.4533 19.3924C13.354 19.3238 13.282 18.7528 13.1851 17.9843C13.0156 16.6411 12.7701 14.6942 12.1695 13.7695C11.7582 13.1408 10.7995 11.7854 9.68753 10.2269C8.54888 8.68773 7.55614 7.35709 7.0853 6.77167C6.39146 5.91479 4.61573 5.07959 3.39061 4.50337C2.68963 4.17367 2.16891 3.92876 2.13428 3.81309C2.8892 3.16445 3.55212 2.68281 4.28978 2.14687C5.02322 1.61399 5.70025 1.12211 6.55626 0.618541C6.64089 0.68113 6.70693 1.20771 6.7973 1.9284C6.96558 3.27033 7.21826 5.28526 7.83252 6.23106C8.24157 6.86107 9.1985 8.21671 10.3095 9.77502Z" fill="#A2A9B1"/>
</g>
</g>
</svg>
