<svg width="118" height="32" viewBox="0 0 118 32" fill="none" xmlns="http://www.w3.org/2000/svg">
<path d="M16.8908 15.567C19.0642 16.2517 20.9514 16.8365 21.8153 17.0679C23.1124 17.4155 25.4871 16.9603 27.0686 16.6571C27.918 16.4943 28.5386 16.3753 28.6406 16.4481C28.3853 17.6027 28.0774 18.5504 27.7438 19.577C27.4083 20.6095 27.1068 21.5374 26.6501 22.631C26.5064 22.6343 26.0374 22.1348 25.4062 21.4623C24.3029 20.287 22.7037 18.5834 21.4781 18.113C20.6419 17.7952 18.7698 17.1606 16.6079 16.4375C14.4338 15.7518 12.5463 15.1648 11.683 14.9304C10.4149 14.5906 8.11988 15.0288 6.53648 15.3312C5.63048 15.5042 4.95748 15.6327 4.84317 15.5455C5.11641 14.3923 5.4179 13.4644 5.7534 12.4319C6.08696 11.4053 6.39488 10.4576 6.86703 9.37344C6.99236 9.37451 7.4245 9.83553 8.01595 10.4665C9.11722 11.6414 10.7708 13.4055 12.0244 13.8867C12.8594 14.2073 14.73 14.8434 16.8908 15.567Z" fill="#EAECF0"/>
<path d="M16.6092 15.5669C18.77 14.8433 20.6406 14.2072 21.4756 13.8866C22.7292 13.4054 24.3828 11.6413 25.4841 10.4664C26.0755 9.83542 26.5076 9.3744 26.633 9.37334C27.1051 10.4575 27.413 11.4052 27.7466 12.4318C28.0821 13.4643 28.3836 14.3922 28.6568 15.5454C28.5425 15.6326 27.8695 15.5041 26.9635 15.3311C25.3801 15.0287 23.0851 14.5905 21.817 14.9303C20.9537 15.1647 19.0662 15.7517 16.8921 16.4374C14.7302 17.1605 12.8581 17.7951 12.0219 18.1129C10.7963 18.5833 9.19713 20.2869 8.09385 21.4622C7.46258 22.1347 6.99364 22.6342 6.84991 22.6309C6.39316 21.5373 6.09166 20.6094 5.75617 19.5769C5.4226 18.5503 5.11469 17.6026 4.85942 16.448C4.96143 16.3752 5.58202 16.4942 6.4314 16.657C8.01292 16.9602 10.3876 17.4154 11.6847 17.0678C12.5486 16.8364 14.4358 16.2516 16.6092 15.5669Z" fill="#EAECF0"/>
<path d="M17.2055 16C17.2259 18.2787 17.2529 20.2542 17.2998 21.1474C17.37 22.4884 18.5368 24.6062 19.3139 26.0166C19.7312 26.7741 20.0361 27.3275 19.9984 27.4471C18.8214 27.5611 17.825 27.5611 16.7455 27.5611C15.6598 27.5611 14.6842 27.5611 13.503 27.4646C13.4554 27.3289 13.7856 26.7286 14.2301 25.9204C15.007 24.5079 16.133 22.4606 16.2016 21.1496C16.2455 20.2562 16.2705 18.2796 16.2901 16C16.2705 13.7205 16.2455 11.7439 16.2016 10.8504C16.133 9.53943 15.007 7.49212 14.2301 6.07965C13.7856 5.27146 13.4554 4.67111 13.503 4.53544C14.6842 4.43896 15.6598 4.43896 16.7455 4.43896C17.825 4.43896 18.8214 4.43896 19.9984 4.55299C20.0361 4.6725 19.7312 5.22596 19.3139 5.98344C18.5368 7.39387 17.37 9.51167 17.2998 10.8526C17.2529 11.7458 17.2259 13.7214 17.2055 16Z" fill="#EAECF0"/>
<path d="M16.3815 15.7321C17.7043 13.8767 18.8437 12.2625 19.3308 11.5124C20.0622 10.3862 20.363 7.98709 20.5634 6.38928C20.671 5.53116 20.7496 4.90418 20.8504 4.82965C21.8696 5.42924 22.6758 6.01492 23.5491 6.6494C24.4274 7.28754 25.2167 7.86102 26.1156 8.63335C26.0743 8.77108 25.4543 9.06269 24.6197 9.45526C23.161 10.1413 21.0466 11.1358 20.2205 12.1561C19.6599 12.8531 18.4778 14.4375 17.122 16.2702C15.798 18.1259 14.6565 19.7397 14.1668 20.4883C13.4517 21.5893 13.1593 23.9074 12.9576 25.5068C12.8422 26.4219 12.7564 27.1016 12.6382 27.1834C11.6259 26.5672 10.8365 25.9937 9.95822 25.3556C9.08493 24.7211 8.27881 24.1354 7.3936 23.3513C7.43334 23.2325 8.00534 22.964 8.78821 22.5964C10.2459 21.9121 12.4347 20.8846 13.2797 19.841C13.8426 19.146 15.0256 17.5636 16.3815 15.7321Z" fill="#EAECF0"/>
<path d="M17.1185 15.7323C18.4744 17.5637 19.6574 19.1461 20.2203 19.8412C21.0653 20.8847 23.2541 21.9123 24.7118 22.5966C25.4947 22.9641 26.0667 23.2326 26.1064 23.3515C25.2212 24.1356 24.4151 24.7212 23.5418 25.3557C22.6635 25.9939 21.8741 26.5673 20.8618 27.1836C20.7436 27.1018 20.6578 26.422 20.5424 25.5069C20.3407 23.9076 20.0483 21.5894 19.3332 20.4884C18.8435 19.7398 17.702 18.126 16.378 16.2703C15.0222 14.4376 13.8401 12.8533 13.2795 12.1562C12.4534 11.1359 10.339 10.1415 8.88031 9.45539C8.04566 9.06282 7.42566 8.7712 7.38442 8.63347C8.28329 7.86115 9.07262 7.28768 9.95094 6.64953C10.8242 6.01505 11.6304 5.42937 12.6496 4.82978C12.7504 4.9043 12.829 5.53129 12.9366 6.38941C13.137 7.98722 13.4378 10.3864 14.1692 11.5125C14.6563 12.2627 15.7957 13.8768 17.1185 15.7323Z" fill="#EAECF0"/>
<path d="M36.75 27.6925V4.9375H39.9268V27.6925H36.75Z" fill="#EAECF0"/>
<path d="M50.498 28C48.8325 28 47.352 27.6515 46.0567 26.9545C44.7819 26.237 43.7743 25.2633 43.0341 24.0333C42.3145 22.8033 41.9546 21.3887 41.9546 19.7897C41.9546 18.5187 42.1602 17.3605 42.5715 16.315C42.9827 15.2695 43.5482 14.3675 44.2678 13.609C45.008 12.83 45.8819 12.2355 46.8894 11.8255C47.9175 11.395 49.0278 11.1797 50.2204 11.1797C51.269 11.1797 52.2457 11.3847 53.1504 11.7947C54.0551 12.1842 54.8365 12.7275 55.4944 13.4245C56.173 14.1215 56.687 14.9517 57.0366 15.9152C57.4067 16.8582 57.5814 17.8935 57.5609 19.021L57.53 20.374H44.2987L43.5893 17.8525H54.7851L54.3224 18.3752V17.6372C54.2607 16.9607 54.0346 16.356 53.6439 15.823C53.2532 15.29 52.7597 14.8697 52.1635 14.5622C51.5672 14.2547 50.9195 14.101 50.2204 14.101C49.1101 14.101 48.1745 14.3162 47.4137 14.7467C46.653 15.1567 46.0772 15.7717 45.6866 16.5917C45.2959 17.3912 45.1006 18.3855 45.1006 19.5745C45.1006 20.702 45.337 21.686 45.8099 22.5265C46.2828 23.3465 46.9511 23.982 47.8147 24.433C48.6783 24.884 49.6755 25.1095 50.8064 25.1095C51.6083 25.1095 52.3485 24.9762 53.027 24.7097C53.7261 24.4432 54.4766 23.9615 55.2785 23.2645L56.8823 25.5092C56.3889 26.0012 55.7823 26.4317 55.0626 26.8007C54.3636 27.1697 53.6131 27.467 52.8111 27.6925C52.0298 27.8975 51.2587 28 50.498 28Z" fill="#EAECF0"/>
<path d="M70.2695 27.625L65.1059 20.8531L64.6503 20.2709L57.9375 11.5379H61.8862L66.9587 18.2179L67.4751 18.892L74.0967 27.625H70.2695ZM57.9679 27.625L64.2554 19.3517L66.1082 21.5885L61.6736 27.625H57.9679ZM67.6573 19.8419L65.926 17.6357L69.8443 11.5379H73.55L67.6573 19.8419Z" fill="#EAECF0"/>
<path d="M76.0729 27.625V11.5379H79.2015V27.625H76.0729ZM77.5917 7.98346C76.9234 7.98346 76.4071 7.80982 76.0426 7.46255C75.6781 7.11527 75.4958 6.625 75.4958 5.99173C75.4958 5.39932 75.6781 4.91926 76.0426 4.55156C76.4273 4.18385 76.9437 4 77.5917 4C78.2599 4 78.7763 4.17364 79.1408 4.52091C79.5053 4.86819 79.6875 5.35846 79.6875 5.99173C79.6875 6.58414 79.4951 7.0642 79.1104 7.43191C78.7459 7.79961 78.2396 7.98346 77.5917 7.98346Z" fill="#EAECF0"/>
<path d="M89.9239 28C88.4355 28 87.1 27.6332 85.9174 26.8997C84.7552 26.1662 83.8275 25.1678 83.1343 23.9045C82.4614 22.6413 82.125 21.2252 82.125 19.6562C82.125 18.0873 82.4614 16.6712 83.1343 15.408C83.8275 14.1447 84.7552 13.1463 85.9174 12.4128C87.1 11.6793 88.4355 11.3125 89.9239 11.3125C91.3511 11.3125 92.6458 11.6079 93.808 12.1988C94.9906 12.7693 95.8877 13.5538 96.4994 14.5522L94.7561 16.6916C94.4299 16.223 94.0119 15.7951 93.5022 15.408C92.9925 15.0208 92.4521 14.7152 91.8812 14.4911C91.3103 14.2669 90.7598 14.1549 90.2297 14.1549C89.251 14.1549 88.3743 14.3994 87.5995 14.8884C86.8451 15.357 86.2436 16.009 85.7951 16.8444C85.3465 17.6798 85.1222 18.6171 85.1222 19.6562C85.1222 20.6954 85.3567 21.6327 85.8256 22.4681C86.2946 23.2831 86.9165 23.9351 87.6913 24.4241C88.466 24.9131 89.3224 25.1576 90.2603 25.1576C90.8108 25.1576 91.3409 25.0659 91.8507 24.8826C92.3808 24.6992 92.8905 24.4241 93.3798 24.0573C93.8692 23.6906 94.3279 23.2423 94.7561 22.7126L96.4994 24.852C95.8469 25.7689 94.909 26.5228 93.6857 27.1137C92.4827 27.7046 91.2288 28 89.9239 28Z" fill="#EAECF0"/>
<path d="M104.472 28C103.147 28 101.934 27.6332 100.833 26.8997C99.7523 26.1662 98.8858 25.1678 98.2333 23.9045C97.5809 22.6413 97.2547 21.215 97.2547 19.6257C97.2547 18.016 97.5809 16.5897 98.2333 15.3468C98.9062 14.0836 99.8033 13.0954 100.925 12.3822C102.067 11.6691 103.341 11.3125 104.748 11.3125C105.584 11.3125 106.348 11.4348 107.041 11.6793C107.735 11.9238 108.336 12.2701 108.846 12.7184C109.376 13.1463 109.804 13.6455 110.13 14.216C110.477 14.7865 110.691 15.3978 110.773 16.0498L110.069 15.8053V11.6487H113.25V27.6944H110.069V23.874L110.803 23.66C110.681 24.2102 110.426 24.7501 110.039 25.2799C109.672 25.7893 109.193 26.2477 108.601 26.6552C108.03 27.0627 107.388 27.3887 106.674 27.6332C105.981 27.8777 105.247 28 104.472 28ZM105.298 25.0965C106.256 25.0965 107.103 24.8622 107.837 24.3935C108.571 23.9249 109.142 23.2831 109.549 22.4681C109.978 21.6327 110.192 20.6852 110.192 19.6257C110.192 18.5865 109.978 17.6595 109.549 16.8444C109.142 16.0294 108.571 15.3876 107.837 14.919C107.103 14.4503 106.256 14.216 105.298 14.216C104.36 14.216 103.524 14.4503 102.79 14.919C102.077 15.3876 101.506 16.0294 101.078 16.8444C100.67 17.6595 100.466 18.5865 100.466 19.6257C100.466 20.6852 100.67 21.6327 101.078 22.4681C101.506 23.2831 102.077 23.9249 102.79 24.3935C103.524 24.8622 104.36 25.0965 105.298 25.0965Z" fill="#EAECF0"/>
</svg>
