<svg width="20" height="20" viewBox="0 0 20 20" fill="none" xmlns="http://www.w3.org/2000/svg">
<g id="Wikimedia Logos / WikidataLexeme">
<path id="Vector" d="M17.783 16.3262C17.7164 14.6605 17.7279 8.63817 17.6549 7.2287C17.5883 6.02424 15.9084 3.75626 15.9891 3.53843C16.7182 3.48206 17.3205 3.48206 17.9906 3.48206C18.6569 3.48206 19.2719 3.48206 19.9985 3.54869C20.0651 3.74857 18.3994 6.02552 18.3327 7.22998C18.2546 8.63945 18.2661 14.6618 18.2046 16.3275C18.2046 16.5274 18.0765 16.9938 17.9983 16.9938C17.9317 16.9938 17.8125 16.5261 17.8048 16.3275L17.783 16.3262Z" fill="white"/>
<path id="Vector_2" d="M17.0121 5.22349C15.3464 5.29012 8.83971 5.27859 7.43024 5.35162C6.22578 5.41825 3.9578 7.09809 3.73997 7.01737C3.68359 6.28828 3.68359 5.68605 3.68359 5.01591C3.68359 4.34961 3.68359 3.73457 3.75022 3.00805C3.95011 2.94142 6.22706 4.60716 7.43152 4.67379C8.84099 4.75196 15.34 4.74042 17.0134 4.80193C17.2133 4.80193 17.6797 4.93006 17.6797 5.00822C17.6797 5.07485 17.212 5.19402 17.0134 5.20171L17.0121 5.22349Z" fill="white"/>
<path id="Vector_3" d="M1.80524 14.9528C1.73477 13.2793 1.74758 11.0729 1.67711 9.66339C1.60664 8.45893 -0.0719216 6.17814 0.00239621 5.97313C0.731479 5.91675 1.33371 5.91675 2.00385 5.91675C2.67015 5.91675 3.28519 5.91675 4.01171 5.98338C4.07834 6.18327 2.4126 8.46021 2.34597 9.66467C2.26781 11.0741 2.2755 13.2781 2.21784 14.9438C2.21784 15.1437 2.0897 15.6101 2.01154 15.6101C1.94491 15.6101 1.82574 15.1424 1.81806 14.9438L1.80524 14.9528Z" fill="white"/>
<path id="Vector_4" d="M4.95158 13.5471C4.89264 11.8737 4.89777 12.4131 4.81064 11.0037C4.75169 9.79151 3.07186 7.52226 3.14489 7.31212C3.87398 7.25574 4.47621 7.25574 5.14635 7.25574C5.81264 7.25574 6.42769 7.25574 7.15421 7.32237C7.22084 7.52226 5.5551 9.7992 5.48847 11.0037C5.4103 12.4131 5.42824 11.8737 5.36033 13.5471C5.36033 13.747 5.2322 14.2134 5.15404 14.2134C5.08741 14.2134 4.96824 13.7457 4.96055 13.5471H4.95158Z" fill="white"/>
<path id="Vector_5" d="M16.6999 14.1352C15.0342 14.2019 5.34978 14.1903 3.93902 14.2634C2.73456 14.33 0.46659 16.0098 0.248762 15.9291C0.192383 15.2 0.192383 14.5978 0.192383 13.9277C0.192383 13.2614 0.192383 12.6463 0.259012 11.9198C0.458902 11.8532 2.73584 13.5189 3.94031 13.5855C5.34978 13.6637 15.0278 13.6522 16.7012 13.7137C16.9011 13.7137 17.3675 13.8418 17.3675 13.92C17.3675 13.9866 16.8998 14.1058 16.7012 14.1135L16.6999 14.1352Z" fill="white"/>
<path id="Vector_6" d="M12.2022 12.9012C12.1599 11.9581 12.1766 8.5613 12.1176 7.77584C12.0753 7.09673 11.0131 5.81282 11.0669 5.70007C11.5282 5.67444 11.9088 5.67444 12.3329 5.67444C12.7557 5.67444 13.1273 5.67444 13.6142 5.70007C13.6565 5.81282 12.6032 7.10954 12.5635 7.77584C12.5148 8.57027 12.5212 11.9671 12.479 12.9012C12.479 13.014 12.3905 13.2856 12.3508 13.2856C12.3085 13.2856 12.2227 13.0293 12.2227 12.9012H12.2022Z" fill="white"/>
<path id="Vector_7" d="M15.4585 9.65046C14.4334 9.69274 10.7918 9.67609 9.9487 9.73503C9.21834 9.77731 7.83833 10.8395 7.7102 10.7857C7.68457 10.3244 7.68457 9.94389 7.68457 9.51976C7.68457 9.09692 7.68457 8.72533 7.72429 8.23842C7.85243 8.19614 9.22602 9.2494 9.95639 9.28912C10.811 9.33781 14.4539 9.33141 15.4662 9.37369C15.5943 9.37369 15.8634 9.4621 15.8634 9.50183C15.8634 9.54411 15.5815 9.62996 15.4662 9.62996L15.4585 9.65046Z" fill="white"/>
<path id="Vector_8" d="M14.8788 11.7698C14.1292 11.1957 11.5345 9.00721 10.8938 8.5408C10.3557 8.14359 8.68992 8.13077 8.61816 8.01545C8.88725 7.63105 9.1307 7.34915 9.39978 7.02498C9.66886 6.7008 9.91232 6.40865 10.2442 6.07678C10.3569 6.1165 10.6542 7.74253 11.1539 8.21919C11.7305 8.75735 14.3368 10.9356 15.0236 11.5763C15.1069 11.6519 15.2555 11.8864 15.2273 11.9184C15.2017 11.944 14.9582 11.839 14.8596 11.7775L14.8788 11.7698Z" fill="white"/>
<path id="Vector_9" d="M14.8315 7.30312C14.1909 7.98864 11.7435 10.345 11.1976 10.9332C10.7389 11.4457 10.557 13.0922 10.4288 13.1268C10.0854 12.818 9.8202 12.5438 9.5319 12.2299C9.25001 11.9262 8.97324 11.652 8.67725 11.2907C8.7285 11.1817 10.3853 11.0485 10.9029 10.6064C11.509 10.0939 13.9461 7.72469 14.6445 7.09811C14.729 7.02379 14.9776 6.90078 15.0071 6.93025C15.0327 6.95588 14.8994 7.18652 14.8213 7.28006L14.8315 7.30312Z" fill="white"/>
</g>
</svg>
