<svg width="128" height="128" viewBox="0 0 128 128" fill="none" xmlns="http://www.w3.org/2000/svg">
<path d="M64.7507 61.6896C76.3423 65.3414 86.4075 68.4605 91.0152 69.6947C97.9327 71.5485 110.598 69.1205 119.033 67.5035C123.563 66.6351 126.872 66.0006 127.416 66.3889C126.055 72.547 124.413 77.6011 122.634 83.0764C120.844 88.5832 119.237 93.5321 116.8 99.3643C116.034 99.3821 113.533 96.7179 110.166 93.1313C104.282 86.8629 95.7532 77.7773 89.2165 75.2684C84.7569 73.5736 74.7723 70.189 63.2421 66.3325C51.6471 62.6752 41.5801 59.5446 36.976 58.2944C30.213 56.482 17.9727 58.8193 9.52787 60.4319C4.69592 61.3546 1.10657 62.04 0.496894 61.575C1.95419 55.4247 3.56216 50.4759 5.35144 44.9691C7.13047 39.4938 8.77267 34.4396 11.2908 28.6574C11.9592 28.663 14.264 31.1218 17.4184 34.4871C23.2918 40.7531 32.1109 50.1617 38.797 52.728C43.2501 54.4378 53.2265 57.8306 64.7507 61.6896Z" fill="#C8CCD1"/>
<path d="M63.2494 61.6896C74.7736 57.8306 84.75 54.4378 89.2031 52.728C95.8892 50.1617 104.708 40.7531 110.582 34.4871C113.736 31.1218 116.041 28.663 116.709 28.6574C119.227 34.4396 120.87 39.4937 122.649 44.969C124.438 50.4759 126.046 55.4247 127.503 61.575C126.894 62.04 123.304 61.3546 118.472 60.4319C110.027 58.8193 97.7871 56.482 91.0241 58.2944C86.42 59.5446 76.3529 62.6752 64.758 66.3325C53.2277 70.189 43.2432 73.5736 38.7836 75.2684C32.2469 77.7773 23.7181 86.8629 17.834 93.1313C14.4672 96.7179 11.9662 99.3821 11.1996 99.3643C8.76359 93.5321 7.15562 88.5833 5.36633 83.0764C3.5873 77.6011 1.94511 72.547 0.583629 66.3889C1.12771 66.0006 4.43754 66.6351 8.96753 67.5035C17.4023 69.1205 30.0674 71.5485 36.9849 69.6947C41.5926 68.4605 51.6578 65.3413 63.2494 61.6896Z" fill="#C8CCD1"/>
<path d="M66.4291 64C66.538 76.1527 66.6818 86.6892 66.9319 91.4527C67.3065 98.6045 73.5293 109.899 77.6737 117.422C79.8995 121.462 81.5257 124.413 81.3246 125.051C75.0471 125.659 69.7329 125.659 63.9759 125.659C58.1856 125.659 52.9821 125.659 46.6826 125.144C46.4287 124.421 48.1897 121.219 50.5604 116.909C54.7036 109.375 60.709 98.4565 61.0752 91.4644C61.309 86.6993 61.4425 76.1576 61.5472 64C61.4425 51.8423 61.309 41.3006 61.0752 36.5356C60.709 29.5435 54.7036 18.6245 50.5604 11.0913C48.1897 6.78098 46.4287 3.57911 46.6826 2.85557C52.9821 2.34102 58.1856 2.34102 63.9758 2.34102C69.7329 2.34102 75.0471 2.34102 81.3246 2.94913C81.5257 3.58656 79.8995 6.53833 77.6737 10.5782C73.5293 18.1005 67.3065 29.3954 66.9319 36.5473C66.6818 41.3108 66.538 51.8473 66.4291 64Z" fill="#C8CCD1"/>
<path d="M62.0344 62.5721C69.0894 52.6763 75.1663 44.0675 77.7639 40.0668C81.6646 34.0607 83.2692 21.2652 84.3378 12.7435C84.9117 8.1669 85.3311 4.82299 85.8685 4.42553C91.3044 7.62333 95.6037 10.7469 100.261 14.1309C104.946 17.5343 109.155 20.5928 113.949 24.7119C113.73 25.4465 110.423 27.0017 105.971 29.0954C98.1915 32.7546 86.915 38.0583 82.5089 43.4998C79.519 47.2174 73.2147 55.6674 65.9839 65.4416C58.9225 75.3389 52.8343 83.9457 50.2226 87.9382C46.409 93.8101 44.8494 106.174 43.7735 114.703C43.1578 119.584 42.7005 123.209 42.0699 123.646C36.671 120.359 32.4613 117.301 27.7769 113.897C23.1193 110.513 18.82 107.39 14.0989 103.208C14.3108 102.574 17.3615 101.142 21.5368 99.1817C29.3111 95.5321 40.9845 90.052 45.4913 84.4862C48.4935 80.7794 54.8031 72.3398 62.0344 62.5721Z" fill="#C8CCD1"/>
<path d="M65.9657 62.5721C73.197 72.3398 79.5066 80.7795 82.5088 84.4863C87.0156 90.052 98.689 95.5321 106.463 99.1818C110.639 101.142 113.689 102.574 113.901 103.208C109.18 107.39 104.881 110.513 100.223 113.897C95.5388 117.301 91.3291 120.359 85.9302 123.646C85.2996 123.21 84.8423 119.584 84.2266 114.703C83.1507 106.174 81.5911 93.8101 77.7775 87.9382C75.1658 83.9458 69.0775 75.3389 62.0162 65.4416C54.7854 55.6674 48.4811 47.2175 45.4912 43.4998C41.0851 38.0584 29.8086 32.7546 22.0288 29.0955C17.5773 27.0018 14.2706 25.4465 14.0507 24.7119C18.8446 20.5929 23.0544 17.5343 27.7388 14.1309C32.3963 10.747 36.6957 7.62336 42.1316 4.42557C42.669 4.82303 43.0884 8.16695 43.6623 12.7436C44.7309 21.2652 46.3355 34.0607 50.2362 40.0668C52.8338 44.0676 58.9107 52.6763 65.9657 62.5721Z" fill="#C8CCD1"/>
</svg>
