<svg width="128" height="128" viewBox="0 0 128 128" fill="none" xmlns="http://www.w3.org/2000/svg">
<g id="Logo">
<path id="Union" d="M122.916 83.3834C122.91 83.4038 122.903 83.4242 122.897 83.4447C120.999 89.3768 119.295 94.708 116.739 101C115.966 101.032 113.486 98.2186 110.148 94.4314C104.314 87.8127 95.8581 78.2191 89.3033 75.6404C84.8313 73.8994 74.8127 70.4408 63.2421 66.5024C51.6009 62.778 41.4929 59.5924 36.8672 58.3301C30.0724 56.5017 17.6814 59.2133 9.13254 61.084C4.24108 62.1544 0.607533 62.9495 0 62.4614C1.57274 55.8453 3.27758 50.5143 5.17467 44.5822C5.18122 44.5617 5.18779 44.5412 5.19434 44.5207C5.19493 44.5185 5.19559 44.5162 5.19629 44.514C5.19712 44.5114 5.19801 44.5088 5.19896 44.5062C7.07586 38.6373 8.81333 33.2128 11.4392 27C12.1136 26.9948 14.3986 29.5911 17.526 33.1446C23.3491 39.7611 32.0926 49.696 38.7972 52.3335C43.2624 54.0908 53.2726 57.5583 64.8372 61.4995C76.475 65.218 86.5814 68.3914 91.211 69.6365C98.161 71.5066 110.982 68.6908 119.521 66.8154C124.107 65.8083 127.457 65.0724 128 65.4794C126.53 72.0739 124.798 77.5 122.921 83.369C122.92 83.3717 122.919 83.3743 122.918 83.3769C122.918 83.379 122.917 83.3812 122.916 83.3834Z" fill="#C8CCD1"/>
<path id="Union_2" d="M122.808 44.5272C122.814 44.5455 122.819 44.5639 122.825 44.5822C124.722 50.5143 126.427 55.8454 128 62.4615C127.392 62.9495 123.759 62.1544 118.867 61.084C110.319 59.2133 97.9274 56.5018 91.1327 58.3301C86.5079 59.5921 76.4033 62.7767 64.7653 66.5001C53.1915 70.4394 43.1698 73.899 38.6969 75.6404C32.142 78.2191 23.6861 87.8126 17.8521 94.4314C14.5141 98.2186 12.0345 101.032 11.2606 101C8.70545 94.708 7.0006 89.377 5.10352 83.4448C5.09765 83.4265 5.09176 83.408 5.08589 83.3897C5.08407 83.3855 5.08247 83.3812 5.08109 83.3769C5.07948 83.3719 5.07807 83.3667 5.07687 83.3615C3.2009 77.4953 1.46923 72.071 0 65.4793C0.542606 65.0723 3.89326 65.8082 8.4791 66.8154C17.0179 68.6907 29.8391 71.5066 36.7892 69.6365C41.4178 68.3917 51.521 65.2193 63.1557 61.5018C74.7233 57.5597 84.7366 54.0912 89.2026 52.3336C95.9072 49.696 104.651 39.7611 110.474 33.1446C113.601 29.5911 115.886 26.9948 116.561 27C119.186 33.2103 120.923 38.6329 122.799 44.4992C122.801 44.5041 122.803 44.5091 122.804 44.5141C122.806 44.5184 122.807 44.5228 122.808 44.5272Z" fill="#C8CCD1"/>
<path id="Union_3" d="M116.561 83.6556C101.851 79.4325 49.383 61.9183 36.8888 58.4931C26.2 55.6037 1.6703 63.994 0 62.6459C1.57367 55.9954 3.27952 50.6367 5.17772 44.6736C7.06504 38.7448 8.80718 33.2721 11.4459 27C13.3772 26.985 28.5086 48.3902 38.82 52.4654C50.8859 57.2359 103.419 74.5449 117.766 79.9082C119.509 80.4861 123.212 82.9747 122.991 83.6702C122.802 84.2631 118.387 83.9713 116.634 83.4655L116.561 83.6556Z" fill="#C8CCD1"/>
<path id="Union_4" d="M122.808 44.5272C122.814 44.5455 122.819 44.5639 122.825 44.5822C124.722 50.5143 126.427 55.8454 128 62.4615C127.392 62.9495 123.759 62.1544 118.867 61.084C110.319 59.2133 97.9274 56.5018 91.1327 58.3301C86.5079 59.5921 76.4033 62.7767 64.7653 66.5001C53.1915 70.4394 43.1698 73.899 38.6969 75.6404C32.142 78.2191 23.6861 87.8126 17.8521 94.4314C14.5141 98.2186 12.0345 101.032 11.2606 101C8.70545 94.708 7.0006 89.377 5.10352 83.4448C5.09765 83.4265 5.09176 83.408 5.08589 83.3897C5.08407 83.3855 5.08247 83.3812 5.08109 83.3769C5.07948 83.3719 5.07807 83.3667 5.07687 83.3615C3.2009 77.4953 1.46923 72.071 0 65.4793C0.542606 65.0723 3.89326 65.8082 8.4791 66.8154C17.0179 68.6907 29.8391 71.5066 36.7892 69.6365C41.4178 68.3917 51.521 65.2193 63.1557 61.5018C74.7233 57.5597 84.7366 54.0912 89.2026 52.3336C95.9072 49.696 104.651 39.7611 110.474 33.1446C113.601 29.5911 115.886 26.9948 116.561 27C119.186 33.2103 120.923 38.6329 122.799 44.4992C122.801 44.5041 122.803 44.5091 122.804 44.5141C122.806 44.5184 122.807 44.5228 122.808 44.5272Z" fill="#C8CCD1"/>
<path id="Union_5" d="M66.5215 64C66.6346 76.6141 66.7839 87.5506 67.0434 92.495C67.4322 99.9184 73.8913 111.642 78.1931 119.45C80.5033 123.643 82.1913 126.707 81.9825 127.369C75.4668 128 69.9508 128 63.9752 128C57.9651 128 52.564 128 46.0253 127.466C45.7618 126.715 47.5897 123.391 50.0503 118.917C54.3509 111.098 60.5843 99.7647 60.9644 92.5072C61.207 87.5612 61.3456 76.6192 61.4542 64C61.3456 51.3808 61.207 40.4388 60.9644 35.4928C60.5843 28.2353 54.3509 16.9017 50.0503 9.08253C47.5897 4.60853 45.7618 1.28509 46.0253 0.53409C52.564 -6.35773e-08 57.965 0 63.9751 0C69.9508 0 75.4668 5.72195e-07 81.9825 0.6312C82.1913 1.29284 80.5033 4.35667 78.1931 8.54997C73.8913 16.3579 67.4322 28.0816 67.0434 35.505C66.7839 40.4494 66.6346 51.3859 66.5215 64Z" fill="#C8CCD1"/>
<path id="Union_6" d="M100.497 115.333C100.482 115.344 100.466 115.356 100.45 115.368C95.4743 119.071 91.0023 122.4 85.2845 126C84.6386 125.559 84.2594 121.764 83.7488 116.656C82.8565 107.727 81.5632 94.7857 77.7448 88.724C75.1244 84.5959 68.991 75.7007 61.8786 65.4785C54.6184 55.4355 48.2895 46.7591 45.2773 42.944C40.8296 37.3508 29.2143 32.0916 21.2008 28.4632C16.6156 26.3871 13.2095 24.8449 13 24.0795C18.1096 19.6214 22.5814 16.2932 27.5574 12.5897C27.5726 12.5784 27.5878 12.567 27.603 12.5558C27.6063 12.5528 27.6097 12.5499 27.6132 12.5473C27.6173 12.5442 27.6216 12.5413 27.6261 12.5386C32.5473 8.8759 37.0986 5.49207 42.8261 2C43.3758 2.4026 43.723 5.90289 44.1983 10.6935C45.0831 19.6137 46.4118 33.0076 50.3174 39.2077C52.9226 43.3448 59.0434 52.2413 66.1486 62.4611C73.4103 72.4982 79.7456 81.1646 82.7711 84.9683C87.3204 90.6893 99.3448 96.1227 107.353 99.7413C111.654 101.685 114.796 103.105 115 103.765C109.989 108.265 105.441 111.653 100.521 115.315C100.517 115.319 100.513 115.322 100.509 115.325C100.505 115.328 100.501 115.33 100.497 115.333Z" fill="#C8CCD1"/>
<path id="Union_7" d="M100.395 12.5542C100.411 12.566 100.427 12.5778 100.443 12.5896C105.419 16.2931 109.89 19.6214 115 24.0795C114.79 24.8449 111.384 26.3871 106.799 28.4632C98.7857 32.0916 87.1705 37.3508 82.7227 42.944C79.709 46.761 73.3753 55.4443 66.1105 65.4937C59.0027 75.7095 52.8741 84.5979 50.255 88.724C46.4367 94.7857 45.1435 107.727 44.2512 116.656C43.7407 121.764 43.3614 125.559 42.7156 126C36.9977 122.4 32.5259 119.071 27.5498 115.368C27.5336 115.356 27.5173 115.344 27.501 115.332C27.4977 115.33 27.4945 115.327 27.4914 115.325C27.4878 115.322 27.4842 115.32 27.4808 115.317C22.5597 111.654 18.0119 108.266 13 103.765C13.2039 103.105 16.3463 101.685 20.6471 99.7414C28.6551 96.1228 40.6794 90.6893 45.2288 84.9683C48.2557 81.1628 54.5956 72.4898 61.8615 62.4465C68.9624 52.2328 75.0786 43.3428 77.6826 39.2077C81.5882 33.0076 82.9169 19.6137 83.8018 10.6936C84.277 5.9029 84.6242 2.4026 85.1739 2C90.9019 5.49234 95.4535 8.87642 100.375 12.5394C100.379 12.5418 100.383 12.5444 100.386 12.547C100.389 12.5493 100.392 12.5517 100.395 12.5542Z" fill="#C8CCD1"/>
<path id="Union_8" d="M66.5215 64C66.6346 76.6141 66.7839 87.5506 67.0434 92.495C67.4322 99.9184 73.8913 111.642 78.1931 119.45C80.5033 123.643 82.1913 126.707 81.9825 127.369C75.4668 128 69.9508 128 63.9752 128C57.9651 128 52.564 128 46.0253 127.466C45.7618 126.715 47.5897 123.391 50.0503 118.917C54.3509 111.098 60.5843 99.7647 60.9644 92.5072C61.207 87.5612 61.3456 76.6192 61.4542 64C61.3456 51.3808 61.207 40.4388 60.9644 35.4928C60.5843 28.2353 54.3509 16.9017 50.0503 9.08253C47.5897 4.60853 45.7618 1.28509 46.0253 0.53409C52.564 -6.35773e-08 57.965 0 63.9751 0C69.9508 0 75.4668 5.72195e-07 81.9825 0.6312C82.1913 1.29284 80.5033 4.35667 78.1931 8.54997C73.8913 16.3579 67.4322 28.0816 67.0434 35.505C66.7839 40.4494 66.6346 51.3859 66.5215 64Z" fill="#C8CCD1"/>
<path id="Union_9" d="M100.497 115.333C100.482 115.344 100.466 115.356 100.45 115.368C95.4743 119.071 91.0023 122.4 85.2845 126C84.6386 125.559 84.2594 121.764 83.7488 116.656C82.8565 107.727 81.5632 94.7857 77.7448 88.724C75.1244 84.5959 68.991 75.7007 61.8786 65.4785C54.6184 55.4355 48.2895 46.7591 45.2773 42.944C40.8296 37.3508 29.2143 32.0916 21.2008 28.4632C16.6156 26.3871 13.2095 24.8449 13 24.0795C18.1096 19.6214 22.5814 16.2932 27.5574 12.5897C27.5726 12.5784 27.5878 12.567 27.603 12.5558C27.6063 12.5528 27.6097 12.5499 27.6132 12.5473C27.6173 12.5442 27.6216 12.5413 27.6261 12.5386C32.5473 8.8759 37.0986 5.49207 42.8261 2C43.3758 2.4026 43.723 5.90289 44.1983 10.6935C45.0831 19.6137 46.4118 33.0076 50.3174 39.2077C52.9226 43.3448 59.0434 52.2413 66.1486 62.4611C73.4103 72.4982 79.7456 81.1646 82.7711 84.9683C87.3204 90.6893 99.3448 96.1227 107.353 99.7413C111.654 101.685 114.796 103.105 115 103.765C109.989 108.265 105.441 111.653 100.521 115.315C100.517 115.319 100.513 115.322 100.509 115.325C100.505 115.328 100.501 115.33 100.497 115.333Z" fill="#C8CCD1"/>
<path id="Union_10" d="M100.395 12.5542C100.411 12.566 100.427 12.5778 100.443 12.5896C105.419 16.2931 109.89 19.6214 115 24.0795C114.79 24.8449 111.384 26.3871 106.799 28.4632C98.7857 32.0916 87.1705 37.3508 82.7227 42.944C79.709 46.761 73.3753 55.4443 66.1105 65.4937C59.0027 75.7095 52.8741 84.5979 50.255 88.724C46.4367 94.7857 45.1435 107.727 44.2512 116.656C43.7407 121.764 43.3614 125.559 42.7156 126C36.9977 122.4 32.5259 119.071 27.5498 115.368C27.5336 115.356 27.5173 115.344 27.501 115.332C27.4977 115.33 27.4945 115.327 27.4914 115.325C27.4878 115.322 27.4842 115.32 27.4808 115.317C22.5597 111.654 18.0119 108.266 13 103.765C13.2039 103.105 16.3463 101.685 20.6471 99.7414C28.6551 96.1228 40.6794 90.6893 45.2288 84.9683C48.2557 81.1628 54.5956 72.4898 61.8615 62.4465C68.9624 52.2328 75.0786 43.3428 77.6826 39.2077C81.5882 33.0076 82.9169 19.6137 83.8018 10.6936C84.277 5.9029 84.6242 2.4026 85.1739 2C90.9019 5.49234 95.4535 8.87642 100.375 12.5394C100.379 12.5418 100.383 12.5444 100.386 12.547C100.389 12.5493 100.392 12.5517 100.395 12.5542Z" fill="#C8CCD1"/>
</g>
</svg>
