<svg width="20" height="21" viewBox="0 0 20 21" fill="none" xmlns="http://www.w3.org/2000/svg">
<g id="Icon" clip-path="url(#clip0_4338_15810)">
<path id="Union" fill-rule="evenodd" clip-rule="evenodd" d="M5 0.5H16C16.5304 0.5 17.0391 0.710714 17.4142 1.08579C17.7893 1.46086 18 1.96957 18 2.5V16.5H16V2.5H5V0.5ZM12.02 10.9L13 9.91V9.92C13.0953 9.82441 13.1488 9.69495 13.1488 9.56C13.1488 9.42505 13.0953 9.29559 13 9.2L11.31 7.5C11.2144 7.40474 11.085 7.35125 10.95 7.35125C10.815 7.35125 10.6856 7.40474 10.59 7.5L9.6 8.48L12.02 10.9ZM4 16.5H6.41L11.48 11.44L9.06 9.02L4 14.08V16.5ZM4 3.5H13C13.5304 3.5 14.0391 3.71071 14.4142 4.08579C14.7893 4.46086 15 4.96957 15 5.5V18.5C15 19.0304 14.7893 19.5391 14.4142 19.9142C14.0391 20.2893 13.5304 20.5 13 20.5H4C3.46957 20.5 2.96086 20.2893 2.58579 19.9142C2.21071 19.5391 2 19.0304 2 18.5V5.5C2 4.96957 2.21071 4.46086 2.58579 4.08579C2.96086 3.71071 3.46957 3.5 4 3.5Z" fill="#202122"/>
</g>
<defs>
<clipPath id="clip0_4338_15810">
<rect width="20" height="20" fill="white" transform="translate(0 0.5)"/>
</clipPath>
</defs>
</svg>
