<svg width="96" height="96" viewBox="0 0 96 96" fill="none" xmlns="http://www.w3.org/2000/svg">
<g clip-path="url(#clip0_3961_32672)">
<rect width="96" height="96" fill="#3056A9"/>
<g opacity="0.4">
<path fill-rule="evenodd" clip-rule="evenodd" d="M7.3 81.6H4V134.4H7.3V81.6ZM10.6 81.6H20.5V134.4H10.6V81.6ZM33.7 81.6H23.8V134.4H33.7V81.6ZM36.56 81.6H39.64V134.4H36.56V81.6ZM46.24 81.6H43.16V134.4H46.24V81.6ZM49.32 81.6H59.44V134.4H49.32V81.6ZM66.04 81.6H62.52V134.4H66.04V81.6ZM69.12 81.6H78.8V134.4H69.12V81.6ZM85.4 81.6H82.32V134.4H85.4V81.6ZM92 81.6H88.92V134.4H92V81.6Z" fill="#B0C1F0"/>
</g>
<g opacity="0.4">
<path fill-rule="evenodd" clip-rule="evenodd" d="M7.3 -38.4H4V14.4H7.3V-38.4ZM10.6 -38.4H20.5V14.4H10.6V-38.4ZM33.7 -38.4H23.8V14.4H33.7V-38.4ZM36.56 -38.4H39.64V14.4H36.56V-38.4ZM46.24 -38.4H43.16V14.4H46.24V-38.4ZM49.32 -38.4H59.44V14.4H49.32V-38.4ZM66.04 -38.4H62.52V14.4H66.04V-38.4ZM69.12 -38.4H78.8V14.4H69.12V-38.4ZM85.4 -38.4H82.32V14.4H85.4V-38.4ZM92 -38.4H88.92V14.4H92V-38.4Z" fill="#B0C1F0"/>
</g>
<path fill-rule="evenodd" clip-rule="evenodd" d="M63.4505 34.6581C63.6049 34.9239 63.7686 35.2056 63.9365 35.4988C61.7977 35.4484 58.071 35.4217 54.2454 35.3943C49.045 35.3571 43.6618 35.3185 41.8362 35.2173C39.9556 35.1133 36.9854 33.3848 35.0073 32.2336C33.945 31.6154 33.1687 31.1636 33.0011 31.2195C32.8412 32.9632 32.8412 34.4393 32.8412 36.0384C32.8412 36.812 32.8412 37.5479 32.8563 38.2982C31.4365 38.2002 30.1672 38.2002 28.8092 38.2002C27.2009 38.2002 25.7556 38.2002 24.0058 38.3356C23.9422 38.511 24.4133 39.3196 25.0536 40.4186C26.2093 42.4022 27.9162 45.332 28.0251 47.1922C28.1115 48.9203 28.1457 51.1475 28.1811 53.4484L28.1978 54.5219C27.6362 54.2088 27.103 53.8985 26.6272 53.6216C25.5649 53.0034 24.7887 52.5517 24.621 52.6076C24.4611 54.3512 24.4611 55.8273 24.4611 57.4264C24.4611 59.0348 24.4611 60.4801 24.5964 62.2299C24.7867 62.3004 25.6287 61.8113 26.7621 61.1528C27.2626 60.862 27.8203 60.5381 28.4034 60.2149C28.4912 60.7462 28.6998 61.4643 28.8277 61.4643C29.0153 61.4643 29.3228 60.3449 29.3228 59.8652L29.3278 59.7169C30.7951 58.9522 32.3201 58.2948 33.4531 58.2321C35.1989 58.1417 42.2239 58.1053 49.1678 58.0693C55.6907 58.0355 62.1428 58.0021 64.0792 57.9246L64.0822 57.8723C64.5589 57.8539 65.6814 57.5679 65.6814 57.408C65.6814 57.2204 64.562 56.9129 64.0822 56.9129C62.221 56.8445 56.2337 56.8137 50.0078 56.7817C45.1547 56.7568 40.1561 56.7311 36.8542 56.6863C36.8607 56.6227 36.8642 56.5643 36.8642 56.5131C36.9771 53.7318 36.9911 53.4975 37.0514 52.4929C37.0782 52.0469 37.1141 51.4488 37.1717 50.4088C37.2758 48.5282 39.0043 45.558 40.1554 43.5799C40.7737 42.5176 41.2254 41.7414 41.1695 41.5737C39.4259 41.4138 37.9498 41.4138 36.3506 41.4138C34.8669 41.4138 33.5218 41.4138 31.9484 41.5201C32.1804 41.1114 32.4066 40.7228 32.614 40.3663C32.7187 40.1865 32.8185 40.0149 32.912 39.8531C32.9291 40.1735 32.9502 40.5019 32.9765 40.8419C33.1668 40.9124 34.0088 40.4232 35.1422 39.7647C37.1232 38.6139 39.9945 36.9458 41.8332 36.8441C43.5841 36.7534 48.6124 36.717 53.6106 36.6809C58.0393 36.6489 62.4444 36.617 64.5251 36.5477C65.4331 38.2091 66.2988 40.0406 66.3711 41.3491C66.462 43.1016 66.4983 47.8256 66.5345 52.5276C66.5681 56.9015 66.6016 61.2565 66.6787 63.1831L66.7309 63.1862C66.7494 63.6629 67.0354 64.7853 67.1953 64.7853C67.3829 64.7853 67.6904 63.6659 67.6904 63.1862C67.7583 61.3483 67.7891 57.3007 67.8208 53.1348C67.8581 48.2391 67.8966 43.1797 67.9979 41.3521C68.102 39.4715 69.8305 36.5013 70.9816 34.5232C71.5999 33.4609 72.0516 32.6847 71.9957 32.517C70.2521 32.3571 68.776 32.3571 67.1769 32.3571C65.5685 32.3571 64.1232 32.3571 62.3734 32.4924C62.3029 32.6827 62.792 33.5247 63.4505 34.6581ZM35.9177 56.6722C35.911 56.614 35.9066 56.5604 35.9047 56.5131H35.8832C35.7908 53.8883 35.764 53.532 35.6982 52.6558C35.6633 52.1913 35.6174 51.5808 35.5449 50.4088C35.4536 48.5312 33.7418 45.5967 32.5865 43.6162C32.1899 42.9363 31.8588 42.3688 31.6814 41.9951C30.7033 43.755 29.7085 45.7825 29.6303 47.1953C29.5232 49.1276 29.4832 51.682 29.4429 54.2625L29.4284 55.1828C30.8655 55.9204 32.3494 56.5441 33.4561 56.6053C33.9271 56.6315 34.7828 56.6534 35.9177 56.6722Z" fill="#DCE3F9"/>
<path d="M53.2852 54.9631C53.2397 53.9478 53.2227 51.7476 53.2049 49.4597C53.2009 48.9403 53.1968 48.4164 53.1924 47.9008C52.1524 48.9296 51.287 49.7952 50.8743 50.2398C50.1841 51.011 49.7549 52.8522 49.455 54.1389C49.2766 54.9044 49.1439 55.4736 49.0292 55.5046C48.2051 54.7634 47.5685 54.1053 46.8766 53.3519C46.6975 53.159 46.5193 52.9711 46.3409 52.7829C45.8452 52.2601 45.3477 51.7355 44.8254 51.0978C44.8684 51.0064 45.3825 50.9078 46.086 50.773C47.3947 50.5221 49.359 50.1456 50.167 49.4556C50.6213 49.0714 51.5043 48.2526 52.5549 47.2622C50.4864 47.2814 48.6677 47.3089 47.8763 47.3643C46.7623 47.4288 45.0187 48.4818 43.8167 49.2078C43.1273 49.6242 42.616 49.933 42.5039 49.8859C42.4424 48.7789 42.4424 47.8656 42.4424 46.8477C42.4424 45.8329 42.4424 44.941 42.5377 43.7724C42.6463 43.7366 43.1272 44.0283 43.7811 44.425C44.98 45.1523 46.7606 46.2324 47.8947 46.2941C48.688 46.3393 50.482 46.3647 52.5246 46.3847C51.4765 45.5304 50.6034 44.8311 50.1458 44.498C49.3213 43.8894 47.3942 43.6568 46.0632 43.4962C45.3091 43.4052 44.7465 43.3372 44.6842 43.2371C45.2404 42.4426 45.751 41.8305 46.2945 41.1789L46.5601 40.86C47.2059 40.082 47.7901 39.3808 48.5866 38.5843C48.6806 38.6174 48.8278 39.1091 49.0302 39.7849C49.411 41.0562 49.987 42.9792 50.77 43.7261C51.1979 44.1255 52.0916 44.9012 53.1707 45.8278C53.1522 44.4154 53.1258 43.2422 53.0823 42.6622C53.0174 41.6201 51.9517 39.9845 51.2254 38.8697C50.8157 38.241 50.514 37.7779 50.5606 37.6804C51.6677 37.6188 52.581 37.6188 53.5989 37.6188C54.6137 37.6188 55.5056 37.6188 56.6741 37.6804C56.7098 37.7755 56.4204 38.2221 56.0259 38.8306C55.2986 39.9527 54.2143 41.6254 54.1525 42.6622C54.1167 43.2462 54.0933 44.416 54.0751 45.8224C54.4802 45.4376 54.8912 45.0463 55.2968 44.6602C56.8996 43.1347 58.4178 41.6897 59.1467 41.0357C59.3496 40.8573 59.9462 40.5621 60.017 40.6328C60.0785 40.6943 59.7587 41.2478 59.5711 41.4723L59.5957 41.5277C58.8121 42.3661 56.9027 44.2457 55.045 46.0745C54.933 46.1847 54.8212 46.2947 54.7099 46.4043L54.7906 46.405C57.395 46.4271 59.9663 46.4489 61.1182 46.4971C61.4257 46.4971 62.0715 46.7092 62.0715 46.8046C62.0715 46.9061 61.395 47.1121 61.1182 47.1121L61.0997 47.1613C59.997 47.2068 57.6325 47.2239 55.1767 47.2416L54.8251 47.2442L55.0693 47.4528C57.0886 49.1788 59.1984 50.982 60.0572 51.7832C60.2571 51.9646 60.6138 52.5274 60.5462 52.6043C60.4847 52.6658 59.9004 52.4136 59.6636 52.266L59.7097 52.2475C58.8879 51.6182 57.142 50.1802 55.3412 48.6971C54.9117 48.3433 54.479 47.987 54.0551 47.6385L54.0416 49.0779C54.0195 51.5039 53.9976 53.8996 53.9495 54.9631C53.9495 55.2337 53.7373 55.8857 53.642 55.8857C53.5405 55.8857 53.3345 55.2706 53.3345 54.9631H53.2852Z" fill="#DCE3F9"/>
</g>
<defs>
<clipPath id="clip0_3961_32672">
<rect width="96" height="96" fill="white"/>
</clipPath>
</defs>
</svg>
