<svg width="20" height="20" viewBox="0 0 20 20" fill="none" xmlns="http://www.w3.org/2000/svg">
<g id="Editing / Divide" clip-path="url(#clip0_7031_20804)">
<path id="Union" fill-rule="evenodd" clip-rule="evenodd" d="M13 19.9995C11.8954 19.9995 11 19.1041 11 17.9995V1.99951C11 0.894943 11.8954 -0.000488495 13 -0.000488544L15 -0.000488631V1.99902L13 1.99902L13 17.999H15V19.9995H13ZM5 19.999V17.999H7V1.99902H5V-0.000976475L7 -0.000976562C8.10457 -0.000976611 9 0.894453 9 1.99902V17.999C9 19.1036 8.10457 19.999 7 19.999H5ZM20 9.99902L16 5.99902V13.999L20 9.99902ZM0 9.99902L4 13.999L4 5.99902L0 9.99902Z" fill="#202122"/>
</g>
<defs>
<clipPath id="clip0_7031_20804">
<rect width="20" height="20" fill="white"/>
</clipPath>
</defs>
</svg>
