<svg width="320" height="128" viewBox="0 0 320 128" fill="none" xmlns="http://www.w3.org/2000/svg">
<rect width="320" height="128" fill="#EAF3FF"/>
<rect x="125.5" y="27.5715" width="69" height="81.4286" rx="2" fill="white"/>
<path fill-rule="evenodd" clip-rule="evenodd" d="M166.1 23.7553C167.66 23.2512 168.626 22.5549 168.626 21.7857C168.626 20.2472 164.764 19 160 19C155.237 19 151.375 20.2472 151.375 21.7857C151.375 22.5726 152.386 23.2833 154.01 23.7899L141.506 23.8257C137.426 23.8374 134.125 27.1481 134.125 31.2281C134.125 31.8122 134.598 32.2856 135.182 32.2856H184.805C185.396 32.2856 185.876 31.8063 185.876 31.2149C185.876 27.0674 182.507 23.7084 178.36 23.7203L166.1 23.7553Z" fill="#A2A9B1"/>
<path fill-rule="evenodd" clip-rule="evenodd" d="M175.228 56.8782C175.847 57.4281 175.904 58.3761 175.354 58.9957L156.335 80.4243C156.05 80.745 155.642 80.9286 155.213 80.9286C154.784 80.9286 154.376 80.745 154.091 80.4243L145.078 70.2698C144.528 69.6502 144.585 68.7021 145.205 68.1522C145.824 67.6023 146.772 67.6588 147.322 68.2783L155.213 77.1689L173.11 57.0043C173.66 56.3847 174.608 56.3282 175.228 56.8782Z" fill="#3366CC"/>
</svg>
