<svg width="48" height="49" viewBox="0 0 48 49" fill="none" xmlns="http://www.w3.org/2000/svg">
<g id="Frame">
<path id="Union" d="M46.0935 31.7688C46.0911 31.7764 46.0887 31.7841 46.0862 31.7917C45.3748 34.0163 44.7355 36.0155 43.7773 38.3749C43.4871 38.3869 42.5572 37.332 41.3055 35.9118C39.1177 33.4297 35.9468 29.8321 33.4887 28.8652C31.8117 28.2123 28.0548 26.9153 23.7158 25.4384C19.3503 24.0418 15.5598 22.8471 13.8252 22.3738C11.2772 21.6882 6.63051 22.705 3.4247 23.4065C1.5904 23.8079 0.227825 24.1061 0 23.923C0.589777 21.442 1.22909 19.4429 1.9405 17.2183C1.94296 17.2106 1.94542 17.2029 1.94788 17.1953C1.9481 17.1944 1.94834 17.1936 1.94861 17.1928C1.94892 17.1918 1.94926 17.1908 1.94961 17.1898C2.65345 14.989 3.305 12.9548 4.28971 10.625C4.54262 10.6231 5.39949 11.5967 6.57225 12.9292C8.75591 15.4104 12.0347 19.136 14.549 20.1251C16.2234 20.7841 19.9772 22.0844 24.3139 23.5623C28.6781 24.9567 32.468 26.1468 34.2041 26.6137C36.8104 27.315 41.6183 26.259 44.8204 25.5558C46.54 25.1781 47.7965 24.9022 48 25.0548C47.4488 27.5277 46.7991 29.5625 46.0953 31.7634C46.095 31.7644 46.0947 31.7654 46.0944 31.7663C46.0941 31.7671 46.0939 31.768 46.0935 31.7688Z" fill="#990000"/>
<path id="Union_2" d="M46.0529 17.1977C46.0551 17.2046 46.0573 17.2114 46.0595 17.2183C46.7709 19.4429 47.4102 21.442 48 23.923C47.7722 24.1061 46.4096 23.8079 44.5753 23.4065C41.3695 22.705 36.7228 21.6882 34.1747 22.3738C32.4405 22.847 28.6512 24.0413 24.287 25.4375C19.9468 26.9148 16.1887 28.2121 14.5113 28.8652C12.0533 29.8321 8.88227 33.4297 6.69455 35.9118C5.44278 37.332 4.51293 38.3869 4.22272 38.3749C3.26454 36.0155 2.62523 34.0164 1.91382 31.7918C1.91162 31.7849 1.90941 31.778 1.90721 31.7711C1.90652 31.7696 1.90593 31.768 1.90541 31.7663C1.9048 31.7645 1.90428 31.7625 1.90383 31.7606C1.20034 29.5608 0.55096 27.5266 0 25.0547C0.203477 24.9021 1.45997 25.1781 3.17966 25.5558C6.38171 26.259 11.1897 27.315 13.7959 26.6137C15.5317 26.1469 19.3204 24.9572 23.6834 23.5632C28.0212 22.0849 31.7762 20.7842 33.451 20.1251C35.9652 19.136 39.2441 15.4104 41.4277 12.9292C42.6005 11.5967 43.4574 10.6231 43.7103 10.625C44.6946 12.9539 45.346 14.9873 46.0495 17.1872C46.0503 17.189 46.051 17.1909 46.0516 17.1928C46.0521 17.1944 46.0525 17.196 46.0529 17.1977Z" fill="#990000"/>
<path id="Union_3" d="M43.7104 31.8708C38.1941 30.2872 18.5186 23.7194 13.8333 22.4349C9.82499 21.3514 0.626362 24.4978 0 23.9922C0.590125 21.4983 1.22982 19.4888 1.94165 17.2526C2.64939 15.0293 3.30269 12.977 4.29223 10.625C5.01647 10.6194 10.6907 18.6463 14.5575 20.1745C19.0822 21.9635 38.7822 28.4543 44.1624 30.4656C44.8158 30.6823 46.2045 31.6155 46.1214 31.8763C46.0507 32.0987 44.3951 31.9892 43.7377 31.7995L43.7104 31.8708Z" fill="#990000"/>
<path id="Union_4" d="M46.0529 17.1977C46.0551 17.2046 46.0573 17.2114 46.0595 17.2183C46.7709 19.4429 47.4102 21.442 48 23.923C47.7722 24.1061 46.4096 23.8079 44.5753 23.4065C41.3695 22.705 36.7228 21.6882 34.1747 22.3738C32.4405 22.847 28.6512 24.0413 24.287 25.4375C19.9468 26.9148 16.1887 28.2121 14.5113 28.8652C12.0533 29.8321 8.88227 33.4297 6.69455 35.9118C5.44278 37.332 4.51293 38.3869 4.22272 38.3749C3.26454 36.0155 2.62523 34.0164 1.91382 31.7918C1.91162 31.7849 1.90941 31.778 1.90721 31.7711C1.90652 31.7696 1.90593 31.768 1.90541 31.7663C1.9048 31.7645 1.90428 31.7625 1.90383 31.7606C1.20034 29.5608 0.55096 27.5266 0 25.0547C0.203477 24.9021 1.45997 25.1781 3.17966 25.5558C6.38171 26.259 11.1897 27.315 13.7959 26.6137C15.5317 26.1469 19.3204 24.9572 23.6834 23.5632C28.0212 22.0849 31.7762 20.7842 33.451 20.1251C35.9652 19.136 39.2441 15.4104 41.4277 12.9292C42.6005 11.5967 43.4574 10.6231 43.7103 10.625C44.6946 12.9539 45.346 14.9873 46.0495 17.1872C46.0503 17.189 46.051 17.1909 46.0516 17.1928C46.0521 17.1944 46.0525 17.196 46.0529 17.1977Z" fill="#990000"/>
<path id="Union_5" d="M24.9456 24.5C24.988 29.2303 25.044 33.3315 25.1413 35.1856C25.2871 37.9694 27.7093 42.3658 29.3224 45.2938C30.1888 46.8662 30.8218 48.0152 30.7435 48.2633C28.3 48.5 26.2316 48.5 23.9907 48.5C21.7369 48.5 19.7115 48.5 17.2595 48.2997C17.1607 48.0181 17.8461 46.7718 18.7689 45.094C20.3816 42.1618 22.7191 37.9118 22.8616 35.1902C22.9526 33.3354 23.0046 29.2322 23.0453 24.5C23.0046 19.7678 22.9526 15.6646 22.8616 13.8098C22.7191 11.0882 20.3816 6.83815 18.7689 3.90595C17.8461 2.2282 17.1607 0.98191 17.2595 0.700284C19.7115 0.5 21.7369 0.5 23.9907 0.5C26.2315 0.5 28.3 0.5 30.7435 0.7367C30.8218 0.984814 30.1888 2.13375 29.3224 3.70624C27.7093 6.6342 25.2871 11.0306 25.1413 13.8144C25.044 15.6685 24.988 19.7697 24.9456 24.5Z" fill="#006699"/>
<path id="Union_6" d="M37.6866 43.7497C37.6807 43.7541 37.6748 43.7585 37.6688 43.7629C35.8029 45.1517 34.1258 46.3999 31.9817 47.75C31.7395 47.5848 31.5973 46.1617 31.4058 44.2459C31.0712 40.8977 30.5862 36.0446 29.1543 33.7715C28.1717 32.2235 25.8716 28.8878 23.2045 25.0544C20.4819 21.2883 18.1086 18.0347 16.979 16.604C15.3111 14.5065 10.9554 12.5343 7.95029 11.1737C6.23084 10.3952 4.95358 9.81683 4.875 9.52981C6.79109 7.85802 8.46802 6.60994 10.334 5.22112C10.3397 5.21689 10.3454 5.21264 10.3511 5.20841C10.3523 5.20728 10.3536 5.20623 10.355 5.20524C10.3565 5.20409 10.3581 5.20299 10.3598 5.20196C12.2052 3.82846 13.912 2.55953 16.0598 1.25C16.2659 1.40098 16.3961 2.71358 16.5743 4.51008C16.9062 7.85514 17.4044 12.8778 18.869 15.2029C19.846 16.7543 22.1413 20.0905 24.8057 23.9229C27.5288 27.6868 29.9046 30.9367 31.0391 32.3631C32.7452 34.5085 37.2543 36.546 40.2573 37.903C41.8701 38.6318 43.0485 39.1642 43.125 39.4117C41.2458 41.0993 39.5405 42.3699 37.6954 43.7432C37.6939 43.7445 37.6923 43.7458 37.6908 43.7469C37.6894 43.7479 37.688 43.7489 37.6866 43.7497Z" fill="#339966"/>
<path id="Union_7" d="M37.6481 5.20783C37.6541 5.21226 37.66 5.21667 37.666 5.22111C39.532 6.60993 41.2089 7.85802 43.125 9.52981C43.0464 9.81683 41.7692 10.3952 40.0497 11.1737C37.0446 12.5343 32.6889 14.5065 31.021 16.604C29.8909 18.0354 27.5157 21.2916 24.7914 25.0601C22.126 28.8911 19.8278 32.2242 18.8456 33.7715C17.4138 36.0446 16.9288 40.8977 16.5942 44.2459C16.4028 46.1617 16.2605 47.5848 16.0184 47.75C13.8741 46.3999 12.1972 45.1518 10.3312 43.763C10.3251 43.7584 10.319 43.7539 10.3129 43.7494C10.3116 43.7486 10.3104 43.7478 10.3093 43.7469C10.3079 43.7459 10.3066 43.7448 10.3053 43.7437C8.4599 42.3703 6.75445 41.0996 4.875 39.4118C4.95147 39.1643 6.12986 38.6318 7.74266 37.903C10.7457 36.5461 15.2548 34.5085 16.9608 32.3631C18.0959 30.936 20.4733 27.6837 23.1981 23.9175C25.8609 20.0873 28.1545 16.7536 29.131 15.2029C30.5956 12.8778 31.0938 7.85514 31.4257 4.51008C31.6039 2.71359 31.7341 1.40098 31.9402 1.25C34.0882 2.55963 35.795 3.82866 37.6407 5.20228C37.6421 5.20318 37.6434 5.20413 37.6448 5.20513C37.6459 5.20597 37.647 5.20687 37.6481 5.20783Z" fill="#339966"/>
<path id="Union_8" d="M24.9456 24.5C24.988 29.2303 25.044 33.3315 25.1413 35.1856C25.2871 37.9694 27.7093 42.3658 29.3224 45.2938C30.1888 46.8662 30.8218 48.0152 30.7435 48.2633C28.3 48.5 26.2316 48.5 23.9907 48.5C21.7369 48.5 19.7115 48.5 17.2595 48.2997C17.1607 48.0181 17.8461 46.7718 18.7689 45.094C20.3816 42.1618 22.7191 37.9118 22.8616 35.1902C22.9526 33.3354 23.0046 29.2322 23.0453 24.5C23.0046 19.7678 22.9526 15.6646 22.8616 13.8098C22.7191 11.0882 20.3816 6.83815 18.7689 3.90595C17.8461 2.2282 17.1607 0.98191 17.2595 0.700284C19.7115 0.5 21.7369 0.5 23.9907 0.5C26.2315 0.5 28.3 0.5 30.7435 0.7367C30.8218 0.984814 30.1888 2.13375 29.3224 3.70624C27.7093 6.6342 25.2871 11.0306 25.1413 13.8144C25.044 15.6685 24.988 19.7697 24.9456 24.5Z" fill="#006699"/>
<path id="Union_9" d="M37.6866 43.7497C37.6807 43.7541 37.6748 43.7585 37.6688 43.7629C35.8029 45.1517 34.1258 46.3999 31.9817 47.75C31.7395 47.5848 31.5973 46.1617 31.4058 44.2459C31.0712 40.8977 30.5862 36.0446 29.1543 33.7715C28.1717 32.2235 25.8716 28.8878 23.2045 25.0544C20.4819 21.2883 18.1086 18.0347 16.979 16.604C15.3111 14.5065 10.9554 12.5343 7.95029 11.1737C6.23084 10.3952 4.95358 9.81683 4.875 9.52981C6.79109 7.85802 8.46802 6.60994 10.334 5.22112C10.3397 5.21689 10.3454 5.21264 10.3511 5.20841C10.3523 5.20728 10.3536 5.20623 10.355 5.20524C10.3565 5.20409 10.3581 5.20299 10.3598 5.20196C12.2052 3.82846 13.912 2.55953 16.0598 1.25C16.2659 1.40098 16.3961 2.71358 16.5743 4.51008C16.9062 7.85514 17.4044 12.8778 18.869 15.2029C19.846 16.7543 22.1413 20.0905 24.8057 23.9229C27.5288 27.6868 29.9046 30.9367 31.0391 32.3631C32.7452 34.5085 37.2543 36.546 40.2573 37.903C41.8701 38.6318 43.0485 39.1642 43.125 39.4117C41.2458 41.0993 39.5405 42.3699 37.6954 43.7432C37.6939 43.7445 37.6923 43.7458 37.6908 43.7469C37.6894 43.7479 37.688 43.7489 37.6866 43.7497Z" fill="#339966"/>
<path id="Union_10" d="M37.6481 5.20783C37.6541 5.21226 37.66 5.21667 37.666 5.22111C39.532 6.60993 41.2089 7.85802 43.125 9.52981C43.0464 9.81683 41.7692 10.3952 40.0497 11.1737C37.0446 12.5343 32.6889 14.5065 31.021 16.604C29.8909 18.0354 27.5157 21.2916 24.7914 25.0601C22.126 28.8911 19.8278 32.2242 18.8456 33.7715C17.4138 36.0446 16.9288 40.8977 16.5942 44.2459C16.4028 46.1617 16.2605 47.5848 16.0184 47.75C13.8741 46.3999 12.1972 45.1518 10.3312 43.763C10.3251 43.7584 10.319 43.7539 10.3129 43.7494C10.3116 43.7486 10.3104 43.7478 10.3093 43.7469C10.3079 43.7459 10.3066 43.7448 10.3053 43.7437C8.4599 42.3703 6.75445 41.0996 4.875 39.4118C4.95147 39.1643 6.12986 38.6318 7.74266 37.903C10.7457 36.5461 15.2548 34.5085 16.9608 32.3631C18.0959 30.936 20.4733 27.6837 23.1981 23.9175C25.8609 20.0873 28.1545 16.7536 29.131 15.2029C30.5956 12.8778 31.0938 7.85514 31.4257 4.51008C31.6039 2.71359 31.7341 1.40098 31.9402 1.25C34.0882 2.55963 35.795 3.82866 37.6407 5.20228C37.6421 5.20318 37.6434 5.20413 37.6448 5.20513C37.6459 5.20597 37.647 5.20687 37.6481 5.20783Z" fill="#339966"/>
</g>
</svg>
