<svg width="96" height="96" viewBox="0 0 96 96" fill="none" xmlns="http://www.w3.org/2000/svg">
<rect width="96" height="96" fill="#9F3526"/>
<path d="M25.3122 40C23.8283 40 22.5059 39.7426 21.345 39.2278C20.1842 38.7028 19.2656 37.9306 18.5892 36.911C17.923 35.8814 17.5898 34.5994 17.5898 33.065C17.5898 31.7729 17.8271 30.6877 18.3015 29.8095C18.776 28.9312 19.422 28.2246 20.2397 27.6896C21.0574 27.1546 21.9861 26.7508 23.0258 26.4782C24.0756 26.2057 25.176 26.0139 26.3268 25.9028C27.6794 25.7615 28.7697 25.6303 29.5974 25.5091C30.4252 25.3779 31.0258 25.1861 31.3993 24.9338C31.7728 24.6814 31.9596 24.3079 31.9596 23.8132V23.7224C31.9596 22.7634 31.6567 22.0215 31.051 21.4965C30.4555 20.9716 29.6075 20.7091 28.5072 20.7091C27.3463 20.7091 26.4227 20.9666 25.7362 21.4814C25.0498 21.9861 24.5955 22.6221 24.3734 23.3893L18.4075 22.9047C18.7103 21.4915 19.3059 20.27 20.1943 19.2404C21.0826 18.2006 22.2283 17.4032 23.6315 16.8479C25.0447 16.2826 26.6801 16 28.5375 16C29.8296 16 31.0662 16.1514 32.2473 16.4543C33.4384 16.7571 34.4933 17.2265 35.4119 17.8625C36.3406 18.4984 37.0725 19.3161 37.6075 20.3155C38.1425 21.3047 38.41 22.4909 38.41 23.8738V39.5609H32.2927V36.3356H32.111C31.7375 37.0625 31.2378 37.7035 30.6119 38.2587C29.9861 38.8038 29.234 39.2328 28.3558 39.5457C27.4775 39.8486 26.463 40 25.3122 40ZM27.1596 35.5483C28.1085 35.5483 28.9463 35.3615 29.6731 34.988C30.3999 34.6044 30.9703 34.0896 31.3842 33.4435C31.798 32.7975 32.005 32.0656 32.005 31.2479V28.7798C31.8031 28.911 31.5255 29.0322 31.1722 29.1432C30.829 29.2442 30.4403 29.3401 30.0062 29.4309C29.5722 29.5117 29.1381 29.5874 28.704 29.658C28.27 29.7186 27.8763 29.7741 27.523 29.8246C26.7659 29.9356 26.1047 30.1123 25.5394 30.3546C24.9741 30.5968 24.535 30.9249 24.222 31.3388C23.9091 31.7426 23.7526 32.2473 23.7526 32.853C23.7526 33.7312 24.0706 34.4025 24.7066 34.8669C25.3526 35.3211 26.1703 35.5483 27.1596 35.5483Z" fill="#FFE9E5"/>
<path d="M56.4373 83.6141V52H63.0136V63.8862H63.2143C63.5024 63.2481 63.9192 62.5998 64.4647 61.9411C65.0204 61.2722 65.7409 60.7165 66.6259 60.274C67.5213 59.8212 68.6328 59.5948 69.9604 59.5948C71.6894 59.5948 73.2846 60.0476 74.746 60.9532C76.2074 61.8485 77.3755 63.2018 78.2503 65.013C79.1251 66.814 79.5625 69.0728 79.5625 71.7897C79.5625 74.4345 79.1354 76.6676 78.2812 78.4891C77.4373 80.3004 76.2846 81.6742 74.8232 82.6107C73.3721 83.5369 71.746 84 69.945 84C68.6688 84 67.5831 83.789 66.6877 83.3671C65.8026 82.9452 65.0771 82.4152 64.511 81.7771C63.945 81.1288 63.5127 80.4753 63.2143 79.8167H62.921V83.6141H56.4373ZM62.8747 71.7588C62.8747 73.1687 63.0702 74.3985 63.4613 75.4481C63.8524 76.4978 64.4184 77.316 65.1594 77.9026C65.9004 78.4789 66.8009 78.767 67.8609 78.767C68.9313 78.767 69.8369 78.4737 70.5779 77.8871C71.3189 77.2902 71.8798 76.467 72.2606 75.4173C72.6517 74.3573 72.8472 73.1378 72.8472 71.7588C72.8472 70.3901 72.6568 69.186 72.276 68.1466C71.8952 67.1073 71.3343 66.2943 70.5933 65.7077C69.8524 65.1211 68.9415 64.8278 67.8609 64.8278C66.7906 64.8278 65.8849 65.1108 65.1439 65.6768C64.4132 66.2428 63.8524 67.0455 63.4613 68.0849C63.0702 69.1243 62.8747 70.3489 62.8747 71.7588Z" fill="#FFE9E5"/>
<path opacity="0.5" d="M68 34C66.35 34 64.9333 33.4142 63.75 32.2427C62.5833 31.0544 62 29.6318 62 27.9749C62 26.3347 62.5833 24.9289 63.75 23.7573C64.9333 22.5858 66.35 22 68 22C69.6 22 71 22.5858 72.2 23.7573C73.4 24.9289 74 26.3347 74 27.9749C74 29.0795 73.7167 30.0921 73.15 31.0126C72.6 31.9163 71.875 32.6444 70.975 33.1967C70.075 33.7322 69.0833 34 68 34Z" fill="#FFDAD3"/>
<path opacity="0.5" d="M28 74C26.35 74 24.9333 73.4142 23.75 72.2427C22.5833 71.0544 22 69.6318 22 67.9749C22 66.3347 22.5833 64.9289 23.75 63.7573C24.9333 62.5858 26.35 62 28 62C29.6 62 31 62.5858 32.2 63.7573C33.4 64.9289 34 66.3347 34 67.9749C34 69.0795 33.7167 70.0921 33.15 71.0126C32.6 71.9163 31.875 72.6444 30.975 73.1967C30.075 73.7322 29.0833 74 28 74Z" fill="#FFDAD3"/>
</svg>
