<svg width="118" height="32" viewBox="0 0 118 32" fill="none" xmlns="http://www.w3.org/2000/svg">
<path d="M16.8908 15.5668C19.0642 16.2515 20.9514 16.8363 21.8153 17.0678C23.1124 17.4153 25.4871 16.9601 27.0686 16.6569C27.918 16.4941 28.5386 16.3751 28.6406 16.4479C28.3853 17.6026 28.0774 18.5502 27.7438 19.5768C27.4083 20.6094 27.1068 21.5373 26.6501 22.6308C26.5064 22.6341 26.0374 22.1346 25.4062 21.4621C24.3029 20.2868 22.7037 18.5832 21.4781 18.1128C20.6419 17.795 18.7698 17.1604 16.6079 16.4374C14.4338 15.7516 12.5463 15.1646 11.683 14.9302C10.4149 14.5904 8.11988 15.0286 6.53648 15.331C5.63048 15.504 4.95748 15.6325 4.84317 15.5453C5.11641 14.3921 5.4179 13.4642 5.7534 12.4317C6.08696 11.4051 6.39488 10.4574 6.86703 9.37326C6.99236 9.37432 7.4245 9.83534 8.01595 10.4663C9.11722 11.6412 10.7708 13.4053 12.0244 13.8865C12.8594 14.2071 14.73 14.8432 16.8908 15.5668Z" fill="#990000"/>
<path d="M16.6094 15.5668C18.7702 14.8432 20.6408 14.2071 21.4758 13.8865C22.7294 13.4053 24.383 11.6412 25.4843 10.4663C26.0757 9.83534 26.5078 9.37432 26.6332 9.37326C27.1053 10.4574 27.4132 11.4051 27.7468 12.4317C28.0823 13.4642 28.3838 14.3921 28.657 15.5453C28.5427 15.6325 27.8697 15.504 26.9637 15.331C25.3803 15.0286 23.0853 14.5904 21.8172 14.9302C20.9539 15.1646 19.0664 15.7516 16.8923 16.4374C14.7304 17.1604 12.8583 17.795 12.0221 18.1128C10.7965 18.5832 9.19733 20.2868 8.09405 21.4621C7.46278 22.1346 6.99384 22.6341 6.85011 22.6308C6.39336 21.5373 6.09186 20.6094 5.75637 19.5768C5.4228 18.5502 5.11489 17.6026 4.85961 16.4479C4.96163 16.3751 5.58222 16.4941 6.43159 16.6569C8.01312 16.9601 10.3878 17.4153 11.6849 17.0678C12.5488 16.8363 14.436 16.2515 16.6094 15.5668Z" fill="#990000"/>
<path d="M17.2051 16C17.2255 18.2786 17.2525 20.2542 17.2994 21.1474C17.3696 22.4884 18.5364 24.6061 19.3135 26.0166C19.7308 26.7741 20.0357 27.3275 19.998 27.447C18.821 27.5611 17.8246 27.5611 16.7451 27.5611C15.6594 27.5611 14.6838 27.5611 13.5026 27.4646C13.455 27.3289 13.7852 26.7286 14.2297 25.9204C15.0066 24.5079 16.1326 22.4606 16.2012 21.1496C16.2451 20.2561 16.2701 18.2796 16.2897 16C16.2701 13.7204 16.2451 11.7439 16.2012 10.8504C16.1326 9.53941 15.0066 7.4921 14.2297 6.07962C13.7852 5.27143 13.455 4.67108 13.5026 4.53542C14.6838 4.43894 15.6594 4.43894 16.7451 4.43894C17.8246 4.43894 18.821 4.43894 19.998 4.55296C20.0357 4.67248 19.7308 5.22594 19.3135 5.98342C18.5364 7.39385 17.3696 9.51165 17.2994 10.8526C17.2525 11.7458 17.2255 13.7214 17.2051 16Z" fill="#006699"/>
<path d="M16.3813 15.7323C17.7041 13.8768 18.8436 12.2627 19.3306 11.5125C20.062 10.3864 20.3628 7.98722 20.5632 6.38941C20.6708 5.53129 20.7495 4.90431 20.8502 4.82978C21.8695 5.42937 22.6756 6.01505 23.5489 6.64953C24.4272 7.28767 25.2165 7.86115 26.1154 8.63348C26.0742 8.77121 25.4542 9.06282 24.6195 9.45539C23.1608 10.1415 21.0464 11.1359 20.2203 12.1562C19.6597 12.8533 18.4776 14.4376 17.1219 16.2703C15.7979 18.126 14.6563 19.7398 14.1666 20.4884C13.4516 21.5894 13.1591 23.9076 12.9574 25.5069C12.842 26.422 12.7562 27.1018 12.638 27.1836C11.6257 26.5673 10.8364 25.9939 9.95804 25.3557C9.08475 24.7212 8.27862 24.1356 7.39342 23.3515C7.43316 23.2326 8.00516 22.9641 8.78802 22.5966C10.2457 21.9123 12.4345 20.8847 13.2795 19.8412C13.8424 19.1461 15.0255 17.5637 16.3813 15.7323Z" fill="#339966"/>
<path d="M17.1187 15.7323C18.4746 17.5637 19.6576 19.1461 20.2205 19.8412C21.0655 20.8848 23.2543 21.9123 24.712 22.5966C25.4949 22.9641 26.0669 23.2326 26.1066 23.3515C25.2214 24.1356 24.4153 24.7212 23.542 25.3557C22.6637 25.9939 21.8743 26.5673 20.862 27.1836C20.7438 27.1018 20.658 26.422 20.5426 25.5069C20.3409 23.9076 20.0485 21.5894 19.3334 20.4884C18.8437 19.7398 17.7022 18.126 16.3782 16.2703C15.0224 14.4376 13.8403 12.8533 13.2797 12.1562C12.4536 11.1359 10.3392 10.1415 8.88051 9.4554C8.04586 9.06283 7.42586 8.77122 7.38462 8.63349C8.28349 7.86116 9.07281 7.28769 9.95114 6.64955C10.8244 6.01506 11.6306 5.42938 12.6498 4.82979C12.7506 4.90432 12.8292 5.5313 12.9368 6.38942C13.1372 7.98723 13.438 10.3864 14.1694 11.5125C14.6565 12.2627 15.7959 13.8768 17.1187 15.7323Z" fill="#339966"/>
<path d="M36.75 27.6925V4.9375H39.9268V27.6925H36.75Z" fill="#484848"/>
<path d="M50.498 28C48.8325 28 47.352 27.6515 46.0567 26.9545C44.7819 26.237 43.7743 25.2633 43.0341 24.0333C42.3145 22.8033 41.9546 21.3887 41.9546 19.7897C41.9546 18.5187 42.1602 17.3605 42.5715 16.315C42.9827 15.2695 43.5482 14.3675 44.2678 13.609C45.008 12.83 45.8819 12.2355 46.8894 11.8255C47.9175 11.395 49.0278 11.1797 50.2204 11.1797C51.269 11.1797 52.2457 11.3847 53.1504 11.7947C54.0551 12.1842 54.8365 12.7275 55.4944 13.4245C56.173 14.1215 56.687 14.9517 57.0366 15.9152C57.4067 16.8582 57.5814 17.8935 57.5609 19.021L57.53 20.374H44.2987L43.5893 17.8525H54.7851L54.3224 18.3752V17.6372C54.2607 16.9607 54.0346 16.356 53.6439 15.823C53.2532 15.29 52.7597 14.8697 52.1635 14.5622C51.5672 14.2547 50.9195 14.101 50.2204 14.101C49.1101 14.101 48.1745 14.3162 47.4137 14.7467C46.653 15.1567 46.0772 15.7717 45.6866 16.5917C45.2959 17.3912 45.1006 18.3855 45.1006 19.5745C45.1006 20.702 45.337 21.686 45.8099 22.5265C46.2828 23.3465 46.9511 23.982 47.8147 24.433C48.6783 24.884 49.6755 25.1095 50.8064 25.1095C51.6083 25.1095 52.3485 24.9762 53.027 24.7097C53.7261 24.4432 54.4766 23.9615 55.2785 23.2645L56.8823 25.5092C56.3889 26.0012 55.7823 26.4317 55.0626 26.8007C54.3636 27.1697 53.6131 27.467 52.8111 27.6925C52.0298 27.8975 51.2587 28 50.498 28Z" fill="#484848"/>
<path d="M70.2695 27.625L65.1059 20.8531L64.6503 20.2709L57.9375 11.5379H61.8862L66.9587 18.2179L67.4751 18.892L74.0967 27.625H70.2695ZM57.9679 27.625L64.2554 19.3517L66.1082 21.5885L61.6736 27.625H57.9679ZM67.6573 19.8419L65.926 17.6357L69.8443 11.5379H73.55L67.6573 19.8419Z" fill="#484848"/>
<path d="M76.0729 27.625V11.5379H79.2015V27.625H76.0729ZM77.5917 7.98346C76.9234 7.98346 76.4071 7.80982 76.0426 7.46255C75.6781 7.11527 75.4958 6.625 75.4958 5.99173C75.4958 5.39932 75.6781 4.91926 76.0426 4.55156C76.4273 4.18385 76.9437 4 77.5917 4C78.2599 4 78.7763 4.17364 79.1408 4.52091C79.5053 4.86819 79.6875 5.35846 79.6875 5.99173C79.6875 6.58414 79.4951 7.0642 79.1104 7.43191C78.7459 7.79961 78.2396 7.98346 77.5917 7.98346Z" fill="#484848"/>
<path d="M89.9239 28C88.4355 28 87.1 27.6332 85.9174 26.8997C84.7552 26.1662 83.8275 25.1678 83.1343 23.9045C82.4614 22.6413 82.125 21.2252 82.125 19.6562C82.125 18.0873 82.4614 16.6712 83.1343 15.408C83.8275 14.1447 84.7552 13.1463 85.9174 12.4128C87.1 11.6793 88.4355 11.3125 89.9239 11.3125C91.3511 11.3125 92.6458 11.6079 93.808 12.1988C94.9906 12.7693 95.8877 13.5538 96.4994 14.5522L94.7561 16.6916C94.4299 16.223 94.0119 15.7951 93.5022 15.408C92.9925 15.0208 92.4521 14.7152 91.8812 14.4911C91.3103 14.2669 90.7598 14.1549 90.2297 14.1549C89.251 14.1549 88.3743 14.3994 87.5995 14.8884C86.8451 15.357 86.2436 16.009 85.7951 16.8444C85.3465 17.6798 85.1222 18.6171 85.1222 19.6562C85.1222 20.6954 85.3567 21.6327 85.8256 22.4681C86.2946 23.2831 86.9165 23.9351 87.6913 24.4241C88.466 24.9131 89.3224 25.1576 90.2603 25.1576C90.8108 25.1576 91.3409 25.0659 91.8507 24.8826C92.3808 24.6992 92.8905 24.4241 93.3798 24.0573C93.8692 23.6906 94.3279 23.2423 94.7561 22.7126L96.4994 24.852C95.8469 25.7689 94.909 26.5228 93.6857 27.1137C92.4827 27.7046 91.2288 28 89.9239 28Z" fill="#484848"/>
<path d="M104.472 28C103.147 28 101.934 27.6332 100.833 26.8997C99.7523 26.1662 98.8858 25.1678 98.2333 23.9045C97.5809 22.6413 97.2547 21.215 97.2547 19.6257C97.2547 18.016 97.5809 16.5897 98.2333 15.3468C98.9062 14.0836 99.8033 13.0954 100.925 12.3822C102.067 11.6691 103.341 11.3125 104.748 11.3125C105.584 11.3125 106.348 11.4348 107.041 11.6793C107.735 11.9238 108.336 12.2701 108.846 12.7184C109.376 13.1463 109.804 13.6455 110.13 14.216C110.477 14.7865 110.691 15.3978 110.773 16.0498L110.069 15.8053V11.6487H113.25V27.6944H110.069V23.874L110.803 23.66C110.681 24.2102 110.426 24.7501 110.039 25.2799C109.672 25.7893 109.193 26.2477 108.601 26.6552C108.03 27.0627 107.388 27.3887 106.674 27.6332C105.981 27.8777 105.247 28 104.472 28ZM105.298 25.0965C106.256 25.0965 107.103 24.8622 107.837 24.3935C108.571 23.9249 109.142 23.2831 109.549 22.4681C109.978 21.6327 110.192 20.6852 110.192 19.6257C110.192 18.5865 109.978 17.6595 109.549 16.8444C109.142 16.0294 108.571 15.3876 107.837 14.919C107.103 14.4503 106.256 14.216 105.298 14.216C104.36 14.216 103.524 14.4503 102.79 14.919C102.077 15.3876 101.506 16.0294 101.078 16.8444C100.67 17.6595 100.466 18.5865 100.466 19.6257C100.466 20.6852 100.67 21.6327 101.078 22.4681C101.506 23.2831 102.077 23.9249 102.79 24.3935C103.524 24.8622 104.36 25.0965 105.298 25.0965Z" fill="#484848"/>
</svg>
