<svg width="117" height="32" viewBox="0 0 117 32" fill="none" xmlns="http://www.w3.org/2000/svg">
<path d="M16.1408 15.5667C18.3142 16.2514 20.2014 16.8363 21.0653 17.0677C22.3624 17.4153 24.7371 16.96 26.3186 16.6569C27.168 16.494 27.7886 16.3751 27.8906 16.4479C27.6353 17.6025 27.3274 18.5501 26.9938 19.5768C26.6583 20.6093 26.3568 21.5372 25.9001 22.6307C25.7564 22.6341 25.2874 22.1345 24.6562 21.4621C23.5529 20.2867 21.9537 18.5832 20.7281 18.1128C19.8919 17.795 18.0198 17.1604 15.8579 16.4373C13.6838 15.7515 11.7963 15.1646 10.933 14.9301C9.66495 14.5903 7.36988 15.0286 5.78648 15.3309C4.88048 15.5039 4.20748 15.6324 4.09317 15.5452C4.36641 14.3921 4.6679 13.4642 5.0034 12.4316C5.33696 11.405 5.64488 10.4574 6.11703 9.3732C6.24236 9.37426 6.6745 9.83529 7.26595 10.4663C8.36722 11.6411 10.0208 13.4053 11.2744 13.8864C12.1094 14.207 13.98 14.8432 16.1408 15.5667Z" fill="#990000"/>
<path d="M15.8593 15.5668C18.0201 14.8432 19.8906 14.2071 20.7256 13.8865C21.9792 13.4053 23.6328 11.6412 24.7341 10.4663C25.3255 9.8353 25.7577 9.37428 25.883 9.37321C26.3551 10.4574 26.6631 11.405 26.9966 12.4316C27.3321 13.4642 27.6336 14.3921 27.9069 15.5453C27.7925 15.6325 27.1195 15.5039 26.2135 15.3309C24.6301 15.0286 22.3351 14.5903 21.067 14.9302C20.2037 15.1646 18.3162 15.7516 16.1421 16.4373C13.9802 17.1604 12.1081 17.795 11.2719 18.1128C10.0463 18.5832 8.44715 20.2868 7.34387 21.4621C6.71259 22.1346 6.24366 22.6341 6.09993 22.6308C5.64317 21.5372 5.34168 20.6093 5.00619 19.5768C4.67262 18.5502 4.36471 17.6025 4.10943 16.4479C4.21144 16.3751 4.83204 16.494 5.68141 16.6569C7.26294 16.9601 9.63764 17.4153 10.9347 17.0677C11.7986 16.8363 13.6858 16.2515 15.8593 15.5668Z" fill="#990000"/>
<path d="M16.4555 16C16.4759 18.2787 16.5029 20.2542 16.5498 21.1474C16.62 22.4884 17.7868 24.6062 18.5639 26.0166C18.9812 26.7741 19.2861 27.3275 19.2484 27.4471C18.0714 27.5611 17.075 27.5611 15.9955 27.5611C14.9099 27.5611 13.9342 27.5611 12.753 27.4646C12.7054 27.3289 13.0356 26.7286 13.4801 25.9204C14.257 24.5079 15.383 22.4606 15.4517 21.1496C15.4955 20.2562 15.5205 18.2796 15.5402 16C15.5205 13.7205 15.4955 11.7439 15.4517 10.8504C15.383 9.53943 14.257 7.49212 13.4801 6.07965C13.0356 5.27146 12.7054 4.67111 12.753 4.53544C13.9342 4.43896 14.9099 4.43896 15.9955 4.43896C17.075 4.43896 18.0714 4.43896 19.2484 4.55299C19.2861 4.6725 18.9812 5.22596 18.5639 5.98344C17.7868 7.39387 16.62 9.51167 16.5498 10.8526C16.5029 11.7458 16.4759 13.7214 16.4555 16Z" fill="#006699"/>
<path d="M15.6315 15.7322C16.9543 13.8768 18.0937 12.2627 18.5808 11.5125C19.3122 10.3864 19.613 7.98721 19.8134 6.3894C19.921 5.53128 19.9996 4.9043 20.1004 4.82977C21.1196 5.42936 21.9258 6.01504 22.7991 6.64952C23.6774 7.28767 24.4667 7.86114 25.3656 8.63347C25.3243 8.7712 24.7043 9.06281 23.8697 9.45538C22.411 10.1415 20.2966 11.1359 19.4705 12.1562C18.9099 12.8533 17.7278 14.4376 16.372 16.2703C15.048 18.126 13.9065 19.7398 13.4168 20.4884C12.7017 21.5894 12.4093 23.9075 12.2076 25.5069C12.0922 26.422 12.0064 27.1018 11.8882 27.1835C10.8759 26.5673 10.0865 25.9939 9.20822 25.3557C8.33493 24.7212 7.52881 24.1355 6.6436 23.3515C6.68334 23.2326 7.25534 22.9641 8.03821 22.5966C9.4959 21.9123 11.6847 20.8847 12.5297 19.8412C13.0926 19.1461 14.2756 17.5637 15.6315 15.7322Z" fill="#339966"/>
<path d="M16.3685 15.7323C17.7244 17.5637 18.9074 19.1461 19.4703 19.8412C20.3154 20.8847 22.5041 21.9123 23.9618 22.5966C24.7447 22.9641 25.3167 23.2326 25.3564 23.3515C24.4712 24.1356 23.6651 24.7212 22.7918 25.3557C21.9135 25.9939 21.1242 26.5673 20.1119 27.1836C19.9936 27.1018 19.9079 26.422 19.7924 25.5069C19.5907 23.9075 19.2983 21.5894 18.5832 20.4884C18.0935 19.7398 16.952 18.126 15.628 16.2703C14.2722 14.4376 13.0901 12.8533 12.5295 12.1562C11.7034 11.1359 9.58905 10.1415 8.13033 9.45539C7.29568 9.06282 6.67567 8.7712 6.63444 8.63347C7.53331 7.86115 8.32263 7.28768 9.20096 6.64953C10.0743 6.01505 10.8804 5.42937 11.8996 4.82978C12.0004 4.9043 12.079 5.53129 12.1866 6.38941C12.387 7.98722 12.6878 10.3864 13.4192 11.5125C13.9063 12.2627 15.0457 13.8768 16.3685 15.7323Z" fill="#339966"/>
<path d="M36 27.6925V4.9375H39.1768V27.6925H36Z" fill="#484848"/>
<path d="M49.748 28C48.0825 28 46.602 27.6515 45.3067 26.9545C44.0319 26.237 43.0243 25.2633 42.2841 24.0333C41.5645 22.8033 41.2046 21.3887 41.2046 19.7897C41.2046 18.5187 41.4102 17.3605 41.8215 16.315C42.2327 15.2695 42.7982 14.3675 43.5178 13.609C44.258 12.83 45.1319 12.2355 46.1394 11.8255C47.1675 11.395 48.2778 11.1797 49.4704 11.1797C50.519 11.1797 51.4957 11.3847 52.4004 11.7947C53.3051 12.1842 54.0865 12.7275 54.7444 13.4245C55.423 14.1215 55.937 14.9517 56.2866 15.9152C56.6567 16.8582 56.8314 17.8935 56.8109 19.021L56.78 20.374H43.5487L42.8393 17.8525H54.0351L53.5724 18.3752V17.6372C53.5107 16.9607 53.2846 16.356 52.8939 15.823C52.5032 15.29 52.0097 14.8697 51.4135 14.5622C50.8172 14.2547 50.1695 14.101 49.4704 14.101C48.3601 14.101 47.4245 14.3162 46.6637 14.7467C45.903 15.1567 45.3272 15.7717 44.9366 16.5917C44.5459 17.3912 44.3506 18.3855 44.3506 19.5745C44.3506 20.702 44.587 21.686 45.0599 22.5265C45.5328 23.3465 46.2011 23.982 47.0647 24.433C47.9283 24.884 48.9255 25.1095 50.0564 25.1095C50.8583 25.1095 51.5985 24.9762 52.277 24.7097C52.9761 24.4432 53.7266 23.9615 54.5285 23.2645L56.1323 25.5092C55.6389 26.0012 55.0323 26.4317 54.3126 26.8007C53.6136 27.1697 52.8631 27.467 52.0611 27.6925C51.2798 27.8975 50.5087 28 49.748 28Z" fill="#484848"/>
<path d="M69.5195 27.625L64.3559 20.8531L63.9003 20.2709L57.1875 11.5379H61.1362L66.2087 18.2179L66.7251 18.892L73.3467 27.625H69.5195ZM57.2179 27.625L63.5054 19.3517L65.3582 21.5885L60.9236 27.625H57.2179ZM66.9073 19.8419L65.176 17.6357L69.0943 11.5379H72.8L66.9073 19.8419Z" fill="#484848"/>
<path d="M75.3229 27.625V11.5379H78.4515V27.625H75.3229ZM76.8417 7.98346C76.1734 7.98346 75.6571 7.80982 75.2926 7.46255C74.9281 7.11527 74.7458 6.625 74.7458 5.99173C74.7458 5.39932 74.9281 4.91926 75.2926 4.55156C75.6773 4.18385 76.1937 4 76.8417 4C77.5099 4 78.0263 4.17364 78.3908 4.52091C78.7553 4.86819 78.9375 5.35846 78.9375 5.99173C78.9375 6.58414 78.7451 7.0642 78.3604 7.43191C77.9959 7.79961 77.4896 7.98346 76.8417 7.98346Z" fill="#484848"/>
<path d="M89.1739 28C87.6855 28 86.35 27.6332 85.1674 26.8997C84.0052 26.1662 83.0775 25.1678 82.3843 23.9045C81.7114 22.6413 81.375 21.2252 81.375 19.6562C81.375 18.0873 81.7114 16.6712 82.3843 15.408C83.0775 14.1447 84.0052 13.1463 85.1674 12.4128C86.35 11.6793 87.6855 11.3125 89.1739 11.3125C90.6011 11.3125 91.8958 11.6079 93.058 12.1988C94.2406 12.7693 95.1377 13.5538 95.7494 14.5522L94.0061 16.6916C93.6799 16.223 93.2619 15.7951 92.7522 15.408C92.2425 15.0208 91.7021 14.7152 91.1312 14.4911C90.5603 14.2669 90.0098 14.1549 89.4797 14.1549C88.501 14.1549 87.6243 14.3994 86.8495 14.8884C86.0951 15.357 85.4936 16.009 85.0451 16.8444C84.5965 17.6798 84.3722 18.6171 84.3722 19.6562C84.3722 20.6954 84.6067 21.6327 85.0756 22.4681C85.5446 23.2831 86.1665 23.9351 86.9413 24.4241C87.716 24.9131 88.5724 25.1576 89.5103 25.1576C90.0608 25.1576 90.5909 25.0659 91.1007 24.8826C91.6308 24.6992 92.1405 24.4241 92.6298 24.0573C93.1192 23.6906 93.5779 23.2423 94.0061 22.7126L95.7494 24.852C95.0969 25.7689 94.159 26.5228 92.9357 27.1137C91.7327 27.7046 90.4788 28 89.1739 28Z" fill="#484848"/>
<path d="M103.722 28C102.397 28 101.184 27.6332 100.083 26.8997C99.0023 26.1662 98.1358 25.1678 97.4833 23.9045C96.8309 22.6413 96.5047 21.215 96.5047 19.6257C96.5047 18.016 96.8309 16.5897 97.4833 15.3468C98.1562 14.0836 99.0533 13.0954 100.175 12.3822C101.317 11.6691 102.591 11.3125 103.998 11.3125C104.834 11.3125 105.598 11.4348 106.291 11.6793C106.985 11.9238 107.586 12.2701 108.096 12.7184C108.626 13.1463 109.054 13.6455 109.38 14.216C109.727 14.7865 109.941 15.3978 110.023 16.0498L109.319 15.8053V11.6487H112.5V27.6944H109.319V23.874L110.053 23.66C109.931 24.2102 109.676 24.7501 109.289 25.2799C108.922 25.7893 108.443 26.2477 107.851 26.6552C107.28 27.0627 106.638 27.3887 105.924 27.6332C105.231 27.8777 104.497 28 103.722 28ZM104.548 25.0965C105.506 25.0965 106.353 24.8622 107.087 24.3935C107.821 23.9249 108.392 23.2831 108.799 22.4681C109.228 21.6327 109.442 20.6852 109.442 19.6257C109.442 18.5865 109.228 17.6595 108.799 16.8444C108.392 16.0294 107.821 15.3876 107.087 14.919C106.353 14.4503 105.506 14.216 104.548 14.216C103.61 14.216 102.774 14.4503 102.04 14.919C101.327 15.3876 100.756 16.0294 100.328 16.8444C99.9199 17.6595 99.716 18.5865 99.716 19.6257C99.716 20.6852 99.9199 21.6327 100.328 22.4681C100.756 23.2831 101.327 23.9249 102.04 24.3935C102.774 24.8622 103.61 25.0965 104.548 25.0965Z" fill="#484848"/>
</svg>
