<svg width="118" height="32" viewBox="0 0 118 32" fill="none" xmlns="http://www.w3.org/2000/svg">
<path d="M27.7968 19.6344C27.7955 19.6382 27.7943 19.642 27.7931 19.6459C27.4374 20.7582 27.1177 21.7577 26.6386 22.9374C26.4935 22.9435 26.0286 22.416 25.4027 21.7059C24.3089 20.4649 22.7234 18.6661 21.4944 18.1826C20.6559 17.8561 18.7774 17.2076 16.6079 16.4692C14.4252 15.7709 12.5299 15.1736 11.6626 14.9369C10.3886 14.5941 8.06525 15.1025 6.46235 15.4532C5.5452 15.6539 4.86391 15.803 4.75 15.7115C5.04489 14.471 5.36455 13.4714 5.72025 12.3592C5.72148 12.3553 5.72271 12.3515 5.72394 12.3476C5.72405 12.3472 5.72417 12.3468 5.7243 12.3464C5.72446 12.3459 5.72463 12.3454 5.72481 12.3449C6.07672 11.2445 6.4025 10.2274 6.89486 9.0625C7.02131 9.06153 7.44975 9.54834 8.03612 10.2146C9.12796 11.4552 10.7674 13.318 12.0245 13.8125C12.8617 14.142 14.7386 14.7922 16.907 15.5311C19.0891 16.2284 20.984 16.8234 21.8521 17.0568C23.1552 17.4075 25.5592 16.8795 27.1602 16.5279C28.02 16.3391 28.6483 16.2011 28.75 16.2774C28.4744 17.5139 28.1496 18.5313 27.7976 19.6317C27.7975 19.6322 27.7974 19.6327 27.7972 19.6332C27.7971 19.6336 27.7969 19.634 27.7968 19.6344Z" fill="#990000"/>
<path d="M27.7764 12.3489C27.7775 12.3523 27.7786 12.3557 27.7797 12.3592C28.1354 13.4714 28.4551 14.471 28.75 15.7115C28.6361 15.803 27.9548 15.654 27.0376 15.4533C25.4347 15.1025 23.1114 14.5941 21.8374 14.9369C20.9702 15.1735 19.0756 15.7706 16.8935 16.4688C14.7234 17.2074 12.8443 17.8561 12.0057 18.1826C10.7766 18.6661 9.19114 20.4649 8.09728 21.7059C7.47139 22.416 7.00646 22.9435 6.86136 22.9374C6.38227 21.7577 6.06261 20.7582 5.70691 19.6459C5.70581 19.6425 5.7047 19.639 5.7036 19.6356C5.70326 19.6348 5.70296 19.634 5.7027 19.6332C5.7024 19.6322 5.70214 19.6313 5.70191 19.6303C5.35017 18.5304 5.02548 17.5133 4.75 16.2774C4.85174 16.2011 5.47999 16.339 6.33983 16.5279C7.94086 16.8795 10.3448 17.4075 11.648 17.0568C12.5158 16.8234 14.4102 16.2286 16.5917 15.5316C18.7606 14.7925 20.6381 14.1421 21.4755 13.8125C22.7326 13.318 24.372 11.4552 25.4639 10.2146C26.0502 9.54834 26.4787 9.06153 26.6051 9.0625C27.0973 10.2269 27.423 11.2437 27.7748 12.3436C27.7751 12.3445 27.7755 12.3455 27.7758 12.3464C27.7761 12.3472 27.7763 12.348 27.7764 12.3489Z" fill="#990000"/>
<path d="M26.6052 19.6854C23.847 18.8936 14.0093 15.6097 11.6667 14.9675C9.6625 14.4257 5.06318 15.9989 4.75 15.7461C5.04506 14.4991 5.36491 13.4944 5.72082 12.3763C6.0747 11.2647 6.40135 10.2385 6.89611 9.0625C7.25823 9.0597 10.0954 13.0732 12.0287 13.8373C14.2911 14.7317 24.1411 17.9772 26.8312 18.9828C27.1579 19.0911 27.8522 19.5578 27.8107 19.6882C27.7753 19.7993 26.9476 19.7446 26.6189 19.6498L26.6052 19.6854Z" fill="#990000"/>
<path d="M27.7764 12.3489C27.7775 12.3523 27.7786 12.3557 27.7797 12.3592C28.1354 13.4714 28.4551 14.471 28.75 15.7115C28.6361 15.803 27.9548 15.654 27.0376 15.4533C25.4347 15.1025 23.1114 14.5941 21.8374 14.9369C20.9702 15.1735 19.0756 15.7706 16.8935 16.4688C14.7234 17.2074 12.8443 17.8561 12.0057 18.1826C10.7766 18.6661 9.19114 20.4649 8.09728 21.7059C7.47139 22.416 7.00646 22.9435 6.86136 22.9374C6.38227 21.7577 6.06261 20.7582 5.70691 19.6459C5.70581 19.6425 5.7047 19.639 5.7036 19.6356C5.70326 19.6348 5.70296 19.634 5.7027 19.6332C5.7024 19.6322 5.70214 19.6313 5.70191 19.6303C5.35017 18.5304 5.02548 17.5133 4.75 16.2774C4.85174 16.2011 5.47999 16.339 6.33983 16.5279C7.94086 16.8795 10.3448 17.4075 11.648 17.0568C12.5158 16.8234 14.4102 16.2286 16.5917 15.5316C18.7606 14.7925 20.6381 14.1421 21.4755 13.8125C22.7326 13.318 24.372 11.4552 25.4639 10.2146C26.0502 9.54834 26.4787 9.06153 26.6051 9.0625C27.0973 10.2269 27.423 11.2437 27.7748 12.3436C27.7751 12.3445 27.7755 12.3455 27.7758 12.3464C27.7761 12.3472 27.7763 12.348 27.7764 12.3489Z" fill="#990000"/>
<path d="M17.2228 16C17.244 18.3651 17.272 20.4157 17.3206 21.3428C17.3935 22.7347 18.6046 24.9329 19.4112 26.3969C19.8444 27.1831 20.1609 27.7576 20.1217 27.8816C18.9 28 17.8658 28 16.7453 28C15.6185 28 14.6058 28 13.3797 27.8999C13.3303 27.759 13.6731 27.1359 14.1344 26.297C14.9408 24.8309 16.1096 22.7059 16.1808 21.3451C16.2263 20.4177 16.2523 18.3661 16.2727 16C16.2523 13.6339 16.2263 11.5823 16.1808 10.6549C16.1096 9.29412 14.9408 7.16908 14.1344 5.70297C13.6731 4.8641 13.3303 4.24096 13.3797 4.10014C14.6057 4 15.6184 4 16.7453 4C17.8658 4 18.9 4 20.1217 4.11835C20.1609 4.24241 19.8444 4.81688 19.4112 5.60312C18.6046 7.0671 17.3935 9.2653 17.3206 10.6572C17.272 11.5843 17.244 13.6349 17.2228 16Z" fill="#006699"/>
<path d="M23.5933 25.6249C23.5903 25.6271 23.5874 25.6293 23.5844 25.6315C22.6514 26.3259 21.8129 26.9499 20.7408 27.625C20.6197 27.5424 20.5486 26.8308 20.4529 25.8729C20.2856 24.1988 20.0431 21.7723 19.3272 20.6358C18.8358 19.8617 17.6858 18.1939 16.3522 16.2772C14.9909 14.3942 13.8043 12.7673 13.2395 12.052C12.4055 11.0033 10.2277 10.0172 8.72514 9.33685C7.86542 8.94758 7.22679 8.65842 7.1875 8.51491C8.14554 7.67901 8.98401 7.05497 9.91702 6.36056C9.91986 6.35844 9.92271 6.35632 9.92555 6.35421C9.92617 6.35364 9.92682 6.35311 9.92748 6.35262C9.92825 6.35204 9.92906 6.3515 9.92989 6.35098C10.8526 5.66423 11.706 5.02976 12.7799 4.375C12.883 4.45049 12.9481 5.10679 13.0372 6.00504C13.2031 7.67757 13.4522 10.1889 14.1845 11.3515C14.673 12.1271 15.8206 13.7952 17.1529 15.7115C18.5144 17.5934 19.7023 19.2184 20.2696 19.9315C21.1226 21.0042 23.3771 22.023 24.8787 22.7015C25.6851 23.0659 26.2743 23.3321 26.3125 23.4559C25.3729 24.2997 24.5202 24.935 23.5977 25.6216C23.5969 25.6223 23.5962 25.6229 23.5954 25.6235C23.5947 25.624 23.594 25.6244 23.5933 25.6249Z" fill="#339966"/>
<path d="M23.5741 6.35391C23.577 6.35613 23.58 6.35834 23.583 6.36055C24.516 7.05496 25.3545 7.67901 26.3125 8.51491C26.2732 8.65842 25.6346 8.94758 24.7749 9.33685C23.2723 10.0172 21.0945 11.0033 20.2605 12.052C19.6954 12.7677 18.5079 14.3958 17.1457 16.2801C15.813 18.1955 14.6639 19.8621 14.1728 20.6358C13.4569 21.7723 13.2144 24.1988 13.0471 25.8729C12.9514 26.8308 12.8803 27.5424 12.7592 27.625C11.6871 26.9499 10.8486 26.3259 9.91559 25.6315C9.91254 25.6292 9.90949 25.6269 9.90644 25.6247C9.90582 25.6243 9.90522 25.6239 9.90464 25.6235C9.90396 25.6229 9.90329 25.6224 9.90264 25.6219C8.97995 24.9351 8.12722 24.2998 7.1875 23.4559C7.22573 23.3322 7.81493 23.0659 8.62133 22.7015C10.1228 22.023 12.3774 21.0042 13.2304 19.9315C13.7979 19.218 14.9867 17.5918 16.349 15.7087C17.6805 13.7936 18.8272 12.1268 19.3155 11.3514C20.0478 10.1889 20.2969 7.67757 20.4628 6.00504C20.5519 5.10679 20.617 4.45049 20.7201 4.375C21.7941 5.02981 22.6475 5.66433 23.5703 6.35114C23.571 6.35159 23.5717 6.35207 23.5724 6.35256C23.573 6.35299 23.5735 6.35344 23.5741 6.35391Z" fill="#339966"/>
<path d="M17.2228 16C17.244 18.3651 17.272 20.4157 17.3206 21.3428C17.3935 22.7347 18.6046 24.9329 19.4112 26.3969C19.8444 27.1831 20.1609 27.7576 20.1217 27.8816C18.9 28 17.8658 28 16.7453 28C15.6185 28 14.6058 28 13.3797 27.8999C13.3303 27.759 13.6731 27.1359 14.1344 26.297C14.9408 24.8309 16.1096 22.7059 16.1808 21.3451C16.2263 20.4177 16.2523 18.3661 16.2727 16C16.2523 13.6339 16.2263 11.5823 16.1808 10.6549C16.1096 9.29412 14.9408 7.16908 14.1344 5.70297C13.6731 4.8641 13.3303 4.24096 13.3797 4.10014C14.6057 4 15.6184 4 16.7453 4C17.8658 4 18.9 4 20.1217 4.11835C20.1609 4.24241 19.8444 4.81688 19.4112 5.60312C18.6046 7.0671 17.3935 9.2653 17.3206 10.6572C17.272 11.5843 17.244 13.6349 17.2228 16Z" fill="#006699"/>
<path d="M23.5933 25.6249C23.5903 25.6271 23.5874 25.6293 23.5844 25.6315C22.6514 26.3259 21.8129 26.9499 20.7408 27.625C20.6197 27.5424 20.5486 26.8308 20.4529 25.8729C20.2856 24.1988 20.0431 21.7723 19.3272 20.6358C18.8358 19.8617 17.6858 18.1939 16.3522 16.2772C14.9909 14.3942 13.8043 12.7673 13.2395 12.052C12.4055 11.0033 10.2277 10.0172 8.72514 9.33685C7.86542 8.94758 7.22679 8.65842 7.1875 8.51491C8.14554 7.67901 8.98401 7.05497 9.91702 6.36056C9.91986 6.35844 9.92271 6.35632 9.92555 6.35421C9.92617 6.35364 9.92682 6.35311 9.92748 6.35262C9.92825 6.35204 9.92906 6.3515 9.92989 6.35098C10.8526 5.66423 11.706 5.02976 12.7799 4.375C12.883 4.45049 12.9481 5.10679 13.0372 6.00504C13.2031 7.67757 13.4522 10.1889 14.1845 11.3515C14.673 12.1271 15.8206 13.7952 17.1529 15.7115C18.5144 17.5934 19.7023 19.2184 20.2696 19.9315C21.1226 21.0042 23.3771 22.023 24.8787 22.7015C25.6851 23.0659 26.2743 23.3321 26.3125 23.4559C25.3729 24.2997 24.5202 24.935 23.5977 25.6216C23.5969 25.6223 23.5962 25.6229 23.5954 25.6235C23.5947 25.624 23.594 25.6244 23.5933 25.6249Z" fill="#339966"/>
<path d="M23.5741 6.35391C23.577 6.35613 23.58 6.35834 23.583 6.36055C24.516 7.05496 25.3545 7.67901 26.3125 8.51491C26.2732 8.65842 25.6346 8.94758 24.7749 9.33685C23.2723 10.0172 21.0945 11.0033 20.2605 12.052C19.6954 12.7677 18.5079 14.3958 17.1457 16.2801C15.813 18.1955 14.6639 19.8621 14.1728 20.6358C13.4569 21.7723 13.2144 24.1988 13.0471 25.8729C12.9514 26.8308 12.8803 27.5424 12.7592 27.625C11.6871 26.9499 10.8486 26.3259 9.91559 25.6315C9.91254 25.6292 9.90949 25.6269 9.90644 25.6247C9.90582 25.6243 9.90522 25.6239 9.90464 25.6235C9.90396 25.6229 9.90329 25.6224 9.90264 25.6219C8.97995 24.9351 8.12722 24.2998 7.1875 23.4559C7.22573 23.3322 7.81493 23.0659 8.62133 22.7015C10.1228 22.023 12.3774 21.0042 13.2304 19.9315C13.7979 19.218 14.9867 17.5918 16.349 15.7087C17.6805 13.7936 18.8272 12.1268 19.3155 11.3514C20.0478 10.1889 20.2969 7.67757 20.4628 6.00504C20.5519 5.10679 20.617 4.45049 20.7201 4.375C21.7941 5.02981 22.6475 5.66433 23.5703 6.35114C23.571 6.35159 23.5717 6.35207 23.5724 6.35256C23.573 6.35299 23.5735 6.35344 23.5741 6.35391Z" fill="#339966"/>
<path d="M36.75 27.6925V4.9375H39.9268V27.6925H36.75Z" fill="#484848"/>
<path d="M50.498 28C48.8325 28 47.352 27.6515 46.0567 26.9545C44.7819 26.237 43.7743 25.2633 43.0341 24.0333C42.3145 22.8033 41.9546 21.3887 41.9546 19.7897C41.9546 18.5187 42.1602 17.3605 42.5715 16.315C42.9827 15.2695 43.5482 14.3675 44.2678 13.609C45.008 12.83 45.8819 12.2355 46.8894 11.8255C47.9175 11.395 49.0278 11.1797 50.2204 11.1797C51.269 11.1797 52.2457 11.3847 53.1504 11.7947C54.0551 12.1842 54.8365 12.7275 55.4944 13.4245C56.173 14.1215 56.687 14.9517 57.0366 15.9152C57.4067 16.8582 57.5814 17.8935 57.5609 19.021L57.53 20.374H44.2987L43.5893 17.8525H54.7851L54.3224 18.3752V17.6372C54.2607 16.9607 54.0346 16.356 53.6439 15.823C53.2532 15.29 52.7597 14.8697 52.1635 14.5622C51.5672 14.2547 50.9195 14.101 50.2204 14.101C49.1101 14.101 48.1745 14.3162 47.4137 14.7467C46.653 15.1567 46.0772 15.7717 45.6866 16.5917C45.2959 17.3912 45.1006 18.3855 45.1006 19.5745C45.1006 20.702 45.337 21.686 45.8099 22.5265C46.2828 23.3465 46.9511 23.982 47.8147 24.433C48.6783 24.884 49.6755 25.1095 50.8064 25.1095C51.6083 25.1095 52.3485 24.9762 53.027 24.7097C53.7261 24.4432 54.4766 23.9615 55.2785 23.2645L56.8823 25.5092C56.3889 26.0012 55.7823 26.4317 55.0626 26.8007C54.3636 27.1697 53.6131 27.467 52.8111 27.6925C52.0298 27.8975 51.2587 28 50.498 28Z" fill="#484848"/>
<path d="M70.2695 27.625L65.1059 20.8531L64.6503 20.2709L57.9375 11.5379H61.8862L66.9587 18.2179L67.4751 18.892L74.0967 27.625H70.2695ZM57.9679 27.625L64.2554 19.3517L66.1082 21.5885L61.6736 27.625H57.9679ZM67.6573 19.8419L65.926 17.6357L69.8443 11.5379H73.55L67.6573 19.8419Z" fill="#484848"/>
<path d="M76.0729 27.625V11.5379H79.2015V27.625H76.0729ZM77.5917 7.98346C76.9234 7.98346 76.4071 7.80982 76.0426 7.46255C75.6781 7.11527 75.4958 6.625 75.4958 5.99173C75.4958 5.39932 75.6781 4.91926 76.0426 4.55156C76.4273 4.18385 76.9437 4 77.5917 4C78.2599 4 78.7763 4.17364 79.1408 4.52091C79.5053 4.86819 79.6875 5.35846 79.6875 5.99173C79.6875 6.58414 79.4951 7.0642 79.1104 7.43191C78.7459 7.79961 78.2396 7.98346 77.5917 7.98346Z" fill="#484848"/>
<path d="M89.9239 28C88.4355 28 87.1 27.6332 85.9174 26.8997C84.7552 26.1662 83.8275 25.1678 83.1343 23.9045C82.4614 22.6413 82.125 21.2252 82.125 19.6562C82.125 18.0873 82.4614 16.6712 83.1343 15.408C83.8275 14.1447 84.7552 13.1463 85.9174 12.4128C87.1 11.6793 88.4355 11.3125 89.9239 11.3125C91.3511 11.3125 92.6458 11.6079 93.808 12.1988C94.9906 12.7693 95.8877 13.5538 96.4994 14.5522L94.7561 16.6916C94.4299 16.223 94.0119 15.7951 93.5022 15.408C92.9925 15.0208 92.4521 14.7152 91.8812 14.4911C91.3103 14.2669 90.7598 14.1549 90.2297 14.1549C89.251 14.1549 88.3743 14.3994 87.5995 14.8884C86.8451 15.357 86.2436 16.009 85.7951 16.8444C85.3465 17.6798 85.1222 18.6171 85.1222 19.6562C85.1222 20.6954 85.3567 21.6327 85.8256 22.4681C86.2946 23.2831 86.9165 23.9351 87.6913 24.4241C88.466 24.9131 89.3224 25.1576 90.2603 25.1576C90.8108 25.1576 91.3409 25.0659 91.8507 24.8826C92.3808 24.6992 92.8905 24.4241 93.3798 24.0573C93.8692 23.6906 94.3279 23.2423 94.7561 22.7126L96.4994 24.852C95.8469 25.7689 94.909 26.5228 93.6857 27.1137C92.4827 27.7046 91.2288 28 89.9239 28Z" fill="#484848"/>
<path d="M104.472 28C103.147 28 101.934 27.6332 100.833 26.8997C99.7523 26.1662 98.8858 25.1678 98.2333 23.9045C97.5809 22.6413 97.2547 21.215 97.2547 19.6257C97.2547 18.016 97.5809 16.5897 98.2333 15.3468C98.9062 14.0836 99.8033 13.0954 100.925 12.3822C102.067 11.6691 103.341 11.3125 104.748 11.3125C105.584 11.3125 106.348 11.4348 107.041 11.6793C107.735 11.9238 108.336 12.2701 108.846 12.7184C109.376 13.1463 109.804 13.6455 110.13 14.216C110.477 14.7865 110.691 15.3978 110.773 16.0498L110.069 15.8053V11.6487H113.25V27.6944H110.069V23.874L110.803 23.66C110.681 24.2102 110.426 24.7501 110.039 25.2799C109.672 25.7893 109.193 26.2477 108.601 26.6552C108.03 27.0627 107.388 27.3887 106.674 27.6332C105.981 27.8777 105.247 28 104.472 28ZM105.298 25.0965C106.257 25.0965 107.103 24.8622 107.837 24.3935C108.571 23.9249 109.142 23.2831 109.549 22.4681C109.978 21.6327 110.192 20.6852 110.192 19.6257C110.192 18.5865 109.978 17.6595 109.549 16.8444C109.142 16.0294 108.571 15.3876 107.837 14.919C107.103 14.4503 106.257 14.216 105.298 14.216C104.36 14.216 103.524 14.4503 102.79 14.919C102.077 15.3876 101.506 16.0294 101.078 16.8444C100.67 17.6595 100.466 18.5865 100.466 19.6257C100.466 20.6852 100.67 21.6327 101.078 22.4681C101.506 23.2831 102.077 23.9249 102.79 24.3935C103.524 24.8622 104.36 25.0965 105.298 25.0965Z" fill="#484848"/>
</svg>
