<svg width="21" height="21" viewBox="0 0 21 21" fill="none" xmlns="http://www.w3.org/2000/svg">
<g id="Icon" clip-path="url(#clip0_1900_970)">
<path id="Union" fill-rule="evenodd" clip-rule="evenodd" d="M8.50014 19.4996C8.50014 20.0519 8.94786 20.4996 9.50014 20.4996H11.5001C12.0524 20.4996 12.5001 20.0519 12.5001 19.4996V18.4996H8.50014V19.4996ZM17.5001 7.4996C17.4997 4.34034 15.3831 1.57292 12.3342 0.745165C9.28531 -0.0825853 6.05982 1.23448 4.46174 3.95975C2.86367 6.68503 3.28912 10.143 5.50014 12.3996C5.50014 12.3996 7.50014 14.4996 7.50014 15.4996V16.4996C7.50014 17.0519 7.94786 17.4996 8.50014 17.4996H12.5001C13.0524 17.4996 13.5001 17.0519 13.5001 16.4996V15.4996C13.5001 14.4996 15.5001 12.3996 15.5001 12.3996C16.7824 11.0909 17.5004 9.33173 17.5001 7.4996Z" fill="#202122"/>
</g>
<defs>
<clipPath id="clip0_1900_970">
<rect width="20" height="20" fill="white" transform="translate(0.5 0.5)"/>
</clipPath>
</defs>
</svg>
