<svg width="21" height="20" viewBox="0 0 21 20" fill="none" xmlns="http://www.w3.org/2000/svg">
<g id="Interactions / Lightbulb ">
<path id="Union" fill-rule="evenodd" clip-rule="evenodd" d="M8.50014 18.9996C8.50014 19.5519 8.94786 19.9996 9.50014 19.9996H11.5001C12.0524 19.9996 12.5001 19.5519 12.5001 18.9996V17.9996H8.50014V18.9996ZM17.5001 6.9996C17.4997 3.84034 15.3831 1.07292 12.3342 0.245165C9.28531 -0.582585 6.05982 0.734485 4.46174 3.45975C2.86367 6.18503 3.28912 9.64299 5.50014 11.8996C5.50014 11.8996 7.50014 13.9996 7.50014 14.9996V15.9996C7.50014 16.5519 7.94786 16.9996 8.50014 16.9996H12.5001C13.0524 16.9996 13.5001 16.5519 13.5001 15.9996V14.9996C13.5001 13.9996 15.5001 11.8996 15.5001 11.8996C16.7824 10.5909 17.5004 8.83173 17.5001 6.9996Z" fill="#EAECF0"/>
</g>
</svg>
