<svg width="18" height="20" viewBox="0 0 18 20" fill="none" xmlns="http://www.w3.org/2000/svg">
<g filter="url(#filter0_d_7517_92107)">
<path fill-rule="evenodd" clip-rule="evenodd" d="M3.59961 2.79951C3.59961 1.8054 4.4055 0.999512 5.39961 0.999512H12.5996C13.5937 0.999512 14.3996 1.8054 14.3996 2.79951V7.05828L10.345 9.99951L14.3996 12.9407V17.1995C14.3996 18.1936 13.5937 18.9995 12.5996 18.9995H5.39961C4.4055 18.9995 3.59961 18.1936 3.59961 17.1995V12.9407L7.65425 9.99951L3.59961 7.05828V2.79951ZM12.5996 5.31443V2.89425H5.39961V5.31443H12.5996ZM8.99961 11.2741L5.39961 13.7846V17.1048H12.5996V13.7846L8.99961 11.2741Z" fill="#88A3E8"/>
</g>
<defs>
<filter id="filter0_d_7517_92107" x="-1" y="-0.000488281" width="20" height="20.0005" filterUnits="userSpaceOnUse" color-interpolation-filters="sRGB">
<feFlood flood-opacity="0" result="BackgroundImageFix"/>
<feColorMatrix in="SourceAlpha" type="matrix" values="0 0 0 0 0 0 0 0 0 0 0 0 0 0 0 0 0 0 127 0" result="hardAlpha"/>
<feMorphology radius="1" operator="dilate" in="SourceAlpha" result="effect1_dropShadow_7517_92107"/>
<feOffset/>
<feColorMatrix type="matrix" values="0 0 0 0 0.447059 0 0 0 0 0.466667 0 0 0 0 0.490196 0 0 0 1 0"/>
<feBlend mode="normal" in2="BackgroundImageFix" result="effect1_dropShadow_7517_92107"/>
<feBlend mode="normal" in="SourceGraphic" in2="effect1_dropShadow_7517_92107" result="shape"/>
</filter>
</defs>
</svg>
