<svg width="64" height="65" viewBox="0 0 64 65" fill="none" xmlns="http://www.w3.org/2000/svg">
<g id="Sad Smiley">
<g id=":)">
<path d="M19.6399 49.0537C18.3639 49.0537 17.2684 48.6112 16.3533 47.7262C15.4511 46.8285 15 45.7538 15 44.5022C15 43.2631 15.4511 42.2011 16.3533 41.3161C17.2684 40.4311 18.3639 39.9885 19.6399 39.9885C20.8772 39.9885 21.9598 40.4311 22.8878 41.3161C23.8158 42.2011 24.2798 43.2631 24.2798 44.5022C24.2798 45.3366 24.0607 46.1015 23.6224 46.7969C23.1971 47.4797 22.6365 48.0296 21.9405 48.4469C21.2445 48.8514 20.4776 49.0537 19.6399 49.0537ZM19.6399 28.6476C18.3639 28.6476 17.2684 28.2051 16.3533 27.32C15.4511 26.435 15 25.3603 15 24.096C15 22.857 15.4511 21.8013 16.3533 20.9289C17.2684 20.0439 18.3639 19.6013 19.6399 19.6013C20.8772 19.6013 21.9598 20.0439 22.8878 20.9289C23.8158 21.8013 24.2798 22.857 24.2798 24.096C24.2798 24.9431 24.0607 25.7143 23.6224 26.4097C23.1971 27.0925 22.6365 27.6361 21.9405 28.0407C21.2445 28.4453 20.4776 28.6476 19.6399 28.6476Z" fill="#72777D"/>
<path d="M33.3211 32.9905C33.3211 37.7064 33.9655 42.0431 35.2544 46.0004C36.5303 49.9577 38.4894 53.6243 41.1315 57H49C47.9947 55.7483 47.0603 54.2185 46.1967 52.4105C45.3332 50.6025 44.5792 48.6302 43.9348 46.4935C43.2904 44.3441 42.7877 42.1189 42.4268 39.8179C42.066 37.5168 41.8855 35.241 41.8855 32.9905C41.8855 29.9941 42.2013 26.9723 42.8328 23.9253C43.4515 20.8657 44.3021 18.0336 45.3848 15.4291C46.4545 12.8119 47.6596 10.6689 49 9H41.1315C38.4894 12.3757 36.5303 16.0423 35.2544 19.9996C33.9655 23.9569 33.3211 28.2872 33.3211 32.9905Z" fill="#72777D"/>
</g>
</g>
</svg>
