<svg width="96" height="96" viewBox="0 0 96 96" fill="none" xmlns="http://www.w3.org/2000/svg">
<rect width="96" height="96" fill="#A95226"/>
<path fill-rule="evenodd" clip-rule="evenodd" d="M56 50L48 42L40 50H10C8.89543 50 8 50.8954 8 52V86C8 87.1046 8.89543 88 10 88H86C87.1046 88 88 87.1046 88 86V52C88 50.8954 87.1046 50 86 50H56Z" fill="#FFA758"/>
<path d="M45.3122 38C43.8283 38 42.5059 37.7426 41.345 37.2278C40.1842 36.7028 39.2656 35.9306 38.5892 34.911C37.923 33.8814 37.5898 32.5994 37.5898 31.065C37.5898 29.7729 37.8271 28.6877 38.3015 27.8095C38.776 26.9312 39.422 26.2246 40.2397 25.6896C41.0574 25.1546 41.9861 24.7508 43.0258 24.4782C44.0756 24.2057 45.176 24.0139 46.3268 23.9028C47.6794 23.7615 48.7697 23.6303 49.5974 23.5091C50.4252 23.3779 51.0258 23.1861 51.3993 22.9338C51.7728 22.6814 51.9596 22.3079 51.9596 21.8132V21.7224C51.9596 20.7634 51.6567 20.0215 51.051 19.4965C50.4555 18.9716 49.6075 18.7091 48.5072 18.7091C47.3463 18.7091 46.4227 18.9666 45.7362 19.4814C45.0498 19.9861 44.5955 20.6221 44.3734 21.3893L38.4075 20.9047C38.7103 19.4915 39.3059 18.27 40.1943 17.2404C41.0826 16.2006 42.2283 15.4032 43.6315 14.8479C45.0447 14.2826 46.6801 14 48.5375 14C49.8296 14 51.0662 14.1514 52.2473 14.4543C53.4384 14.7571 54.4933 15.2265 55.4119 15.8625C56.3406 16.4984 57.0725 17.3161 57.6075 18.3155C58.1425 19.3047 58.41 20.4909 58.41 21.8738V37.5609H52.2927V34.3356H52.111C51.7375 35.0625 51.2378 35.7035 50.6119 36.2587C49.9861 36.8038 49.234 37.2328 48.3558 37.5457C47.4775 37.8486 46.463 38 45.3122 38ZM47.1596 33.5483C48.1085 33.5483 48.9463 33.3615 49.6731 32.988C50.3999 32.6044 50.9703 32.0896 51.3842 31.4435C51.798 30.7975 52.005 30.0656 52.005 29.2479V26.7798C51.8031 26.911 51.5255 27.0322 51.1722 27.1432C50.829 27.2442 50.4403 27.3401 50.0062 27.4309C49.5722 27.5117 49.1381 27.5874 48.704 27.658C48.27 27.7186 47.8763 27.7741 47.523 27.8246C46.7659 27.9356 46.1047 28.1123 45.5394 28.3546C44.9741 28.5968 44.535 28.9249 44.222 29.3388C43.9091 29.7426 43.7526 30.2473 43.7526 30.853C43.7526 31.7312 44.0706 32.4025 44.7066 32.8669C45.3526 33.3211 46.1703 33.5483 47.1596 33.5483Z" fill="#FFEAD4"/>
<path d="M26.0511 80.4545C24.2235 80.4356 22.6136 79.9432 21.2216 78.9773C19.839 78.0114 18.7595 76.6761 17.983 74.9716C17.2064 73.267 16.8182 71.3068 16.8182 69.0909C16.8182 66.8845 17.2254 64.9432 18.0398 63.267C18.8636 61.5909 19.9811 60.2794 21.392 59.3324C22.803 58.3759 24.4081 57.8977 26.2074 57.8977C27.4574 57.8977 28.5653 58.1297 29.5312 58.5938C30.4972 59.0578 31.321 59.7064 32.0028 60.5398C32.6941 61.3731 33.2576 62.339 33.6932 63.4375H35.2557L36.2642 69.0341L39.0199 80H35.1278L32.5426 69.0341C32.4006 68.3239 32.1922 67.5568 31.9176 66.733C31.643 65.8996 31.2784 65.1089 30.8239 64.3608C30.3693 63.6127 29.8011 63.0019 29.1193 62.5284C28.447 62.0549 27.642 61.8182 26.7045 61.8182C25.6439 61.8182 24.7159 62.1307 23.9205 62.7557C23.1345 63.3712 22.5237 64.2282 22.0881 65.3267C21.6525 66.4157 21.4347 67.6705 21.4347 69.0909C21.4347 70.5019 21.643 71.7661 22.0597 72.8835C22.4858 74.0009 23.0777 74.8816 23.8352 75.5256C24.6023 76.1695 25.4877 76.4915 26.4915 76.4915C27.4006 76.4915 28.196 76.2453 28.8778 75.7528C29.5691 75.2604 30.161 74.6307 30.6534 73.8636C31.1458 73.0966 31.5483 72.2917 31.8608 71.4489C32.1733 70.6061 32.4006 69.839 32.5426 69.1477L34.8864 58.1818H38.7358L36.2642 69.1477L35.2557 74.7585H33.821C33.3759 75.8665 32.7983 76.8513 32.0881 77.7131C31.3873 78.5748 30.535 79.2519 29.5312 79.7443C28.5369 80.2273 27.3769 80.464 26.0511 80.4545Z" fill="#A95226"/>
<path d="M74.039 60.846L77.751 61.919C74.097 72.359 67.34 78.449 56.958 81.697C56.552 80.827 55.45 79.145 54.754 78.304C64.788 75.665 71.023 70.3 74.039 60.846ZM62.845 61.078C65.774 69.662 72.038 75.839 82.362 78.159C81.521 78.971 80.39 80.624 79.839 81.639C68.964 78.797 62.99 72.156 59.365 62.122L62.845 61.078ZM55.276 58.961H81.84V62.383H55.276V58.961ZM66.673 54.379H70.269V61.049H66.673V54.379Z" fill="#A95226"/>
</svg>
