<svg width="129" height="128" viewBox="0 0 129 128" fill="none" xmlns="http://www.w3.org/2000/svg">
<path fill-rule="evenodd" clip-rule="evenodd" d="M64.5 124.364C97.8379 124.364 124.864 97.3379 124.864 64C124.864 30.6621 97.8379 3.63636 64.5 3.63636C31.1621 3.63636 4.13636 30.6621 4.13636 64C4.13636 97.3379 31.1621 124.364 64.5 124.364ZM64.5 128C99.8462 128 128.5 99.3462 128.5 64C128.5 28.6538 99.8462 0 64.5 0C29.1538 0 0.5 28.6538 0.5 64C0.5 99.3462 29.1538 128 64.5 128Z" fill="white" fill-opacity="0.4"/>
<circle cx="64.5" cy="64" r="48" fill="white" fill-opacity="0.9"/>
<path fill-rule="evenodd" clip-rule="evenodd" d="M92.5 50L56.5 84L36.5 64L42.5 58L56.5 72L86.5 44L92.5 50Z" fill="#14876B"/>
</svg>
