<svg width="20" height="20" viewBox="0 0 20 20" fill="none" xmlns="http://www.w3.org/2000/svg">
<g id="Accessibility / Bright">
<path id="Union" fill-rule="evenodd" clip-rule="evenodd" d="M17.07 2.93V7.07L20 10L17.07 12.93V17.07H12.93L10 20L7.07 17.07H2.93V12.93L0 10L2.93 7.07V2.93H7.07L10 0L12.93 2.93H17.07ZM4 10C4 13.3137 6.68629 16 10 16C13.3137 16 16 13.3137 16 10C16 6.68629 13.3137 4 10 4C6.68629 4 4 6.68629 4 10ZM10 14.5C12.4853 14.5 14.5 12.4853 14.5 10C14.5 7.51472 12.4853 5.5 10 5.5C7.51472 5.5 5.5 7.51472 5.5 10C5.5 12.4853 7.51472 14.5 10 14.5Z" fill="#202122"/>
</g>
</svg>
